%TF.GenerationSoftware,KiCad,Pcbnew,(6.0.7)*%
%TF.CreationDate,2023-02-01T00:47:32-08:00*%
%TF.ProjectId,SpresensePart2,53707265-7365-46e7-9365-50617274322e,rev?*%
%TF.SameCoordinates,Original*%
%TF.FileFunction,Copper,L1,Top*%
%TF.FilePolarity,Positive*%
%FSLAX46Y46*%
G04 Gerber Fmt 4.6, Leading zero omitted, Abs format (unit mm)*
G04 Created by KiCad (PCBNEW (6.0.7)) date 2023-02-01 00:47:32*
%MOMM*%
%LPD*%
G01*
G04 APERTURE LIST*
G04 Aperture macros list*
%AMRoundRect*
0 Rectangle with rounded corners*
0 $1 Rounding radius*
0 $2 $3 $4 $5 $6 $7 $8 $9 X,Y pos of 4 corners*
0 Add a 4 corners polygon primitive as box body*
4,1,4,$2,$3,$4,$5,$6,$7,$8,$9,$2,$3,0*
0 Add four circle primitives for the rounded corners*
1,1,$1+$1,$2,$3*
1,1,$1+$1,$4,$5*
1,1,$1+$1,$6,$7*
1,1,$1+$1,$8,$9*
0 Add four rect primitives between the rounded corners*
20,1,$1+$1,$2,$3,$4,$5,0*
20,1,$1+$1,$4,$5,$6,$7,0*
20,1,$1+$1,$6,$7,$8,$9,0*
20,1,$1+$1,$8,$9,$2,$3,0*%
G04 Aperture macros list end*
%TA.AperFunction,ComponentPad*%
%ADD10C,1.879600*%
%TD*%
%TA.AperFunction,SMDPad,CuDef*%
%ADD11R,1.473200X0.355600*%
%TD*%
%TA.AperFunction,SMDPad,CuDef*%
%ADD12RoundRect,0.200000X-0.275000X0.200000X-0.275000X-0.200000X0.275000X-0.200000X0.275000X0.200000X0*%
%TD*%
%TA.AperFunction,SMDPad,CuDef*%
%ADD13R,1.475000X0.450000*%
%TD*%
%TA.AperFunction,SMDPad,CuDef*%
%ADD14R,1.100000X1.450000*%
%TD*%
%TA.AperFunction,SMDPad,CuDef*%
%ADD15R,1.350000X2.900000*%
%TD*%
%TA.AperFunction,SMDPad,CuDef*%
%ADD16R,1.450000X1.100000*%
%TD*%
%TA.AperFunction,SMDPad,CuDef*%
%ADD17R,2.900000X1.350000*%
%TD*%
%TA.AperFunction,ViaPad*%
%ADD18C,0.800000*%
%TD*%
%TA.AperFunction,Conductor*%
%ADD19C,0.250000*%
%TD*%
G04 APERTURE END LIST*
D10*
%TO.P,J16,1,1*%
%TO.N,/VSOLAR*%
X120853200Y-149352000D03*
%TD*%
D11*
%TO.P,U2,1,1OE\u002A*%
%TO.N,GND*%
X163601400Y-105482200D03*
%TO.P,U2,2,1A0*%
%TO.N,/PB23*%
X163601400Y-106132201D03*
%TO.P,U2,3,2Y0*%
%TO.N,/3V34*%
X163601400Y-106782199D03*
%TO.P,U2,4,1A1*%
%TO.N,/PA20*%
X163601400Y-107432201D03*
%TO.P,U2,5,2Y1*%
%TO.N,/3V35*%
X163601400Y-108082199D03*
%TO.P,U2,6,1A2*%
%TO.N,/PB16*%
X163601400Y-108732198D03*
%TO.P,U2,7,2Y2*%
%TO.N,unconnected-(U2-Pad7)*%
X163601400Y-109382199D03*
%TO.P,U2,8,1A3*%
%TO.N,/PB22*%
X163601400Y-110032198D03*
%TO.P,U2,9,2Y3*%
%TO.N,unconnected-(U2-Pad9)*%
X163601400Y-110682199D03*
%TO.P,U2,10,GND*%
%TO.N,GND*%
X163601400Y-111332198D03*
%TO.P,U2,11,2A3*%
%TO.N,unconnected-(U2-Pad11)*%
X169443400Y-111332200D03*
%TO.P,U2,12,1Y3*%
%TO.N,/3V33*%
X169443400Y-110682202D03*
%TO.P,U2,13,2A2*%
%TO.N,unconnected-(U2-Pad13)*%
X169443400Y-110032201D03*
%TO.P,U2,14,1Y2*%
%TO.N,/3V32*%
X169443400Y-109382202D03*
%TO.P,U2,15,2A1*%
%TO.N,/PA19*%
X169443400Y-108732201D03*
%TO.P,U2,16,1Y1*%
%TO.N,/3V31*%
X169443400Y-108082202D03*
%TO.P,U2,17,2A0*%
%TO.N,/PA22*%
X169443400Y-107432201D03*
%TO.P,U2,18,1Y0*%
%TO.N,/3V30*%
X169443400Y-106782202D03*
%TO.P,U2,19,2OE\u002A*%
%TO.N,GND*%
X169443400Y-106132201D03*
%TO.P,U2,20,VCC*%
%TO.N,+3V3*%
X169443400Y-105482202D03*
%TD*%
D12*
%TO.P,R6,1*%
%TO.N,+3V3*%
X150469600Y-116472200D03*
%TO.P,R6,2*%
%TO.N,/SC2*%
X150469600Y-118122200D03*
%TD*%
%TO.P,R4,1*%
%TO.N,+3V3*%
X158115000Y-116460000D03*
%TO.P,R4,2*%
%TO.N,/SD0*%
X158115000Y-118110000D03*
%TD*%
D10*
%TO.P,J7,1,1*%
%TO.N,+3V3*%
X120904000Y-96393000D03*
%TO.P,J7,2,2*%
%TO.N,GND*%
X123444000Y-96393000D03*
%TO.P,J7,3,3*%
%TO.N,/MOSI*%
X125984000Y-96393000D03*
%TO.P,J7,4,4*%
%TO.N,/SCK*%
X128524000Y-96393000D03*
%TO.P,J7,5,5*%
%TO.N,/MISO*%
X131064000Y-96393000D03*
%TO.P,J7,6,6*%
%TO.N,/PB23*%
X133604000Y-96393000D03*
%TO.P,J7,7,7*%
%TO.N,/PB22*%
X136144000Y-96393000D03*
%TO.P,J7,8,8*%
%TO.N,/PA20*%
X138684000Y-96393000D03*
%TO.P,J7,9,9*%
%TO.N,/PA22*%
X141224000Y-96393000D03*
%TD*%
%TO.P,J9,1,1*%
%TO.N,/PA17*%
X153860500Y-98945700D03*
%TO.P,J9,2,2*%
%TO.N,/PA16*%
X156400500Y-98945700D03*
%TD*%
D13*
%TO.P,U1,1,A0*%
%TO.N,+3V3*%
X160892000Y-117075000D03*
%TO.P,U1,2,A1*%
X160892000Y-117725000D03*
%TO.P,U1,3,~{RESET}*%
X160892000Y-118375000D03*
%TO.P,U1,4,SD0*%
%TO.N,/SD0*%
X160892000Y-119025000D03*
%TO.P,U1,5,SC0*%
%TO.N,/SC0*%
X160892000Y-119675000D03*
%TO.P,U1,6,SD1*%
%TO.N,/SD1*%
X160892000Y-120325000D03*
%TO.P,U1,7,SC1*%
%TO.N,/SC1*%
X160892000Y-120975000D03*
%TO.P,U1,8,SD2*%
%TO.N,/SD2*%
X160892000Y-121625000D03*
%TO.P,U1,9,SC2*%
%TO.N,/SC2*%
X160892000Y-122275000D03*
%TO.P,U1,10,SD3*%
%TO.N,/SD3*%
X160892000Y-122925000D03*
%TO.P,U1,11,SC3*%
%TO.N,/SC3*%
X160892000Y-123575000D03*
%TO.P,U1,12,GND*%
%TO.N,GND*%
X160892000Y-124225000D03*
%TO.P,U1,13,SD4*%
%TO.N,/SD4*%
X166768000Y-124225000D03*
%TO.P,U1,14,SC4*%
%TO.N,/SC4*%
X166768000Y-123575000D03*
%TO.P,U1,15,SD5*%
%TO.N,/SD5*%
X166768000Y-122925000D03*
%TO.P,U1,16,SC5*%
%TO.N,/SC5*%
X166768000Y-122275000D03*
%TO.P,U1,17,SD6*%
%TO.N,unconnected-(U1-Pad17)*%
X166768000Y-121625000D03*
%TO.P,U1,18,SC6*%
%TO.N,unconnected-(U1-Pad18)*%
X166768000Y-120975000D03*
%TO.P,U1,19,SD7*%
%TO.N,unconnected-(U1-Pad19)*%
X166768000Y-120325000D03*
%TO.P,U1,20,SC7*%
%TO.N,unconnected-(U1-Pad20)*%
X166768000Y-119675000D03*
%TO.P,U1,21,A2*%
%TO.N,+3V3*%
X166768000Y-119025000D03*
%TO.P,U1,22,SCL*%
%TO.N,/PA16*%
X166768000Y-118375000D03*
%TO.P,U1,23,SDA*%
%TO.N,/PA17*%
X166768000Y-117725000D03*
%TO.P,U1,24,VCC*%
%TO.N,+3V3*%
X166768000Y-117075000D03*
%TD*%
D14*
%TO.P,J2,1,1*%
%TO.N,/VSOLAR*%
X128499100Y-138468100D03*
%TO.P,J2,2,2*%
%TO.N,GND*%
X130499100Y-138468100D03*
%TO.P,J2,3,3*%
%TO.N,/3V32*%
X132499100Y-138468100D03*
%TO.P,J2,4,4*%
%TO.N,/SC2*%
X134499100Y-138468100D03*
%TO.P,J2,5,5*%
%TO.N,/SD2*%
X136499100Y-138468100D03*
D15*
%TO.P,J2,6*%
%TO.N,N/C*%
X125604100Y-144443100D03*
%TO.P,J2,7*%
X139394100Y-144443100D03*
%TD*%
D10*
%TO.P,J8,1,1*%
%TO.N,+3V3*%
X137591800Y-120802400D03*
%TO.P,J8,2,2*%
%TO.N,/CS*%
X137591800Y-118262400D03*
%TO.P,J8,3,3*%
%TO.N,/CLK*%
X137591800Y-115722400D03*
%TO.P,J8,4,4*%
%TO.N,/RST*%
X137591800Y-113182400D03*
%TO.P,J8,5,5*%
%TO.N,GND*%
X137591800Y-110642400D03*
%TD*%
D12*
%TO.P,R5,1*%
%TO.N,+3V3*%
X147421600Y-116472200D03*
%TO.P,R5,2*%
%TO.N,/SC3*%
X147421600Y-118122200D03*
%TD*%
D10*
%TO.P,J10,1,1*%
%TO.N,/PB17*%
X151320500Y-96393000D03*
%TO.P,J10,2,2*%
%TO.N,/PB16*%
X153860500Y-96393000D03*
%TO.P,J10,3,3*%
%TO.N,/PA19*%
X156400500Y-96393000D03*
%TD*%
D12*
%TO.P,R3,1*%
%TO.N,+3V3*%
X155041600Y-116472200D03*
%TO.P,R3,2*%
%TO.N,/SD1*%
X155041600Y-118122200D03*
%TD*%
%TO.P,R7,1*%
%TO.N,+3V3*%
X153517600Y-116472200D03*
%TO.P,R7,2*%
%TO.N,/SC1*%
X153517600Y-118122200D03*
%TD*%
D16*
%TO.P,J3,1,1*%
%TO.N,/VSOLAR*%
X179349400Y-122960900D03*
%TO.P,J3,2,2*%
%TO.N,GND*%
X179349400Y-120960900D03*
%TO.P,J3,3,3*%
%TO.N,/3V34*%
X179349400Y-118960900D03*
%TO.P,J3,4,4*%
%TO.N,/SC4*%
X179349400Y-116960900D03*
%TO.P,J3,5,5*%
%TO.N,/SD4*%
X179349400Y-114960900D03*
D17*
%TO.P,J3,6*%
%TO.N,N/C*%
X185324400Y-125855900D03*
%TO.P,J3,7*%
X185324400Y-112065900D03*
%TD*%
D12*
%TO.P,R11,1*%
%TO.N,+3V3*%
X173736000Y-119215400D03*
%TO.P,R11,2*%
%TO.N,/SD4*%
X173736000Y-120865400D03*
%TD*%
%TO.P,R8,1*%
%TO.N,+3V3*%
X156591000Y-116460000D03*
%TO.P,R8,2*%
%TO.N,/SC0*%
X156591000Y-118110000D03*
%TD*%
D16*
%TO.P,J6,1,1*%
%TO.N,/VSOLAR*%
X183565800Y-106362000D03*
%TO.P,J6,2,2*%
%TO.N,GND*%
X183565800Y-104362000D03*
%TO.P,J6,3,3*%
%TO.N,/3V35*%
X183565800Y-102362000D03*
%TO.P,J6,4,4*%
%TO.N,/SC5*%
X183565800Y-100362000D03*
%TO.P,J6,5,5*%
%TO.N,/SD5*%
X183565800Y-98362000D03*
D17*
%TO.P,J6,6*%
%TO.N,N/C*%
X189540800Y-109257000D03*
%TO.P,J6,7*%
X189540800Y-95467000D03*
%TD*%
D12*
%TO.P,R1,1*%
%TO.N,+3V3*%
X148945600Y-116472200D03*
%TO.P,R1,2*%
%TO.N,/SD3*%
X148945600Y-118122200D03*
%TD*%
D10*
%TO.P,J11,1,1*%
%TO.N,GND*%
X118313200Y-149148800D03*
%TD*%
D12*
%TO.P,R10,1*%
%TO.N,+3V3*%
X172161200Y-119215400D03*
%TO.P,R10,2*%
%TO.N,/SC4*%
X172161200Y-120865400D03*
%TD*%
%TO.P,R12,1*%
%TO.N,+3V3*%
X170637200Y-119215400D03*
%TO.P,R12,2*%
%TO.N,/SD5*%
X170637200Y-120865400D03*
%TD*%
D14*
%TO.P,J1,1,1*%
%TO.N,/VSOLAR*%
X161214300Y-138442700D03*
%TO.P,J1,2,2*%
%TO.N,GND*%
X163214300Y-138442700D03*
%TO.P,J1,3,3*%
%TO.N,/3V30*%
X165214300Y-138442700D03*
%TO.P,J1,4,4*%
%TO.N,/SC0*%
X167214300Y-138442700D03*
%TO.P,J1,5,5*%
%TO.N,/SD0*%
X169214300Y-138442700D03*
D15*
%TO.P,J1,6*%
%TO.N,N/C*%
X158319300Y-144417700D03*
%TO.P,J1,7*%
X172109300Y-144417700D03*
%TD*%
D14*
%TO.P,J4,1,1*%
%TO.N,/VSOLAR*%
X144958300Y-138442700D03*
%TO.P,J4,2,2*%
%TO.N,GND*%
X146958300Y-138442700D03*
%TO.P,J4,3,3*%
%TO.N,/3V31*%
X148958300Y-138442700D03*
%TO.P,J4,4,4*%
%TO.N,/SC1*%
X150958300Y-138442700D03*
%TO.P,J4,5,5*%
%TO.N,/SD1*%
X152958300Y-138442700D03*
D15*
%TO.P,J4,6*%
%TO.N,N/C*%
X142063300Y-144417700D03*
%TO.P,J4,7*%
X155853300Y-144417700D03*
%TD*%
D16*
%TO.P,J5,1,1*%
%TO.N,/VSOLAR*%
X179387500Y-140740900D03*
%TO.P,J5,2,2*%
%TO.N,GND*%
X179387500Y-138740900D03*
%TO.P,J5,3,3*%
%TO.N,/3V33*%
X179387500Y-136740900D03*
%TO.P,J5,4,4*%
%TO.N,/SC3*%
X179387500Y-134740900D03*
%TO.P,J5,5,5*%
%TO.N,/SD3*%
X179387500Y-132740900D03*
D17*
%TO.P,J5,6*%
%TO.N,N/C*%
X185362500Y-143635900D03*
%TO.P,J5,7*%
X185362500Y-129845900D03*
%TD*%
D12*
%TO.P,R2,1*%
%TO.N,+3V3*%
X151993600Y-116472200D03*
%TO.P,R2,2*%
%TO.N,/SD2*%
X151993600Y-118122200D03*
%TD*%
D10*
%TO.P,J12,1,1*%
%TO.N,/VSOLAR*%
X189738000Y-128270000D03*
%TD*%
%TO.P,J15,1,1*%
%TO.N,GND*%
X189484000Y-130810000D03*
%TD*%
D12*
%TO.P,R9,1*%
%TO.N,+3V3*%
X169062400Y-119215400D03*
%TO.P,R9,2*%
%TO.N,/SC5*%
X169062400Y-120865400D03*
%TD*%
D18*
%TO.N,GND*%
X185521600Y-104140000D03*
X162255200Y-105359200D03*
X146964400Y-141274800D03*
X157886400Y-125018800D03*
X130454400Y-141020800D03*
X163271200Y-141274800D03*
X167995600Y-106070400D03*
X162306000Y-111302800D03*
X181457600Y-121005600D03*
X182067200Y-138938000D03*
X131927600Y-104952800D03*
%TO.N,/3V33*%
X177596800Y-136448800D03*
X176479200Y-131114800D03*
X172618400Y-111048800D03*
X174498000Y-115062000D03*
X176377600Y-121412000D03*
X175514000Y-117348000D03*
%TO.N,/SC3*%
X162509200Y-124561600D03*
X165862000Y-127406400D03*
%TO.N,/SD3*%
X162560000Y-123088400D03*
X165760400Y-126187200D03*
%TO.N,/PB23*%
X152552400Y-104038400D03*
X157937200Y-104902000D03*
X143052800Y-103936800D03*
%TO.N,/PB22*%
X157429200Y-107238800D03*
%TO.N,/PA20*%
X159766000Y-107035600D03*
X159766000Y-104394000D03*
X159715200Y-97383600D03*
%TO.N,/PA22*%
X167335200Y-103225600D03*
X171754800Y-104851200D03*
%TO.N,/PB16*%
X158648400Y-107086400D03*
%TO.N,+3V3*%
X185674000Y-116128800D03*
X127558800Y-108204000D03*
X173583600Y-116840000D03*
X176834800Y-114249200D03*
X173482000Y-101701600D03*
X181406800Y-113436400D03*
X173634400Y-97739200D03*
%TO.N,/SD2*%
X152247600Y-124968000D03*
X155248800Y-121377400D03*
%TO.N,/SC2*%
X153714700Y-121367300D03*
X151028400Y-124155200D03*
%TO.N,/SC5*%
X175310800Y-109931200D03*
X178155600Y-102819200D03*
X168204900Y-121722900D03*
X169207900Y-117957600D03*
%TO.N,/SC4*%
X174802800Y-121970800D03*
X169551100Y-123475500D03*
%TO.N,/3V34*%
X178257200Y-119837200D03*
X161442400Y-106809101D03*
%TO.N,/3V35*%
X181000400Y-102514400D03*
X165862000Y-107238800D03*
X176022000Y-99923600D03*
X166928800Y-105410000D03*
%TO.N,/3V32*%
X167318700Y-109321600D03*
X149656800Y-121920000D03*
%TO.N,/3V31*%
X167995600Y-107137200D03*
X155397200Y-125526800D03*
%TO.N,/3V30*%
X171450000Y-106934000D03*
X165100000Y-134518400D03*
%TD*%
D19*
%TO.N,/PA22*%
X143109313Y-94437200D02*
X141681522Y-95864991D01*
X166268400Y-96164400D02*
X164541200Y-94437200D01*
X166268400Y-102158800D02*
X166268400Y-96164400D01*
X164541200Y-94437200D02*
X143109313Y-94437200D01*
X167335200Y-103225600D02*
X166268400Y-102158800D01*
%TO.N,GND*%
X163601400Y-111332198D02*
X162335398Y-111332198D01*
X163214300Y-138442700D02*
X163214300Y-141217900D01*
X163601400Y-105482200D02*
X162378200Y-105482200D01*
X162335398Y-111332198D02*
X162306000Y-111302800D01*
X181870100Y-138740900D02*
X182067200Y-138938000D01*
X179387500Y-138740900D02*
X181870100Y-138740900D01*
X163214300Y-141217900D02*
X163271200Y-141274800D01*
X185299600Y-104362000D02*
X185521600Y-104140000D01*
X146958300Y-141268700D02*
X146964400Y-141274800D01*
X183565800Y-104362000D02*
X185299600Y-104362000D01*
X168057401Y-106132201D02*
X167995600Y-106070400D01*
X160892000Y-124225000D02*
X158680200Y-124225000D01*
X158680200Y-124225000D02*
X157886400Y-125018800D01*
X130499100Y-140976100D02*
X130454400Y-141020800D01*
X162378200Y-105482200D02*
X162255200Y-105359200D01*
X130499100Y-138468100D02*
X130499100Y-140976100D01*
X146958300Y-138442700D02*
X146958300Y-141268700D01*
X169443400Y-106132201D02*
X168057401Y-106132201D01*
X179349400Y-120960900D02*
X181412900Y-120960900D01*
X181412900Y-120960900D02*
X181457600Y-121005600D01*
%TO.N,/VSOLAR*%
X128879600Y-142544800D02*
X128879600Y-143847400D01*
X171120300Y-140740900D02*
X179387500Y-140740900D01*
X128879600Y-142544800D02*
X137058400Y-142544800D01*
X161214300Y-138442700D02*
X161214300Y-142062700D01*
X128499100Y-142164300D02*
X128879600Y-142544800D01*
X157670500Y-138442700D02*
X161214300Y-138442700D01*
X183845200Y-128066800D02*
X188823600Y-128066800D01*
X168808400Y-143052800D02*
X171120300Y-140740900D01*
X181203600Y-133959600D02*
X181203600Y-126238000D01*
X181635900Y-122960900D02*
X183032400Y-121564400D01*
X183032400Y-106895400D02*
X183565800Y-106362000D01*
X183794400Y-136550400D02*
X181203600Y-133959600D01*
X141160500Y-138442700D02*
X144958300Y-138442700D01*
X153466800Y-142646400D02*
X157670500Y-138442700D01*
X183794400Y-139547600D02*
X183794400Y-136550400D01*
X162204400Y-143052800D02*
X168808400Y-143052800D01*
X123375000Y-149352000D02*
X120853200Y-149352000D01*
X181203600Y-126238000D02*
X182016400Y-126238000D01*
X179349400Y-124383800D02*
X179349400Y-122960900D01*
X144958300Y-141605500D02*
X145999200Y-142646400D01*
X144958300Y-138442700D02*
X144958300Y-141605500D01*
X183032400Y-121564400D02*
X183032400Y-106895400D01*
X145999200Y-142646400D02*
X153466800Y-142646400D01*
X137058400Y-142544800D02*
X141160500Y-138442700D01*
X161214300Y-142062700D02*
X162204400Y-143052800D01*
X128879600Y-143847400D02*
X123375000Y-149352000D01*
X182016400Y-126238000D02*
X183845200Y-128066800D01*
X181203600Y-126238000D02*
X179349400Y-124383800D01*
X182601100Y-140740900D02*
X183794400Y-139547600D01*
X179349400Y-122960900D02*
X181635900Y-122960900D01*
X179387500Y-140740900D02*
X182601100Y-140740900D01*
X128499100Y-138468100D02*
X128499100Y-142164300D01*
%TO.N,/3V33*%
X176479200Y-131114800D02*
X176479200Y-121513600D01*
X179387500Y-136740900D02*
X177888900Y-136740900D01*
X176479200Y-121513600D02*
X176377600Y-121412000D01*
X172618400Y-111048800D02*
X172251802Y-110682202D01*
X175514000Y-117348000D02*
X175514000Y-116078000D01*
X175514000Y-116078000D02*
X174498000Y-115062000D01*
X177888900Y-136740900D02*
X177596800Y-136448800D01*
X172251802Y-110682202D02*
X169443400Y-110682202D01*
%TO.N,/SC3*%
X161879500Y-123575000D02*
X162509200Y-124204700D01*
X160892000Y-123575000D02*
X152874400Y-123575000D01*
X160892000Y-123575000D02*
X161879500Y-123575000D01*
X162509200Y-124204700D02*
X162509200Y-124561600D01*
X165862000Y-127406400D02*
X171958000Y-133502400D01*
X172008800Y-133502400D02*
X173247300Y-134740900D01*
X171958000Y-133502400D02*
X172008800Y-133502400D01*
X173247300Y-134740900D02*
X179387500Y-134740900D01*
X152874400Y-123575000D02*
X147421600Y-118122200D01*
%TO.N,/SD3*%
X165760400Y-126187200D02*
X172314100Y-132740900D01*
X162396600Y-122925000D02*
X162560000Y-123088400D01*
X160892000Y-122925000D02*
X153748400Y-122925000D01*
X160892000Y-122925000D02*
X162396600Y-122925000D01*
X172314100Y-132740900D02*
X179387500Y-132740900D01*
X153748400Y-122925000D02*
X148945600Y-118122200D01*
%TO.N,/PB23*%
X143154400Y-104038400D02*
X143052800Y-103936800D01*
X163601400Y-106132201D02*
X159167401Y-106132201D01*
X152552400Y-104038400D02*
X143154400Y-104038400D01*
X159167401Y-106132201D02*
X157937200Y-104902000D01*
%TO.N,/PB22*%
X163601400Y-110032198D02*
X160222598Y-110032198D01*
X160222598Y-110032198D02*
X157429200Y-107238800D01*
%TO.N,/PA20*%
X159766000Y-104394000D02*
X159766000Y-97434400D01*
X161696400Y-107899200D02*
X160629600Y-107899200D01*
X162163399Y-107432201D02*
X161696400Y-107899200D01*
X160629600Y-107899200D02*
X159766000Y-107035600D01*
X163601400Y-107432201D02*
X162163399Y-107432201D01*
X159766000Y-97434400D02*
X159715200Y-97383600D01*
%TO.N,/PA22*%
X173024800Y-106426000D02*
X173024800Y-107391200D01*
X171754800Y-105156000D02*
X173024800Y-106426000D01*
X171754800Y-104851200D02*
X171754800Y-105156000D01*
X170678201Y-107432201D02*
X169443400Y-107432201D01*
X173024800Y-107391200D02*
X172567600Y-107848400D01*
X171094400Y-107848400D02*
X170678201Y-107432201D01*
X172567600Y-107848400D02*
X171094400Y-107848400D01*
%TO.N,/PA17*%
X167771000Y-117725000D02*
X168859200Y-116636800D01*
X157073600Y-113182400D02*
X153939965Y-110048765D01*
X168859200Y-116179600D02*
X165862000Y-113182400D01*
X165862000Y-113182400D02*
X157073600Y-113182400D01*
X153939965Y-99642980D02*
X153958144Y-99624801D01*
X153939965Y-110048765D02*
X153939965Y-99642980D01*
X166768000Y-117725000D02*
X167771000Y-117725000D01*
X168859200Y-116636800D02*
X168859200Y-116179600D01*
%TO.N,/PA16*%
X156479965Y-111830765D02*
X156479965Y-99642980D01*
X169261600Y-116803480D02*
X169261600Y-116012920D01*
X156479965Y-99642980D02*
X156498144Y-99624801D01*
X166028680Y-112780000D02*
X157429200Y-112780000D01*
X157429200Y-112780000D02*
X156479965Y-111830765D01*
X169261600Y-116012920D02*
X166028680Y-112780000D01*
X166768000Y-118375000D02*
X167690080Y-118375000D01*
X167690080Y-118375000D02*
X169261600Y-116803480D01*
%TO.N,/PB16*%
X160294198Y-108732198D02*
X158648400Y-107086400D01*
X163601400Y-108732198D02*
X160294198Y-108732198D01*
%TO.N,/PA19*%
X164185600Y-104461001D02*
X164185600Y-97282000D01*
X164185600Y-97282000D02*
X163118800Y-96215200D01*
X163118800Y-96215200D02*
X157378400Y-96215200D01*
X169443400Y-108732201D02*
X168456800Y-108732201D01*
X168456800Y-108732201D02*
X164185600Y-104461001D01*
%TO.N,+3V3*%
X121601630Y-96289054D02*
X121601630Y-96125161D01*
X166768000Y-119025000D02*
X168872000Y-119025000D01*
X166768000Y-117075000D02*
X165780500Y-117075000D01*
X168872000Y-119025000D02*
X169062400Y-119215400D01*
X142303000Y-116472200D02*
X138430000Y-120345200D01*
X127558800Y-108204000D02*
X127558800Y-102246224D01*
X127558800Y-102246224D02*
X121601630Y-96289054D01*
X165913400Y-119025000D02*
X166768000Y-119025000D01*
X165354000Y-118465600D02*
X165913400Y-119025000D01*
X121601630Y-96125161D02*
X121491744Y-96015275D01*
X147421600Y-116472200D02*
X142303000Y-116472200D01*
X165780500Y-117075000D02*
X165354000Y-117501500D01*
X165354000Y-117501500D02*
X165354000Y-118465600D01*
%TO.N,/SD2*%
X152247600Y-124968000D02*
X138747500Y-138468100D01*
X138747500Y-138468100D02*
X136499100Y-138468100D01*
X159613600Y-121377400D02*
X155248800Y-121377400D01*
X155248800Y-121377400D02*
X151993600Y-118122200D01*
X160892000Y-121625000D02*
X159861200Y-121625000D01*
X159861200Y-121625000D02*
X159613600Y-121377400D01*
%TO.N,/SD1*%
X161899700Y-120345200D02*
X163525200Y-120345200D01*
X163935600Y-120755600D02*
X163935600Y-127300800D01*
X160892000Y-120325000D02*
X157244400Y-120325000D01*
X157244400Y-120325000D02*
X155041600Y-118122200D01*
X152958300Y-138278100D02*
X152958300Y-138442700D01*
X163525200Y-120345200D02*
X163935600Y-120755600D01*
X163935600Y-127300800D02*
X152958300Y-138278100D01*
X161879500Y-120325000D02*
X161899700Y-120345200D01*
X160892000Y-120325000D02*
X161879500Y-120325000D01*
%TO.N,/SD0*%
X164998400Y-119786400D02*
X164998400Y-129794000D01*
X164237000Y-119025000D02*
X164998400Y-119786400D01*
X159030000Y-119025000D02*
X158115000Y-118110000D01*
X169214300Y-134009900D02*
X169214300Y-138442700D01*
X160892000Y-119025000D02*
X159030000Y-119025000D01*
X164998400Y-129794000D02*
X169214300Y-134009900D01*
X160892000Y-119025000D02*
X164237000Y-119025000D01*
%TO.N,/SC2*%
X148812000Y-124155200D02*
X134499100Y-138468100D01*
X154622400Y-122275000D02*
X153714700Y-121367300D01*
X153714700Y-121367300D02*
X150469600Y-118122200D01*
X160892000Y-122275000D02*
X154622400Y-122275000D01*
X151028400Y-124155200D02*
X148812000Y-124155200D01*
%TO.N,/SC1*%
X160892000Y-120975000D02*
X162681800Y-120975000D01*
X163423600Y-121716800D02*
X163423600Y-125977400D01*
X160892000Y-120975000D02*
X156370400Y-120975000D01*
X156370400Y-120975000D02*
X153517600Y-118122200D01*
X162681800Y-120975000D02*
X163423600Y-121716800D01*
X163423600Y-125977400D02*
X150958300Y-138442700D01*
%TO.N,/SC0*%
X160892000Y-119675000D02*
X161879500Y-119675000D01*
X161879500Y-119675000D02*
X161889300Y-119684800D01*
X161889300Y-119684800D02*
X164134800Y-119684800D01*
X156591000Y-118110000D02*
X158156000Y-119675000D01*
X158156000Y-119675000D02*
X160892000Y-119675000D01*
X167214300Y-134549900D02*
X167214300Y-138442700D01*
X164338000Y-119888000D02*
X164338000Y-131673600D01*
X164134800Y-119684800D02*
X164338000Y-119888000D01*
X164338000Y-131673600D02*
X167214300Y-134549900D01*
%TO.N,/SC5*%
X168204900Y-121722900D02*
X169062400Y-120865400D01*
X180612800Y-100362000D02*
X178155600Y-102819200D01*
X170022460Y-116611700D02*
X169207900Y-117426260D01*
X183565800Y-100362000D02*
X180612800Y-100362000D01*
X166768000Y-122275000D02*
X167652800Y-122275000D01*
X169207900Y-117426260D02*
X169207900Y-117957600D01*
X170022460Y-116022060D02*
X170022460Y-116611700D01*
X175310800Y-109931200D02*
X175310800Y-110733720D01*
X175310800Y-110733720D02*
X170022460Y-116022060D01*
X167652800Y-122275000D02*
X168204900Y-121722900D01*
%TO.N,/SC4*%
X166768000Y-123575000D02*
X169451600Y-123575000D01*
X174802800Y-121970800D02*
X174802800Y-121507500D01*
X172161200Y-120865400D02*
X169551100Y-123475500D01*
X169451600Y-123575000D02*
X169551100Y-123475500D01*
X174802800Y-121507500D02*
X179349400Y-116960900D01*
%TO.N,/SD4*%
X170415000Y-124225000D02*
X173736000Y-120904000D01*
X179349400Y-115252000D02*
X179349400Y-114960900D01*
X173736000Y-120904000D02*
X173736000Y-120865400D01*
X173736000Y-120865400D02*
X179349400Y-115252000D01*
X166768000Y-124225000D02*
X170415000Y-124225000D01*
%TO.N,/SD5*%
X179818800Y-98362000D02*
X183565800Y-98362000D01*
X166768000Y-122925000D02*
X168577600Y-122925000D01*
X169884800Y-117541600D02*
X176225200Y-111201200D01*
X176225200Y-111201200D02*
X176225200Y-101955600D01*
X170637200Y-120865400D02*
X169884800Y-120113000D01*
X176225200Y-101955600D02*
X179818800Y-98362000D01*
X169884800Y-120113000D02*
X169884800Y-117541600D01*
X168577600Y-122925000D02*
X170637200Y-120865400D01*
%TO.N,/3V34*%
X163574498Y-106809101D02*
X163601400Y-106782199D01*
X179349400Y-118960900D02*
X179133500Y-118960900D01*
X161442400Y-106809101D02*
X163574498Y-106809101D01*
X179133500Y-118960900D02*
X178257200Y-119837200D01*
%TO.N,/3V35*%
X165018601Y-108082199D02*
X165862000Y-107238800D01*
X166928800Y-105410000D02*
X172415200Y-99923600D01*
X163601400Y-108082199D02*
X165018601Y-108082199D01*
X172415200Y-99923600D02*
X176022000Y-99923600D01*
X181152800Y-102362000D02*
X183565800Y-102362000D01*
X181000400Y-102514400D02*
X181152800Y-102362000D01*
%TO.N,/3V32*%
X167318700Y-109321600D02*
X169382798Y-109321600D01*
X169382798Y-109321600D02*
X169443400Y-109382202D01*
X132499100Y-138468100D02*
X149047200Y-121920000D01*
X149047200Y-121920000D02*
X149656800Y-121920000D01*
%TO.N,/3V31*%
X168624201Y-108082202D02*
X169443400Y-108082202D01*
X148958300Y-131965700D02*
X155397200Y-125526800D01*
X167995600Y-107137200D02*
X167995600Y-107453601D01*
X148958300Y-138442700D02*
X148958300Y-131965700D01*
X167995600Y-107453601D02*
X168624201Y-108082202D01*
%TO.N,/3V30*%
X165214300Y-134632700D02*
X165100000Y-134518400D01*
X165214300Y-138442700D02*
X165214300Y-134632700D01*
X169595198Y-106934000D02*
X169443400Y-106782202D01*
X171450000Y-106934000D02*
X169595198Y-106934000D01*
%TD*%
%TA.AperFunction,Conductor*%
%TO.N,+3V3*%
G36*
X192765721Y-93403602D02*
G01*
X192812214Y-93457258D01*
X192823600Y-93509600D01*
X192823600Y-144818600D01*
X192803598Y-144886721D01*
X192749942Y-144933214D01*
X192697600Y-144944600D01*
X187193133Y-144944600D01*
X187125012Y-144924598D01*
X187078519Y-144870942D01*
X187068415Y-144800668D01*
X187097909Y-144736088D01*
X187117568Y-144717774D01*
X187168581Y-144679542D01*
X187175761Y-144674161D01*
X187263115Y-144557605D01*
X187314245Y-144421216D01*
X187321000Y-144359034D01*
X187321000Y-142912766D01*
X187314245Y-142850584D01*
X187263115Y-142714195D01*
X187175761Y-142597639D01*
X187059205Y-142510285D01*
X186922816Y-142459155D01*
X186860634Y-142452400D01*
X183864366Y-142452400D01*
X183802184Y-142459155D01*
X183665795Y-142510285D01*
X183549239Y-142597639D01*
X183461885Y-142714195D01*
X183410755Y-142850584D01*
X183404000Y-142912766D01*
X183404000Y-144359034D01*
X183410755Y-144421216D01*
X183461885Y-144557605D01*
X183549239Y-144674161D01*
X183556419Y-144679542D01*
X183607432Y-144717774D01*
X183649947Y-144774633D01*
X183654973Y-144845451D01*
X183620913Y-144907745D01*
X183558582Y-144941735D01*
X183531867Y-144944600D01*
X180716923Y-144944600D01*
X180716153Y-144944598D01*
X180715337Y-144944593D01*
X180638579Y-144944124D01*
X180616218Y-144950515D01*
X180610147Y-144952250D01*
X180593385Y-144955828D01*
X180564113Y-144960020D01*
X180555945Y-144963734D01*
X180555944Y-144963734D01*
X180540738Y-144970648D01*
X180523214Y-144977096D01*
X180498529Y-144984151D01*
X180490935Y-144988943D01*
X180490932Y-144988944D01*
X180473520Y-144999930D01*
X180458437Y-145008069D01*
X180431518Y-145020308D01*
X180424716Y-145026169D01*
X180412065Y-145037070D01*
X180397061Y-145048173D01*
X180375342Y-145061876D01*
X180369403Y-145068601D01*
X180369399Y-145068604D01*
X180355768Y-145084038D01*
X180343576Y-145096082D01*
X180327973Y-145109527D01*
X180327971Y-145109530D01*
X180321173Y-145115387D01*
X180316293Y-145122916D01*
X180316292Y-145122917D01*
X180307206Y-145136935D01*
X180295915Y-145151809D01*
X180284869Y-145164317D01*
X180278922Y-145171051D01*
X180266358Y-145197811D01*
X180258037Y-145212791D01*
X180246829Y-145230083D01*
X180246827Y-145230088D01*
X180241948Y-145237615D01*
X180239378Y-145246208D01*
X180239376Y-145246213D01*
X180234589Y-145262220D01*
X180227928Y-145279664D01*
X180217019Y-145302900D01*
X180215638Y-145311767D01*
X180215638Y-145311768D01*
X180212470Y-145332115D01*
X180208687Y-145348832D01*
X180202785Y-145368566D01*
X180202784Y-145368572D01*
X180200214Y-145377166D01*
X180200159Y-145386137D01*
X180200159Y-145386138D01*
X180200004Y-145411597D01*
X180199971Y-145412389D01*
X180199800Y-145413486D01*
X180199800Y-145444477D01*
X180199798Y-145445247D01*
X180199324Y-145522821D01*
X180199708Y-145524165D01*
X180199800Y-145525510D01*
X180199800Y-151549600D01*
X180179798Y-151617721D01*
X180126142Y-151664214D01*
X180073800Y-151675600D01*
X114464600Y-151675600D01*
X114396479Y-151655598D01*
X114349986Y-151601942D01*
X114338600Y-151549600D01*
X114338600Y-149113294D01*
X116860370Y-149113294D01*
X116874079Y-149351055D01*
X116875216Y-149356101D01*
X116875217Y-149356107D01*
X116908311Y-149502956D01*
X116926437Y-149583385D01*
X116928379Y-149588167D01*
X116928380Y-149588171D01*
X117005797Y-149778827D01*
X117016037Y-149804044D01*
X117140474Y-150007106D01*
X117296404Y-150187117D01*
X117479642Y-150339244D01*
X117484094Y-150341846D01*
X117484099Y-150341849D01*
X117582533Y-150399369D01*
X117685265Y-150459401D01*
X117907752Y-150544360D01*
X117912818Y-150545391D01*
X117912819Y-150545391D01*
X117967156Y-150556446D01*
X118141128Y-150591841D01*
X118275321Y-150596762D01*
X118373960Y-150600379D01*
X118373964Y-150600379D01*
X118379124Y-150600568D01*
X118384244Y-150599912D01*
X118384246Y-150599912D01*
X118610223Y-150570964D01*
X118610224Y-150570964D01*
X118615351Y-150570307D01*
X118699540Y-150545049D01*
X118838516Y-150503354D01*
X118838517Y-150503353D01*
X118843462Y-150501870D01*
X119057333Y-150397095D01*
X119061536Y-150394097D01*
X119061541Y-150394094D01*
X119247016Y-150261796D01*
X119247018Y-150261794D01*
X119251220Y-150258797D01*
X119419916Y-150090689D01*
X119420768Y-150091544D01*
X119475316Y-150055792D01*
X119546310Y-150055155D01*
X119606378Y-150093001D01*
X119619331Y-150110530D01*
X119680474Y-150210306D01*
X119836404Y-150390317D01*
X120019642Y-150542444D01*
X120024094Y-150545046D01*
X120024099Y-150545049D01*
X120122533Y-150602569D01*
X120225265Y-150662601D01*
X120447752Y-150747560D01*
X120452818Y-150748591D01*
X120452819Y-150748591D01*
X120507156Y-150759646D01*
X120681128Y-150795041D01*
X120815321Y-150799962D01*
X120913960Y-150803579D01*
X120913964Y-150803579D01*
X120919124Y-150803768D01*
X120924244Y-150803112D01*
X120924246Y-150803112D01*
X121150223Y-150774164D01*
X121150224Y-150774164D01*
X121155351Y-150773507D01*
X121238400Y-150748591D01*
X121378516Y-150706554D01*
X121378517Y-150706553D01*
X121383462Y-150705070D01*
X121597333Y-150600295D01*
X121601536Y-150597297D01*
X121601541Y-150597294D01*
X121787016Y-150464996D01*
X121787018Y-150464994D01*
X121791220Y-150461997D01*
X121959916Y-150293889D01*
X122098890Y-150100486D01*
X122102590Y-150093001D01*
X122121038Y-150055673D01*
X122169152Y-150003466D01*
X122233995Y-149985500D01*
X123296233Y-149985500D01*
X123307416Y-149986027D01*
X123314909Y-149987702D01*
X123322835Y-149987453D01*
X123322836Y-149987453D01*
X123382986Y-149985562D01*
X123386945Y-149985500D01*
X123414856Y-149985500D01*
X123418791Y-149985003D01*
X123418856Y-149984995D01*
X123430693Y-149984062D01*
X123462951Y-149983048D01*
X123466970Y-149982922D01*
X123474889Y-149982673D01*
X123494343Y-149977021D01*
X123513700Y-149973013D01*
X123525930Y-149971468D01*
X123525931Y-149971468D01*
X123533797Y-149970474D01*
X123541168Y-149967555D01*
X123541170Y-149967555D01*
X123574912Y-149954196D01*
X123586142Y-149950351D01*
X123620983Y-149940229D01*
X123620984Y-149940229D01*
X123628593Y-149938018D01*
X123635412Y-149933985D01*
X123635417Y-149933983D01*
X123646028Y-149927707D01*
X123663776Y-149919012D01*
X123682617Y-149911552D01*
X123718387Y-149885564D01*
X123728307Y-149879048D01*
X123759535Y-149860580D01*
X123759538Y-149860578D01*
X123766362Y-149856542D01*
X123780683Y-149842221D01*
X123795717Y-149829380D01*
X123805694Y-149822131D01*
X123812107Y-149817472D01*
X123840298Y-149783395D01*
X123848288Y-149774616D01*
X127681671Y-145941234D01*
X138210600Y-145941234D01*
X138217355Y-146003416D01*
X138268485Y-146139805D01*
X138355839Y-146256361D01*
X138472395Y-146343715D01*
X138608784Y-146394845D01*
X138670966Y-146401600D01*
X140117234Y-146401600D01*
X140179416Y-146394845D01*
X140315805Y-146343715D01*
X140432361Y-146256361D01*
X140519715Y-146139805D01*
X140570845Y-146003416D01*
X140577600Y-145941234D01*
X140577600Y-145915834D01*
X140879800Y-145915834D01*
X140886555Y-145978016D01*
X140937685Y-146114405D01*
X141025039Y-146230961D01*
X141141595Y-146318315D01*
X141277984Y-146369445D01*
X141340166Y-146376200D01*
X142786434Y-146376200D01*
X142848616Y-146369445D01*
X142985005Y-146318315D01*
X143101561Y-146230961D01*
X143188915Y-146114405D01*
X143240045Y-145978016D01*
X143246800Y-145915834D01*
X154669800Y-145915834D01*
X154676555Y-145978016D01*
X154727685Y-146114405D01*
X154815039Y-146230961D01*
X154931595Y-146318315D01*
X155067984Y-146369445D01*
X155130166Y-146376200D01*
X156576434Y-146376200D01*
X156638616Y-146369445D01*
X156775005Y-146318315D01*
X156891561Y-146230961D01*
X156966180Y-146131397D01*
X156973531Y-146121589D01*
X156973531Y-146121588D01*
X156978915Y-146114405D01*
X156978946Y-146114322D01*
X157026038Y-146067335D01*
X157095429Y-146052321D01*
X157161922Y-146077206D01*
X157193327Y-146113450D01*
X157193685Y-146114405D01*
X157199069Y-146121588D01*
X157199069Y-146121589D01*
X157206420Y-146131397D01*
X157281039Y-146230961D01*
X157397595Y-146318315D01*
X157533984Y-146369445D01*
X157596166Y-146376200D01*
X159042434Y-146376200D01*
X159104616Y-146369445D01*
X159241005Y-146318315D01*
X159357561Y-146230961D01*
X159444915Y-146114405D01*
X159496045Y-145978016D01*
X159502800Y-145915834D01*
X170925800Y-145915834D01*
X170932555Y-145978016D01*
X170983685Y-146114405D01*
X171071039Y-146230961D01*
X171187595Y-146318315D01*
X171323984Y-146369445D01*
X171386166Y-146376200D01*
X172832434Y-146376200D01*
X172894616Y-146369445D01*
X173031005Y-146318315D01*
X173147561Y-146230961D01*
X173234915Y-146114405D01*
X173286045Y-145978016D01*
X173292800Y-145915834D01*
X173292800Y-142919566D01*
X173286045Y-142857384D01*
X173234915Y-142720995D01*
X173147561Y-142604439D01*
X173031005Y-142517085D01*
X172894616Y-142465955D01*
X172832434Y-142459200D01*
X171386166Y-142459200D01*
X171323984Y-142465955D01*
X171187595Y-142517085D01*
X171071039Y-142604439D01*
X170983685Y-142720995D01*
X170932555Y-142857384D01*
X170925800Y-142919566D01*
X170925800Y-145915834D01*
X159502800Y-145915834D01*
X159502800Y-142919566D01*
X159496045Y-142857384D01*
X159444915Y-142720995D01*
X159357561Y-142604439D01*
X159241005Y-142517085D01*
X159104616Y-142465955D01*
X159042434Y-142459200D01*
X157596166Y-142459200D01*
X157533984Y-142465955D01*
X157397595Y-142517085D01*
X157281039Y-142604439D01*
X157275658Y-142611619D01*
X157199071Y-142713809D01*
X157193685Y-142720995D01*
X157193654Y-142721078D01*
X157146562Y-142768065D01*
X157077171Y-142783079D01*
X157010678Y-142758194D01*
X156979273Y-142721950D01*
X156978915Y-142720995D01*
X156973530Y-142713809D01*
X156896942Y-142611619D01*
X156891561Y-142604439D01*
X156775005Y-142517085D01*
X156638616Y-142465955D01*
X156576434Y-142459200D01*
X155130166Y-142459200D01*
X155067984Y-142465955D01*
X154931595Y-142517085D01*
X154815039Y-142604439D01*
X154727685Y-142720995D01*
X154676555Y-142857384D01*
X154669800Y-142919566D01*
X154669800Y-145915834D01*
X143246800Y-145915834D01*
X143246800Y-142919566D01*
X143240045Y-142857384D01*
X143188915Y-142720995D01*
X143101561Y-142604439D01*
X142985005Y-142517085D01*
X142848616Y-142465955D01*
X142786434Y-142459200D01*
X141340166Y-142459200D01*
X141277984Y-142465955D01*
X141141595Y-142517085D01*
X141025039Y-142604439D01*
X140937685Y-142720995D01*
X140886555Y-142857384D01*
X140879800Y-142919566D01*
X140879800Y-145915834D01*
X140577600Y-145915834D01*
X140577600Y-142944966D01*
X140570845Y-142882784D01*
X140519715Y-142746395D01*
X140432361Y-142629839D01*
X140315805Y-142542485D01*
X140179416Y-142491355D01*
X140117234Y-142484600D01*
X138670966Y-142484600D01*
X138608784Y-142491355D01*
X138472395Y-142542485D01*
X138355839Y-142629839D01*
X138268485Y-142746395D01*
X138217355Y-142882784D01*
X138210600Y-142944966D01*
X138210600Y-145941234D01*
X127681671Y-145941234D01*
X129271853Y-144351052D01*
X129280139Y-144343512D01*
X129286618Y-144339400D01*
X129333244Y-144289748D01*
X129335998Y-144286907D01*
X129355735Y-144267170D01*
X129358215Y-144263973D01*
X129365920Y-144254951D01*
X129390759Y-144228500D01*
X129396186Y-144222721D01*
X129400005Y-144215775D01*
X129400007Y-144215772D01*
X129405948Y-144204966D01*
X129416799Y-144188447D01*
X129424358Y-144178701D01*
X129429214Y-144172441D01*
X129432359Y-144165172D01*
X129432362Y-144165168D01*
X129446774Y-144131863D01*
X129451991Y-144121213D01*
X129473295Y-144082460D01*
X129478333Y-144062837D01*
X129484737Y-144044134D01*
X129489633Y-144032820D01*
X129489633Y-144032819D01*
X129492781Y-144025545D01*
X129494020Y-144017722D01*
X129494023Y-144017712D01*
X129499699Y-143981876D01*
X129502105Y-143970256D01*
X129511128Y-143935111D01*
X129511128Y-143935110D01*
X129513100Y-143927430D01*
X129513100Y-143907176D01*
X129514651Y-143887465D01*
X129516580Y-143875286D01*
X129517820Y-143867457D01*
X129513659Y-143823438D01*
X129513100Y-143811581D01*
X129513100Y-143304300D01*
X129533102Y-143236179D01*
X129586758Y-143189686D01*
X129639100Y-143178300D01*
X136979633Y-143178300D01*
X136990816Y-143178827D01*
X136998309Y-143180502D01*
X137006235Y-143180253D01*
X137006236Y-143180253D01*
X137066386Y-143178362D01*
X137070345Y-143178300D01*
X137098256Y-143178300D01*
X137102191Y-143177803D01*
X137102256Y-143177795D01*
X137114093Y-143176862D01*
X137146351Y-143175848D01*
X137150370Y-143175722D01*
X137158289Y-143175473D01*
X137177743Y-143169821D01*
X137197100Y-143165813D01*
X137209330Y-143164268D01*
X137209331Y-143164268D01*
X137217197Y-143163274D01*
X137224568Y-143160355D01*
X137224570Y-143160355D01*
X137258312Y-143146996D01*
X137269542Y-143143151D01*
X137304383Y-143133029D01*
X137304384Y-143133029D01*
X137311993Y-143130818D01*
X137318812Y-143126785D01*
X137318817Y-143126783D01*
X137329428Y-143120507D01*
X137347176Y-143111812D01*
X137366017Y-143104352D01*
X137401787Y-143078364D01*
X137411707Y-143071848D01*
X137442935Y-143053380D01*
X137442938Y-143053378D01*
X137449762Y-143049342D01*
X137464083Y-143035021D01*
X137479117Y-143022180D01*
X137489094Y-143014931D01*
X137495507Y-143010272D01*
X137523698Y-142976195D01*
X137531688Y-142967416D01*
X141385999Y-139113105D01*
X141448311Y-139079079D01*
X141475094Y-139076200D01*
X143773800Y-139076200D01*
X143841921Y-139096202D01*
X143888414Y-139149858D01*
X143899800Y-139202200D01*
X143899800Y-139215834D01*
X143906555Y-139278016D01*
X143957685Y-139414405D01*
X144045039Y-139530961D01*
X144161595Y-139618315D01*
X144170003Y-139621467D01*
X144243030Y-139648844D01*
X144299794Y-139691486D01*
X144324494Y-139758048D01*
X144324800Y-139766826D01*
X144324800Y-141526733D01*
X144324273Y-141537916D01*
X144322598Y-141545409D01*
X144322847Y-141553335D01*
X144322847Y-141553336D01*
X144324738Y-141613486D01*
X144324800Y-141617445D01*
X144324800Y-141645356D01*
X144325297Y-141649290D01*
X144325297Y-141649291D01*
X144325305Y-141649356D01*
X144326238Y-141661193D01*
X144327627Y-141705389D01*
X144333278Y-141724839D01*
X144337287Y-141744200D01*
X144339826Y-141764297D01*
X144342745Y-141771668D01*
X144342745Y-141771670D01*
X144356104Y-141805412D01*
X144359949Y-141816642D01*
X144372282Y-141859093D01*
X144376315Y-141865912D01*
X144376317Y-141865917D01*
X144382593Y-141876528D01*
X144391288Y-141894276D01*
X144398748Y-141913117D01*
X144403410Y-141919533D01*
X144403410Y-141919534D01*
X144424736Y-141948887D01*
X144431252Y-141958807D01*
X144446112Y-141983933D01*
X144453758Y-141996862D01*
X144468079Y-142011183D01*
X144480919Y-142026216D01*
X144492828Y-142042607D01*
X144498932Y-142047657D01*
X144498937Y-142047662D01*
X144526898Y-142070793D01*
X144535679Y-142078783D01*
X145495553Y-143038658D01*
X145503087Y-143046937D01*
X145507200Y-143053418D01*
X145533159Y-143077795D01*
X145556851Y-143100043D01*
X145559693Y-143102798D01*
X145579430Y-143122535D01*
X145582627Y-143125015D01*
X145591647Y-143132718D01*
X145623879Y-143162986D01*
X145630825Y-143166805D01*
X145630828Y-143166807D01*
X145641634Y-143172748D01*
X145658153Y-143183599D01*
X145674159Y-143196014D01*
X145681428Y-143199159D01*
X145681432Y-143199162D01*
X145714737Y-143213574D01*
X145725387Y-143218791D01*
X145764140Y-143240095D01*
X145771815Y-143242066D01*
X145771816Y-143242066D01*
X145783762Y-143245133D01*
X145802467Y-143251537D01*
X145821055Y-143259581D01*
X145828878Y-143260820D01*
X145828888Y-143260823D01*
X145864724Y-143266499D01*
X145876344Y-143268905D01*
X145908159Y-143277073D01*
X145919170Y-143279900D01*
X145939424Y-143279900D01*
X145959134Y-143281451D01*
X145979143Y-143284620D01*
X145987035Y-143283874D01*
X146005780Y-143282102D01*
X146023162Y-143280459D01*
X146035019Y-143279900D01*
X153388033Y-143279900D01*
X153399216Y-143280427D01*
X153406709Y-143282102D01*
X153414635Y-143281853D01*
X153414636Y-143281853D01*
X153474786Y-143279962D01*
X153478745Y-143279900D01*
X153506656Y-143279900D01*
X153510591Y-143279403D01*
X153510656Y-143279395D01*
X153522493Y-143278462D01*
X153554751Y-143277448D01*
X153558770Y-143277322D01*
X153566689Y-143277073D01*
X153586143Y-143271421D01*
X153605500Y-143267413D01*
X153617730Y-143265868D01*
X153617731Y-143265868D01*
X153625597Y-143264874D01*
X153632968Y-143261955D01*
X153632970Y-143261955D01*
X153666712Y-143248596D01*
X153677942Y-143244751D01*
X153712783Y-143234629D01*
X153712784Y-143234629D01*
X153720393Y-143232418D01*
X153727212Y-143228385D01*
X153727217Y-143228383D01*
X153737828Y-143222107D01*
X153755576Y-143213412D01*
X153774417Y-143205952D01*
X153810187Y-143179964D01*
X153820107Y-143173448D01*
X153851335Y-143154980D01*
X153851338Y-143154978D01*
X153858162Y-143150942D01*
X153872483Y-143136621D01*
X153887517Y-143123780D01*
X153897494Y-143116531D01*
X153903907Y-143111872D01*
X153932098Y-143077795D01*
X153940088Y-143069016D01*
X157895999Y-139113105D01*
X157958311Y-139079079D01*
X157985094Y-139076200D01*
X160029800Y-139076200D01*
X160097921Y-139096202D01*
X160144414Y-139149858D01*
X160155800Y-139202200D01*
X160155800Y-139215834D01*
X160162555Y-139278016D01*
X160213685Y-139414405D01*
X160301039Y-139530961D01*
X160417595Y-139618315D01*
X160426003Y-139621467D01*
X160499030Y-139648844D01*
X160555794Y-139691486D01*
X160580494Y-139758048D01*
X160580800Y-139766826D01*
X160580800Y-141983933D01*
X160580273Y-141995116D01*
X160578598Y-142002609D01*
X160578847Y-142010535D01*
X160578847Y-142010536D01*
X160580738Y-142070686D01*
X160580800Y-142074645D01*
X160580800Y-142102556D01*
X160581297Y-142106490D01*
X160581297Y-142106491D01*
X160581305Y-142106556D01*
X160582238Y-142118393D01*
X160583627Y-142162589D01*
X160589278Y-142182039D01*
X160593287Y-142201400D01*
X160594141Y-142208156D01*
X160595826Y-142221497D01*
X160598745Y-142228868D01*
X160598745Y-142228870D01*
X160612104Y-142262612D01*
X160615949Y-142273842D01*
X160628282Y-142316293D01*
X160632315Y-142323112D01*
X160632317Y-142323117D01*
X160638593Y-142333728D01*
X160647288Y-142351476D01*
X160654748Y-142370317D01*
X160659410Y-142376733D01*
X160659410Y-142376734D01*
X160680736Y-142406087D01*
X160687252Y-142416007D01*
X160698679Y-142435328D01*
X160709758Y-142454062D01*
X160724079Y-142468383D01*
X160736919Y-142483416D01*
X160748828Y-142499807D01*
X160754932Y-142504857D01*
X160754937Y-142504862D01*
X160782898Y-142527993D01*
X160791679Y-142535983D01*
X161700753Y-143445058D01*
X161708287Y-143453337D01*
X161712400Y-143459818D01*
X161733495Y-143479627D01*
X161762051Y-143506443D01*
X161764893Y-143509198D01*
X161784630Y-143528935D01*
X161787827Y-143531415D01*
X161796847Y-143539118D01*
X161829079Y-143569386D01*
X161836025Y-143573205D01*
X161836028Y-143573207D01*
X161846834Y-143579148D01*
X161863353Y-143589999D01*
X161879359Y-143602414D01*
X161886628Y-143605559D01*
X161886632Y-143605562D01*
X161919937Y-143619974D01*
X161930587Y-143625191D01*
X161969340Y-143646495D01*
X161977015Y-143648466D01*
X161977016Y-143648466D01*
X161988962Y-143651533D01*
X162007667Y-143657937D01*
X162026255Y-143665981D01*
X162034078Y-143667220D01*
X162034088Y-143667223D01*
X162069924Y-143672899D01*
X162081544Y-143675305D01*
X162113359Y-143683473D01*
X162124370Y-143686300D01*
X162144624Y-143686300D01*
X162164334Y-143687851D01*
X162184343Y-143691020D01*
X162192235Y-143690274D01*
X162210980Y-143688502D01*
X162228362Y-143686859D01*
X162240219Y-143686300D01*
X168729633Y-143686300D01*
X168740816Y-143686827D01*
X168748309Y-143688502D01*
X168756235Y-143688253D01*
X168756236Y-143688253D01*
X168816386Y-143686362D01*
X168820345Y-143686300D01*
X168848256Y-143686300D01*
X168852191Y-143685803D01*
X168852256Y-143685795D01*
X168864093Y-143684862D01*
X168896351Y-143683848D01*
X168900370Y-143683722D01*
X168908289Y-143683473D01*
X168927743Y-143677821D01*
X168947100Y-143673813D01*
X168959330Y-143672268D01*
X168959331Y-143672268D01*
X168967197Y-143671274D01*
X168974568Y-143668355D01*
X168974570Y-143668355D01*
X169008312Y-143654996D01*
X169019542Y-143651151D01*
X169054383Y-143641029D01*
X169054384Y-143641029D01*
X169061993Y-143638818D01*
X169068812Y-143634785D01*
X169068817Y-143634783D01*
X169079428Y-143628507D01*
X169097176Y-143619812D01*
X169116017Y-143612352D01*
X169131743Y-143600927D01*
X169151787Y-143586364D01*
X169161707Y-143579848D01*
X169192935Y-143561380D01*
X169192938Y-143561378D01*
X169199762Y-143557342D01*
X169214083Y-143543021D01*
X169229117Y-143530180D01*
X169239094Y-143522931D01*
X169245507Y-143518272D01*
X169273698Y-143484195D01*
X169281688Y-143475416D01*
X171345799Y-141411305D01*
X171408111Y-141377279D01*
X171434894Y-141374400D01*
X178063374Y-141374400D01*
X178131495Y-141394402D01*
X178177988Y-141448058D01*
X178181356Y-141456170D01*
X178186918Y-141471006D01*
X178211885Y-141537605D01*
X178299239Y-141654161D01*
X178415795Y-141741515D01*
X178552184Y-141792645D01*
X178614366Y-141799400D01*
X180160634Y-141799400D01*
X180222816Y-141792645D01*
X180359205Y-141741515D01*
X180475761Y-141654161D01*
X180563115Y-141537605D01*
X180588082Y-141471006D01*
X180593644Y-141456170D01*
X180636286Y-141399406D01*
X180702848Y-141374706D01*
X180711626Y-141374400D01*
X182522333Y-141374400D01*
X182533516Y-141374927D01*
X182541009Y-141376602D01*
X182548935Y-141376353D01*
X182548936Y-141376353D01*
X182609086Y-141374462D01*
X182613045Y-141374400D01*
X182640956Y-141374400D01*
X182644891Y-141373903D01*
X182644956Y-141373895D01*
X182656793Y-141372962D01*
X182689051Y-141371948D01*
X182693070Y-141371822D01*
X182700989Y-141371573D01*
X182720443Y-141365921D01*
X182739800Y-141361913D01*
X182752030Y-141360368D01*
X182752031Y-141360368D01*
X182759897Y-141359374D01*
X182767268Y-141356455D01*
X182767270Y-141356455D01*
X182801012Y-141343096D01*
X182812242Y-141339251D01*
X182847083Y-141329129D01*
X182847084Y-141329129D01*
X182854693Y-141326918D01*
X182861512Y-141322885D01*
X182861517Y-141322883D01*
X182872128Y-141316607D01*
X182889876Y-141307912D01*
X182908717Y-141300452D01*
X182944487Y-141274464D01*
X182954407Y-141267948D01*
X182985635Y-141249480D01*
X182985638Y-141249478D01*
X182992462Y-141245442D01*
X183006783Y-141231121D01*
X183021817Y-141218280D01*
X183038207Y-141206372D01*
X183066398Y-141172295D01*
X183074388Y-141163516D01*
X184186653Y-140051252D01*
X184194939Y-140043712D01*
X184201418Y-140039600D01*
X184248044Y-139989948D01*
X184250798Y-139987107D01*
X184270535Y-139967370D01*
X184273015Y-139964173D01*
X184280720Y-139955151D01*
X184291008Y-139944195D01*
X184310986Y-139922921D01*
X184314805Y-139915975D01*
X184314807Y-139915972D01*
X184320748Y-139905166D01*
X184331599Y-139888647D01*
X184339158Y-139878901D01*
X184344014Y-139872641D01*
X184347159Y-139865372D01*
X184347162Y-139865368D01*
X184361574Y-139832063D01*
X184366791Y-139821413D01*
X184388095Y-139782660D01*
X184393133Y-139763037D01*
X184399537Y-139744334D01*
X184404433Y-139733020D01*
X184404433Y-139733019D01*
X184407581Y-139725745D01*
X184408820Y-139717922D01*
X184408823Y-139717912D01*
X184414499Y-139682076D01*
X184416905Y-139670456D01*
X184425928Y-139635311D01*
X184425928Y-139635310D01*
X184427900Y-139627630D01*
X184427900Y-139607376D01*
X184429451Y-139587665D01*
X184431380Y-139575486D01*
X184432620Y-139567657D01*
X184428459Y-139523638D01*
X184427900Y-139511781D01*
X184427900Y-136629163D01*
X184428427Y-136617979D01*
X184430101Y-136610491D01*
X184427962Y-136542432D01*
X184427900Y-136538475D01*
X184427900Y-136510544D01*
X184427394Y-136506538D01*
X184426461Y-136494692D01*
X184425322Y-136458437D01*
X184425073Y-136450510D01*
X184419422Y-136431058D01*
X184415414Y-136411706D01*
X184413868Y-136399468D01*
X184413867Y-136399466D01*
X184412874Y-136391603D01*
X184396594Y-136350486D01*
X184392759Y-136339285D01*
X184380418Y-136296806D01*
X184376385Y-136289987D01*
X184376383Y-136289982D01*
X184370107Y-136279371D01*
X184361410Y-136261621D01*
X184353952Y-136242783D01*
X184327971Y-136207023D01*
X184321453Y-136197101D01*
X184302978Y-136165860D01*
X184302974Y-136165855D01*
X184298942Y-136159037D01*
X184284618Y-136144713D01*
X184271776Y-136129678D01*
X184259872Y-136113293D01*
X184225806Y-136085111D01*
X184217027Y-136077122D01*
X181874005Y-133734100D01*
X181839979Y-133671788D01*
X181837100Y-133645005D01*
X181837100Y-127258794D01*
X181857102Y-127190673D01*
X181910758Y-127144180D01*
X181981032Y-127134076D01*
X182045612Y-127163570D01*
X182052193Y-127169697D01*
X182910120Y-128027625D01*
X183341548Y-128459053D01*
X183349088Y-128467339D01*
X183353200Y-128473818D01*
X183358977Y-128479243D01*
X183402851Y-128520443D01*
X183405693Y-128523198D01*
X183425430Y-128542935D01*
X183428627Y-128545415D01*
X183437647Y-128553118D01*
X183469879Y-128583386D01*
X183476825Y-128587205D01*
X183476828Y-128587207D01*
X183487634Y-128593148D01*
X183504153Y-128603999D01*
X183520159Y-128616414D01*
X183522322Y-128617350D01*
X183569083Y-128667428D01*
X183581792Y-128737278D01*
X183554719Y-128802910D01*
X183553017Y-128804808D01*
X183549239Y-128807639D01*
X183461885Y-128924195D01*
X183410755Y-129060584D01*
X183404000Y-129122766D01*
X183404000Y-130569034D01*
X183410755Y-130631216D01*
X183461885Y-130767605D01*
X183549239Y-130884161D01*
X183665795Y-130971515D01*
X183802184Y-131022645D01*
X183864366Y-131029400D01*
X186860634Y-131029400D01*
X186922816Y-131022645D01*
X187059205Y-130971515D01*
X187175761Y-130884161D01*
X187263115Y-130767605D01*
X187314245Y-130631216D01*
X187321000Y-130569034D01*
X187321000Y-129122766D01*
X187314245Y-129060584D01*
X187263115Y-128924195D01*
X187246379Y-128901864D01*
X187221532Y-128835357D01*
X187236586Y-128765975D01*
X187286760Y-128715745D01*
X187347206Y-128700300D01*
X188264668Y-128700300D01*
X188332789Y-128720302D01*
X188381411Y-128778896D01*
X188431343Y-128901864D01*
X188440837Y-128925244D01*
X188565274Y-129128306D01*
X188721204Y-129308317D01*
X188772137Y-129350602D01*
X188811772Y-129409504D01*
X188813270Y-129480485D01*
X188776156Y-129541008D01*
X188749834Y-129559308D01*
X188709590Y-129580258D01*
X188705457Y-129583361D01*
X188705454Y-129583363D01*
X188523275Y-129720147D01*
X188519140Y-129723252D01*
X188354602Y-129895431D01*
X188220394Y-130092172D01*
X188120122Y-130308191D01*
X188056477Y-130537685D01*
X188055928Y-130542819D01*
X188055928Y-130542821D01*
X188052184Y-130577856D01*
X188031170Y-130774494D01*
X188031467Y-130779646D01*
X188031467Y-130779650D01*
X188038353Y-130899073D01*
X188044879Y-131012255D01*
X188046016Y-131017301D01*
X188046017Y-131017307D01*
X188079111Y-131164156D01*
X188097237Y-131244585D01*
X188099179Y-131249367D01*
X188099180Y-131249371D01*
X188184893Y-131460457D01*
X188186837Y-131465244D01*
X188311274Y-131668306D01*
X188467204Y-131848317D01*
X188650442Y-132000444D01*
X188654894Y-132003046D01*
X188654899Y-132003049D01*
X188847777Y-132115758D01*
X188856065Y-132120601D01*
X189078552Y-132205560D01*
X189083618Y-132206591D01*
X189083619Y-132206591D01*
X189111056Y-132212173D01*
X189311928Y-132253041D01*
X189446121Y-132257962D01*
X189544760Y-132261579D01*
X189544764Y-132261579D01*
X189549924Y-132261768D01*
X189555044Y-132261112D01*
X189555046Y-132261112D01*
X189781023Y-132232164D01*
X189781024Y-132232164D01*
X189786151Y-132231507D01*
X189869200Y-132206591D01*
X190009316Y-132164554D01*
X190009317Y-132164553D01*
X190014262Y-132163070D01*
X190228133Y-132058295D01*
X190232336Y-132055297D01*
X190232341Y-132055294D01*
X190417816Y-131922996D01*
X190417818Y-131922994D01*
X190422020Y-131919997D01*
X190590716Y-131751889D01*
X190729690Y-131558486D01*
X190734320Y-131549119D01*
X190832917Y-131349624D01*
X190832918Y-131349622D01*
X190835211Y-131344982D01*
X190904443Y-131117111D01*
X190905612Y-131108235D01*
X190935092Y-130884313D01*
X190935092Y-130884309D01*
X190935529Y-130880992D01*
X190935627Y-130876981D01*
X190937182Y-130813365D01*
X190937182Y-130813361D01*
X190937264Y-130810000D01*
X190917750Y-130572644D01*
X190859731Y-130341663D01*
X190764767Y-130123259D01*
X190747694Y-130096867D01*
X190638216Y-129927642D01*
X190635406Y-129923298D01*
X190475124Y-129747150D01*
X190455985Y-129732035D01*
X190414923Y-129674117D01*
X190411693Y-129603194D01*
X190447319Y-129541783D01*
X190473335Y-129523697D01*
X190473049Y-129523217D01*
X190477492Y-129520569D01*
X190482133Y-129518295D01*
X190486336Y-129515297D01*
X190486341Y-129515294D01*
X190671816Y-129382996D01*
X190671818Y-129382994D01*
X190676020Y-129379997D01*
X190844716Y-129211889D01*
X190983690Y-129018486D01*
X191026137Y-128932603D01*
X191086917Y-128809624D01*
X191086918Y-128809622D01*
X191089211Y-128804982D01*
X191147254Y-128613938D01*
X191156941Y-128582055D01*
X191156941Y-128582054D01*
X191158443Y-128577111D01*
X191162623Y-128545359D01*
X191189092Y-128344313D01*
X191189092Y-128344309D01*
X191189529Y-128340992D01*
X191191264Y-128270000D01*
X191171750Y-128032644D01*
X191113731Y-127801663D01*
X191018767Y-127583259D01*
X190889406Y-127383298D01*
X190729124Y-127207150D01*
X190725073Y-127203951D01*
X190725069Y-127203947D01*
X190546278Y-127062747D01*
X190546273Y-127062744D01*
X190542224Y-127059546D01*
X190537708Y-127057053D01*
X190537705Y-127057051D01*
X190338250Y-126946946D01*
X190338246Y-126946944D01*
X190333726Y-126944449D01*
X190328857Y-126942725D01*
X190328853Y-126942723D01*
X190114105Y-126866676D01*
X190114101Y-126866675D01*
X190109230Y-126864950D01*
X190024555Y-126849867D01*
X189961000Y-126818231D01*
X189924637Y-126757254D01*
X189927013Y-126686297D01*
X189967374Y-126627889D01*
X189989839Y-126613357D01*
X190031303Y-126592412D01*
X190188390Y-126469682D01*
X190210962Y-126443532D01*
X190314618Y-126323446D01*
X190314619Y-126323444D01*
X190318647Y-126318778D01*
X190417112Y-126145448D01*
X190480035Y-125956294D01*
X190489752Y-125879379D01*
X190504578Y-125762023D01*
X190504579Y-125762013D01*
X190505020Y-125758520D01*
X190505418Y-125730000D01*
X190485965Y-125531606D01*
X190484184Y-125525707D01*
X190484183Y-125525702D01*
X190430129Y-125346667D01*
X190428348Y-125340768D01*
X190372405Y-125235555D01*
X190337655Y-125170198D01*
X190337653Y-125170195D01*
X190334761Y-125164756D01*
X190330871Y-125159986D01*
X190330868Y-125159982D01*
X190212663Y-125015049D01*
X190212660Y-125015046D01*
X190208768Y-125010274D01*
X190170363Y-124978502D01*
X190076214Y-124900615D01*
X190055170Y-124883206D01*
X189879815Y-124788392D01*
X189689385Y-124729444D01*
X189683260Y-124728800D01*
X189683259Y-124728800D01*
X189497260Y-124709251D01*
X189497258Y-124709251D01*
X189491131Y-124708607D01*
X189368252Y-124719790D01*
X189298746Y-124726115D01*
X189298745Y-124726115D01*
X189292605Y-124726674D01*
X189286691Y-124728415D01*
X189286689Y-124728415D01*
X189257157Y-124737107D01*
X189101370Y-124782958D01*
X188924709Y-124875314D01*
X188919909Y-124879174D01*
X188919908Y-124879174D01*
X188914893Y-124883206D01*
X188769351Y-125000225D01*
X188641214Y-125152933D01*
X188545179Y-125327621D01*
X188543318Y-125333488D01*
X188543317Y-125333490D01*
X188522230Y-125399963D01*
X188484902Y-125517635D01*
X188462682Y-125715739D01*
X188479362Y-125914386D01*
X188534310Y-126106009D01*
X188625430Y-126283311D01*
X188749253Y-126439537D01*
X188901063Y-126568737D01*
X188906441Y-126571743D01*
X188906443Y-126571744D01*
X188948392Y-126595188D01*
X189075076Y-126665989D01*
X189080934Y-126667892D01*
X189080940Y-126667895D01*
X189164371Y-126695003D01*
X189222977Y-126735076D01*
X189250614Y-126800473D01*
X189238507Y-126870430D01*
X189190501Y-126922736D01*
X189177090Y-126929553D01*
X189174838Y-126930289D01*
X189170258Y-126932673D01*
X189170256Y-126932674D01*
X188983543Y-127029871D01*
X188963590Y-127040258D01*
X188959457Y-127043361D01*
X188959454Y-127043363D01*
X188777275Y-127180147D01*
X188773140Y-127183252D01*
X188608602Y-127355431D01*
X188592998Y-127378306D01*
X188538085Y-127423308D01*
X188488910Y-127433300D01*
X184159795Y-127433300D01*
X184091674Y-127413298D01*
X184070700Y-127396395D01*
X183928800Y-127254495D01*
X183894774Y-127192183D01*
X183899839Y-127121368D01*
X183942386Y-127064532D01*
X184008906Y-127039721D01*
X184017895Y-127039400D01*
X186822534Y-127039400D01*
X186884716Y-127032645D01*
X187021105Y-126981515D01*
X187137661Y-126894161D01*
X187225015Y-126777605D01*
X187276145Y-126641216D01*
X187282900Y-126579034D01*
X187282900Y-125132766D01*
X187276145Y-125070584D01*
X187225015Y-124934195D01*
X187137661Y-124817639D01*
X187021105Y-124730285D01*
X186884716Y-124679155D01*
X186822534Y-124672400D01*
X183826266Y-124672400D01*
X183764084Y-124679155D01*
X183627695Y-124730285D01*
X183511139Y-124817639D01*
X183423785Y-124934195D01*
X183372655Y-125070584D01*
X183365900Y-125132766D01*
X183365900Y-126387405D01*
X183345898Y-126455526D01*
X183292242Y-126502019D01*
X183221968Y-126512123D01*
X183157388Y-126482629D01*
X183150805Y-126476500D01*
X182520052Y-125845747D01*
X182512512Y-125837461D01*
X182508400Y-125830982D01*
X182498760Y-125821929D01*
X182458749Y-125784357D01*
X182455907Y-125781602D01*
X182436170Y-125761865D01*
X182432973Y-125759385D01*
X182423951Y-125751680D01*
X182391721Y-125721414D01*
X182384775Y-125717595D01*
X182384772Y-125717593D01*
X182373966Y-125711652D01*
X182357447Y-125700801D01*
X182353405Y-125697666D01*
X182341441Y-125688386D01*
X182334172Y-125685241D01*
X182334168Y-125685238D01*
X182300863Y-125670826D01*
X182290213Y-125665609D01*
X182251460Y-125644305D01*
X182242308Y-125641955D01*
X182231838Y-125639267D01*
X182213134Y-125632863D01*
X182201820Y-125627967D01*
X182201819Y-125627967D01*
X182194545Y-125624819D01*
X182186722Y-125623580D01*
X182186712Y-125623577D01*
X182150876Y-125617901D01*
X182139256Y-125615495D01*
X182104111Y-125606472D01*
X182104110Y-125606472D01*
X182096430Y-125604500D01*
X182076176Y-125604500D01*
X182056465Y-125602949D01*
X182044286Y-125601020D01*
X182036457Y-125599780D01*
X182028565Y-125600526D01*
X181992439Y-125603941D01*
X181980581Y-125604500D01*
X181518194Y-125604500D01*
X181450073Y-125584498D01*
X181429099Y-125567595D01*
X180090538Y-124229033D01*
X180056512Y-124166721D01*
X180061577Y-124095905D01*
X180104124Y-124039070D01*
X180166028Y-124014675D01*
X180168341Y-124014424D01*
X180176859Y-124013499D01*
X180176863Y-124013498D01*
X180184716Y-124012645D01*
X180321105Y-123961515D01*
X180437661Y-123874161D01*
X180525015Y-123757605D01*
X180555544Y-123676170D01*
X180598186Y-123619406D01*
X180664748Y-123594706D01*
X180673526Y-123594400D01*
X181557133Y-123594400D01*
X181568316Y-123594927D01*
X181575809Y-123596602D01*
X181583735Y-123596353D01*
X181583736Y-123596353D01*
X181643886Y-123594462D01*
X181647845Y-123594400D01*
X181675756Y-123594400D01*
X181679691Y-123593903D01*
X181679756Y-123593895D01*
X181691593Y-123592962D01*
X181723851Y-123591948D01*
X181727870Y-123591822D01*
X181735789Y-123591573D01*
X181755243Y-123585921D01*
X181774600Y-123581913D01*
X181786830Y-123580368D01*
X181786831Y-123580368D01*
X181794697Y-123579374D01*
X181802068Y-123576455D01*
X181802070Y-123576455D01*
X181835812Y-123563096D01*
X181847042Y-123559251D01*
X181881883Y-123549129D01*
X181881884Y-123549129D01*
X181889493Y-123546918D01*
X181896312Y-123542885D01*
X181896317Y-123542883D01*
X181906928Y-123536607D01*
X181924676Y-123527912D01*
X181943517Y-123520452D01*
X181979287Y-123494464D01*
X181989207Y-123487948D01*
X182020435Y-123469480D01*
X182020438Y-123469478D01*
X182027262Y-123465442D01*
X182041583Y-123451121D01*
X182056617Y-123438280D01*
X182066594Y-123431031D01*
X182073007Y-123426372D01*
X182101198Y-123392295D01*
X182109188Y-123383516D01*
X183424647Y-122068057D01*
X183432937Y-122060513D01*
X183439418Y-122056400D01*
X183465574Y-122028547D01*
X183486058Y-122006733D01*
X183488813Y-122003891D01*
X183508534Y-121984170D01*
X183511012Y-121980975D01*
X183518718Y-121971953D01*
X183529097Y-121960900D01*
X183548986Y-121939721D01*
X183558746Y-121921968D01*
X183569599Y-121905445D01*
X183577153Y-121895706D01*
X183582013Y-121889441D01*
X183599576Y-121848857D01*
X183604783Y-121838227D01*
X183626095Y-121799460D01*
X183628066Y-121791783D01*
X183628068Y-121791778D01*
X183631132Y-121779842D01*
X183637538Y-121761130D01*
X183639064Y-121757605D01*
X183645581Y-121742545D01*
X183646821Y-121734717D01*
X183646823Y-121734710D01*
X183652499Y-121698876D01*
X183654905Y-121687256D01*
X183663928Y-121652111D01*
X183663928Y-121652110D01*
X183665900Y-121644430D01*
X183665900Y-121624176D01*
X183667451Y-121604465D01*
X183669380Y-121592286D01*
X183670620Y-121584457D01*
X183666459Y-121540438D01*
X183665900Y-121528581D01*
X183665900Y-113372408D01*
X183685902Y-113304287D01*
X183739558Y-113257794D01*
X183805508Y-113247145D01*
X183826266Y-113249400D01*
X186822534Y-113249400D01*
X186884716Y-113242645D01*
X187021105Y-113191515D01*
X187137661Y-113104161D01*
X187225015Y-112987605D01*
X187276145Y-112851216D01*
X187282900Y-112789034D01*
X187282900Y-111342766D01*
X187276145Y-111280584D01*
X187225015Y-111144195D01*
X187137661Y-111027639D01*
X187021105Y-110940285D01*
X186884716Y-110889155D01*
X186822534Y-110882400D01*
X183826266Y-110882400D01*
X183805508Y-110884655D01*
X183735625Y-110872127D01*
X183683610Y-110823806D01*
X183665900Y-110759392D01*
X183665900Y-109980134D01*
X187582300Y-109980134D01*
X187589055Y-110042316D01*
X187640185Y-110178705D01*
X187727539Y-110295261D01*
X187844095Y-110382615D01*
X187980484Y-110433745D01*
X188042666Y-110440500D01*
X191038934Y-110440500D01*
X191101116Y-110433745D01*
X191237505Y-110382615D01*
X191354061Y-110295261D01*
X191441415Y-110178705D01*
X191492545Y-110042316D01*
X191499300Y-109980134D01*
X191499300Y-108533866D01*
X191492545Y-108471684D01*
X191441415Y-108335295D01*
X191354061Y-108218739D01*
X191237505Y-108131385D01*
X191101116Y-108080255D01*
X191038934Y-108073500D01*
X188042666Y-108073500D01*
X187980484Y-108080255D01*
X187844095Y-108131385D01*
X187727539Y-108218739D01*
X187640185Y-108335295D01*
X187589055Y-108471684D01*
X187582300Y-108533866D01*
X187582300Y-109980134D01*
X183665900Y-109980134D01*
X183665900Y-107546500D01*
X183685902Y-107478379D01*
X183739558Y-107431886D01*
X183791900Y-107420500D01*
X184338934Y-107420500D01*
X184401116Y-107413745D01*
X184537505Y-107362615D01*
X184654061Y-107275261D01*
X184741415Y-107158705D01*
X184792545Y-107022316D01*
X184799300Y-106960134D01*
X184799300Y-105763866D01*
X184792545Y-105701684D01*
X184741415Y-105565295D01*
X184654061Y-105448739D01*
X184652826Y-105447813D01*
X184620592Y-105388783D01*
X184625657Y-105317968D01*
X184652214Y-105276645D01*
X184654061Y-105275261D01*
X184741415Y-105158705D01*
X184756550Y-105118332D01*
X184771944Y-105077270D01*
X184814586Y-105020506D01*
X184881148Y-104995806D01*
X184889926Y-104995500D01*
X185182670Y-104995500D01*
X185226740Y-105004867D01*
X185227000Y-105004068D01*
X185233280Y-105006108D01*
X185239312Y-105008794D01*
X185302928Y-105022316D01*
X185419656Y-105047128D01*
X185419661Y-105047128D01*
X185426113Y-105048500D01*
X185617087Y-105048500D01*
X185623539Y-105047128D01*
X185623544Y-105047128D01*
X185740272Y-105022316D01*
X185803888Y-105008794D01*
X185809919Y-105006109D01*
X185972322Y-104933803D01*
X185972324Y-104933802D01*
X185978352Y-104931118D01*
X186011281Y-104907194D01*
X186065022Y-104868148D01*
X186132853Y-104818866D01*
X186151574Y-104798074D01*
X186256221Y-104681852D01*
X186256222Y-104681851D01*
X186260640Y-104676944D01*
X186356127Y-104511556D01*
X186415142Y-104329928D01*
X186426775Y-104219251D01*
X186434414Y-104146565D01*
X186435104Y-104140000D01*
X186430311Y-104094394D01*
X186415832Y-103956635D01*
X186415832Y-103956633D01*
X186415142Y-103950072D01*
X186356127Y-103768444D01*
X186343673Y-103746872D01*
X186266383Y-103613003D01*
X186260640Y-103603056D01*
X186234211Y-103573703D01*
X186137275Y-103466045D01*
X186137274Y-103466044D01*
X186132853Y-103461134D01*
X185998073Y-103363210D01*
X185983694Y-103352763D01*
X185983693Y-103352762D01*
X185978352Y-103348882D01*
X185972324Y-103346198D01*
X185972322Y-103346197D01*
X185809919Y-103273891D01*
X185809918Y-103273891D01*
X185803888Y-103271206D01*
X185709594Y-103251163D01*
X185623544Y-103232872D01*
X185623539Y-103232872D01*
X185617087Y-103231500D01*
X185426113Y-103231500D01*
X185419661Y-103232872D01*
X185419656Y-103232872D01*
X185333606Y-103251163D01*
X185239312Y-103271206D01*
X185233282Y-103273891D01*
X185233281Y-103273891D01*
X185070878Y-103346197D01*
X185070876Y-103346198D01*
X185064848Y-103348882D01*
X185059507Y-103352762D01*
X185059506Y-103352763D01*
X185045127Y-103363210D01*
X184910347Y-103461134D01*
X184905926Y-103466044D01*
X184905925Y-103466045D01*
X184878100Y-103496948D01*
X184817654Y-103534188D01*
X184746671Y-103532836D01*
X184683638Y-103488204D01*
X184667031Y-103466045D01*
X184654061Y-103448739D01*
X184652826Y-103447813D01*
X184620592Y-103388783D01*
X184625657Y-103317968D01*
X184652214Y-103276645D01*
X184654061Y-103275261D01*
X184741415Y-103158705D01*
X184792545Y-103022316D01*
X184799300Y-102960134D01*
X184799300Y-101763866D01*
X184792545Y-101701684D01*
X184741415Y-101565295D01*
X184654061Y-101448739D01*
X184652826Y-101447813D01*
X184620592Y-101388783D01*
X184625657Y-101317968D01*
X184652214Y-101276645D01*
X184654061Y-101275261D01*
X184741415Y-101158705D01*
X184792545Y-101022316D01*
X184799300Y-100960134D01*
X184799300Y-99763866D01*
X184792545Y-99701684D01*
X184741415Y-99565295D01*
X184654061Y-99448739D01*
X184652826Y-99447813D01*
X184620592Y-99388783D01*
X184625657Y-99317968D01*
X184652214Y-99276645D01*
X184654061Y-99275261D01*
X184741415Y-99158705D01*
X184792545Y-99022316D01*
X184799300Y-98960134D01*
X184799300Y-97763866D01*
X184792545Y-97701684D01*
X184741415Y-97565295D01*
X184654061Y-97448739D01*
X184537505Y-97361385D01*
X184401116Y-97310255D01*
X184338934Y-97303500D01*
X182792666Y-97303500D01*
X182730484Y-97310255D01*
X182594095Y-97361385D01*
X182477539Y-97448739D01*
X182390185Y-97565295D01*
X182387033Y-97573703D01*
X182359656Y-97646730D01*
X182317014Y-97703494D01*
X182250452Y-97728194D01*
X182241674Y-97728500D01*
X179897567Y-97728500D01*
X179886384Y-97727973D01*
X179878891Y-97726298D01*
X179870965Y-97726547D01*
X179870964Y-97726547D01*
X179810801Y-97728438D01*
X179806843Y-97728500D01*
X179778944Y-97728500D01*
X179774954Y-97729004D01*
X179763120Y-97729936D01*
X179718911Y-97731326D01*
X179711297Y-97733538D01*
X179711292Y-97733539D01*
X179699459Y-97736977D01*
X179680096Y-97740988D01*
X179660003Y-97743526D01*
X179652636Y-97746443D01*
X179652631Y-97746444D01*
X179618892Y-97759802D01*
X179607665Y-97763646D01*
X179600361Y-97765768D01*
X179565207Y-97775982D01*
X179558381Y-97780019D01*
X179547772Y-97786293D01*
X179530024Y-97794988D01*
X179511183Y-97802448D01*
X179504767Y-97807110D01*
X179504766Y-97807110D01*
X179475413Y-97828436D01*
X179465493Y-97834952D01*
X179434265Y-97853420D01*
X179434262Y-97853422D01*
X179427438Y-97857458D01*
X179413117Y-97871779D01*
X179398084Y-97884619D01*
X179381693Y-97896528D01*
X179376642Y-97902634D01*
X179353502Y-97930605D01*
X179345512Y-97939384D01*
X177137093Y-100147802D01*
X177074781Y-100181828D01*
X177003965Y-100176763D01*
X176947130Y-100134216D01*
X176922319Y-100067696D01*
X176922688Y-100045537D01*
X176934814Y-99930165D01*
X176935504Y-99923600D01*
X176930795Y-99878793D01*
X176916232Y-99740235D01*
X176916232Y-99740233D01*
X176915542Y-99733672D01*
X176856527Y-99552044D01*
X176761040Y-99386656D01*
X176744881Y-99368709D01*
X176637675Y-99249645D01*
X176637674Y-99249644D01*
X176633253Y-99244734D01*
X176478752Y-99132482D01*
X176472724Y-99129798D01*
X176472722Y-99129797D01*
X176310319Y-99057491D01*
X176310318Y-99057491D01*
X176304288Y-99054806D01*
X176186245Y-99029715D01*
X176123944Y-99016472D01*
X176123939Y-99016472D01*
X176117487Y-99015100D01*
X175926513Y-99015100D01*
X175920061Y-99016472D01*
X175920056Y-99016472D01*
X175857755Y-99029715D01*
X175739712Y-99054806D01*
X175733682Y-99057491D01*
X175733681Y-99057491D01*
X175571278Y-99129797D01*
X175571276Y-99129798D01*
X175565248Y-99132482D01*
X175559907Y-99136362D01*
X175559906Y-99136363D01*
X175432329Y-99229054D01*
X175410747Y-99244734D01*
X175406332Y-99249637D01*
X175401420Y-99254060D01*
X175400295Y-99252811D01*
X175346986Y-99285651D01*
X175313800Y-99290100D01*
X172493967Y-99290100D01*
X172482784Y-99289573D01*
X172475291Y-99287898D01*
X172467365Y-99288147D01*
X172467364Y-99288147D01*
X172407214Y-99290038D01*
X172403255Y-99290100D01*
X172375344Y-99290100D01*
X172371410Y-99290597D01*
X172371409Y-99290597D01*
X172371344Y-99290605D01*
X172359507Y-99291538D01*
X172327690Y-99292538D01*
X172323229Y-99292678D01*
X172315310Y-99292927D01*
X172297654Y-99298056D01*
X172295858Y-99298578D01*
X172276506Y-99302586D01*
X172269435Y-99303480D01*
X172256403Y-99305126D01*
X172249034Y-99308043D01*
X172249032Y-99308044D01*
X172215297Y-99321400D01*
X172204069Y-99325245D01*
X172161607Y-99337582D01*
X172154785Y-99341616D01*
X172154779Y-99341619D01*
X172144168Y-99347894D01*
X172126418Y-99356590D01*
X172114956Y-99361128D01*
X172114951Y-99361131D01*
X172107583Y-99364048D01*
X172101168Y-99368709D01*
X172071825Y-99390027D01*
X172061907Y-99396543D01*
X172045863Y-99406032D01*
X172023837Y-99419058D01*
X172009513Y-99433382D01*
X171994481Y-99446221D01*
X171978093Y-99458128D01*
X171949912Y-99492193D01*
X171941922Y-99500973D01*
X168417902Y-103024993D01*
X168355590Y-103059019D01*
X168284775Y-103053954D01*
X168227939Y-103011407D01*
X168208974Y-102974834D01*
X168205302Y-102963531D01*
X168169727Y-102854044D01*
X168163875Y-102843907D01*
X168077541Y-102694374D01*
X168074240Y-102688656D01*
X168020771Y-102629272D01*
X167950875Y-102551645D01*
X167950874Y-102551644D01*
X167946453Y-102546734D01*
X167825761Y-102459046D01*
X167797294Y-102438363D01*
X167797293Y-102438362D01*
X167791952Y-102434482D01*
X167785924Y-102431798D01*
X167785922Y-102431797D01*
X167623519Y-102359491D01*
X167623518Y-102359491D01*
X167617488Y-102356806D01*
X167496246Y-102331035D01*
X167437144Y-102318472D01*
X167437139Y-102318472D01*
X167430687Y-102317100D01*
X167374795Y-102317100D01*
X167306674Y-102297098D01*
X167285699Y-102280195D01*
X166938804Y-101933299D01*
X166904779Y-101870987D01*
X166901900Y-101844204D01*
X166901900Y-96243168D01*
X166902427Y-96231985D01*
X166904102Y-96224492D01*
X166903022Y-96190134D01*
X187582300Y-96190134D01*
X187589055Y-96252316D01*
X187640185Y-96388705D01*
X187727539Y-96505261D01*
X187844095Y-96592615D01*
X187980484Y-96643745D01*
X188042666Y-96650500D01*
X191038934Y-96650500D01*
X191101116Y-96643745D01*
X191237505Y-96592615D01*
X191354061Y-96505261D01*
X191441415Y-96388705D01*
X191492545Y-96252316D01*
X191499300Y-96190134D01*
X191499300Y-94743866D01*
X191492545Y-94681684D01*
X191441415Y-94545295D01*
X191354061Y-94428739D01*
X191237505Y-94341385D01*
X191101116Y-94290255D01*
X191038934Y-94283500D01*
X188042666Y-94283500D01*
X187980484Y-94290255D01*
X187844095Y-94341385D01*
X187727539Y-94428739D01*
X187640185Y-94545295D01*
X187589055Y-94681684D01*
X187582300Y-94743866D01*
X187582300Y-96190134D01*
X166903022Y-96190134D01*
X166901962Y-96156401D01*
X166901900Y-96152444D01*
X166901900Y-96124544D01*
X166901396Y-96120553D01*
X166900463Y-96108711D01*
X166899323Y-96072436D01*
X166899074Y-96064511D01*
X166893421Y-96045052D01*
X166889412Y-96025693D01*
X166889246Y-96024383D01*
X166886874Y-96005603D01*
X166883958Y-95998237D01*
X166883956Y-95998231D01*
X166870600Y-95964498D01*
X166866755Y-95953268D01*
X166856630Y-95918417D01*
X166856630Y-95918416D01*
X166854419Y-95910807D01*
X166844105Y-95893366D01*
X166835408Y-95875613D01*
X166830872Y-95864158D01*
X166827952Y-95856783D01*
X166801963Y-95821012D01*
X166795447Y-95811092D01*
X166776978Y-95779863D01*
X166772942Y-95773038D01*
X166758621Y-95758717D01*
X166745780Y-95743683D01*
X166742425Y-95739065D01*
X166733872Y-95727293D01*
X166699795Y-95699102D01*
X166691016Y-95691112D01*
X165044852Y-94044947D01*
X165037312Y-94036661D01*
X165033200Y-94030182D01*
X164983548Y-93983556D01*
X164980707Y-93980802D01*
X164960970Y-93961065D01*
X164957773Y-93958585D01*
X164948751Y-93950880D01*
X164935316Y-93938264D01*
X164916521Y-93920614D01*
X164909575Y-93916795D01*
X164909572Y-93916793D01*
X164898766Y-93910852D01*
X164882247Y-93900001D01*
X164881783Y-93899641D01*
X164866241Y-93887586D01*
X164858972Y-93884441D01*
X164858968Y-93884438D01*
X164825663Y-93870026D01*
X164815013Y-93864809D01*
X164776260Y-93843505D01*
X164756637Y-93838467D01*
X164737934Y-93832063D01*
X164726620Y-93827167D01*
X164726619Y-93827167D01*
X164719345Y-93824019D01*
X164711522Y-93822780D01*
X164711512Y-93822777D01*
X164675676Y-93817101D01*
X164664056Y-93814695D01*
X164628911Y-93805672D01*
X164628910Y-93805672D01*
X164621230Y-93803700D01*
X164600976Y-93803700D01*
X164581265Y-93802149D01*
X164578734Y-93801748D01*
X164561257Y-93798980D01*
X164553365Y-93799726D01*
X164517239Y-93803141D01*
X164505381Y-93803700D01*
X143188076Y-93803700D01*
X143176892Y-93803173D01*
X143169404Y-93801499D01*
X143161481Y-93801748D01*
X143101346Y-93803638D01*
X143097388Y-93803700D01*
X143069457Y-93803700D01*
X143065542Y-93804195D01*
X143065538Y-93804195D01*
X143065480Y-93804203D01*
X143065451Y-93804206D01*
X143053609Y-93805139D01*
X143009423Y-93806527D01*
X142992057Y-93811572D01*
X142989971Y-93812178D01*
X142970619Y-93816186D01*
X142958381Y-93817732D01*
X142958379Y-93817733D01*
X142950516Y-93818726D01*
X142909399Y-93835006D01*
X142898198Y-93838841D01*
X142855719Y-93851182D01*
X142848900Y-93855215D01*
X142848895Y-93855217D01*
X142838284Y-93861493D01*
X142820534Y-93870190D01*
X142801696Y-93877648D01*
X142795280Y-93882309D01*
X142795279Y-93882310D01*
X142765938Y-93903628D01*
X142756014Y-93910147D01*
X142724773Y-93928622D01*
X142724768Y-93928626D01*
X142717950Y-93932658D01*
X142703626Y-93946982D01*
X142688594Y-93959821D01*
X142672206Y-93971728D01*
X142644025Y-94005793D01*
X142636035Y-94014573D01*
X141698942Y-94951666D01*
X141636630Y-94985692D01*
X141587752Y-94986618D01*
X141360764Y-94946186D01*
X141271637Y-94945097D01*
X141127795Y-94943339D01*
X141127793Y-94943339D01*
X141122625Y-94943276D01*
X140887209Y-94979300D01*
X140660838Y-95053289D01*
X140449590Y-95163258D01*
X140445457Y-95166361D01*
X140445454Y-95166363D01*
X140263275Y-95303147D01*
X140259140Y-95306252D01*
X140255568Y-95309990D01*
X140118513Y-95453410D01*
X140094602Y-95478431D01*
X140072630Y-95510641D01*
X140059186Y-95530349D01*
X140004274Y-95575351D01*
X139933749Y-95583522D01*
X139870002Y-95552267D01*
X139849306Y-95527784D01*
X139838217Y-95510642D01*
X139838212Y-95510636D01*
X139835406Y-95506298D01*
X139675124Y-95330150D01*
X139671073Y-95326951D01*
X139671069Y-95326947D01*
X139492278Y-95185747D01*
X139492273Y-95185744D01*
X139488224Y-95182546D01*
X139483708Y-95180053D01*
X139483705Y-95180051D01*
X139284250Y-95069946D01*
X139284246Y-95069944D01*
X139279726Y-95067449D01*
X139274857Y-95065725D01*
X139274853Y-95065723D01*
X139060105Y-94989676D01*
X139060101Y-94989675D01*
X139055230Y-94987950D01*
X139050140Y-94987043D01*
X139050135Y-94987042D01*
X138922814Y-94964364D01*
X138820764Y-94946186D01*
X138731637Y-94945097D01*
X138587795Y-94943339D01*
X138587793Y-94943339D01*
X138582625Y-94943276D01*
X138347209Y-94979300D01*
X138120838Y-95053289D01*
X137909590Y-95163258D01*
X137905457Y-95166361D01*
X137905454Y-95166363D01*
X137723275Y-95303147D01*
X137719140Y-95306252D01*
X137715568Y-95309990D01*
X137578513Y-95453410D01*
X137554602Y-95478431D01*
X137532630Y-95510641D01*
X137519186Y-95530349D01*
X137464274Y-95575351D01*
X137393749Y-95583522D01*
X137330002Y-95552267D01*
X137309306Y-95527784D01*
X137298217Y-95510642D01*
X137298212Y-95510636D01*
X137295406Y-95506298D01*
X137135124Y-95330150D01*
X137131073Y-95326951D01*
X137131069Y-95326947D01*
X136952278Y-95185747D01*
X136952273Y-95185744D01*
X136948224Y-95182546D01*
X136943708Y-95180053D01*
X136943705Y-95180051D01*
X136744250Y-95069946D01*
X136744246Y-95069944D01*
X136739726Y-95067449D01*
X136734857Y-95065725D01*
X136734853Y-95065723D01*
X136520105Y-94989676D01*
X136520101Y-94989675D01*
X136515230Y-94987950D01*
X136510140Y-94987043D01*
X136510135Y-94987042D01*
X136382814Y-94964364D01*
X136280764Y-94946186D01*
X136191637Y-94945097D01*
X136047795Y-94943339D01*
X136047793Y-94943339D01*
X136042625Y-94943276D01*
X135807209Y-94979300D01*
X135580838Y-95053289D01*
X135369590Y-95163258D01*
X135365457Y-95166361D01*
X135365454Y-95166363D01*
X135183275Y-95303147D01*
X135179140Y-95306252D01*
X135175568Y-95309990D01*
X135038513Y-95453410D01*
X135014602Y-95478431D01*
X134992630Y-95510641D01*
X134979186Y-95530349D01*
X134924274Y-95575351D01*
X134853749Y-95583522D01*
X134790002Y-95552267D01*
X134769306Y-95527784D01*
X134758217Y-95510642D01*
X134758212Y-95510636D01*
X134755406Y-95506298D01*
X134595124Y-95330150D01*
X134591073Y-95326951D01*
X134591069Y-95326947D01*
X134412278Y-95185747D01*
X134412273Y-95185744D01*
X134408224Y-95182546D01*
X134403708Y-95180053D01*
X134403705Y-95180051D01*
X134204250Y-95069946D01*
X134204246Y-95069944D01*
X134199726Y-95067449D01*
X134194857Y-95065725D01*
X134194853Y-95065723D01*
X133980105Y-94989676D01*
X133980101Y-94989675D01*
X133975230Y-94987950D01*
X133970140Y-94987043D01*
X133970135Y-94987042D01*
X133842814Y-94964364D01*
X133740764Y-94946186D01*
X133651637Y-94945097D01*
X133507795Y-94943339D01*
X133507793Y-94943339D01*
X133502625Y-94943276D01*
X133267209Y-94979300D01*
X133040838Y-95053289D01*
X132829590Y-95163258D01*
X132825457Y-95166361D01*
X132825454Y-95166363D01*
X132643275Y-95303147D01*
X132639140Y-95306252D01*
X132635568Y-95309990D01*
X132498513Y-95453410D01*
X132474602Y-95478431D01*
X132452630Y-95510641D01*
X132439186Y-95530349D01*
X132384274Y-95575351D01*
X132313749Y-95583522D01*
X132250002Y-95552267D01*
X132229306Y-95527784D01*
X132218217Y-95510642D01*
X132218212Y-95510636D01*
X132215406Y-95506298D01*
X132055124Y-95330150D01*
X132051073Y-95326951D01*
X132051069Y-95326947D01*
X131872278Y-95185747D01*
X131872273Y-95185744D01*
X131868224Y-95182546D01*
X131863708Y-95180053D01*
X131863705Y-95180051D01*
X131664250Y-95069946D01*
X131664246Y-95069944D01*
X131659726Y-95067449D01*
X131654857Y-95065725D01*
X131654853Y-95065723D01*
X131440105Y-94989676D01*
X131440101Y-94989675D01*
X131435230Y-94987950D01*
X131430140Y-94987043D01*
X131430135Y-94987042D01*
X131302814Y-94964364D01*
X131200764Y-94946186D01*
X131111637Y-94945097D01*
X130967795Y-94943339D01*
X130967793Y-94943339D01*
X130962625Y-94943276D01*
X130727209Y-94979300D01*
X130500838Y-95053289D01*
X130289590Y-95163258D01*
X130285457Y-95166361D01*
X130285454Y-95166363D01*
X130103275Y-95303147D01*
X130099140Y-95306252D01*
X130095568Y-95309990D01*
X129958513Y-95453410D01*
X129934602Y-95478431D01*
X129912630Y-95510641D01*
X129899186Y-95530349D01*
X129844274Y-95575351D01*
X129773749Y-95583522D01*
X129710002Y-95552267D01*
X129689306Y-95527784D01*
X129678217Y-95510642D01*
X129678212Y-95510636D01*
X129675406Y-95506298D01*
X129515124Y-95330150D01*
X129511073Y-95326951D01*
X129511069Y-95326947D01*
X129332278Y-95185747D01*
X129332273Y-95185744D01*
X129328224Y-95182546D01*
X129323708Y-95180053D01*
X129323705Y-95180051D01*
X129124250Y-95069946D01*
X129124246Y-95069944D01*
X129119726Y-95067449D01*
X129114857Y-95065725D01*
X129114853Y-95065723D01*
X128900105Y-94989676D01*
X128900101Y-94989675D01*
X128895230Y-94987950D01*
X128890140Y-94987043D01*
X128890135Y-94987042D01*
X128762814Y-94964364D01*
X128660764Y-94946186D01*
X128571637Y-94945097D01*
X128427795Y-94943339D01*
X128427793Y-94943339D01*
X128422625Y-94943276D01*
X128187209Y-94979300D01*
X127960838Y-95053289D01*
X127749590Y-95163258D01*
X127745457Y-95166361D01*
X127745454Y-95166363D01*
X127563275Y-95303147D01*
X127559140Y-95306252D01*
X127555568Y-95309990D01*
X127418513Y-95453410D01*
X127394602Y-95478431D01*
X127372630Y-95510641D01*
X127359186Y-95530349D01*
X127304274Y-95575351D01*
X127233749Y-95583522D01*
X127170002Y-95552267D01*
X127149306Y-95527784D01*
X127138217Y-95510642D01*
X127138212Y-95510636D01*
X127135406Y-95506298D01*
X126975124Y-95330150D01*
X126971073Y-95326951D01*
X126971069Y-95326947D01*
X126792278Y-95185747D01*
X126792273Y-95185744D01*
X126788224Y-95182546D01*
X126783708Y-95180053D01*
X126783705Y-95180051D01*
X126584250Y-95069946D01*
X126584246Y-95069944D01*
X126579726Y-95067449D01*
X126574857Y-95065725D01*
X126574853Y-95065723D01*
X126360105Y-94989676D01*
X126360101Y-94989675D01*
X126355230Y-94987950D01*
X126350140Y-94987043D01*
X126350135Y-94987042D01*
X126222814Y-94964364D01*
X126120764Y-94946186D01*
X126031637Y-94945097D01*
X125887795Y-94943339D01*
X125887793Y-94943339D01*
X125882625Y-94943276D01*
X125647209Y-94979300D01*
X125420838Y-95053289D01*
X125209590Y-95163258D01*
X125205457Y-95166361D01*
X125205454Y-95166363D01*
X125023275Y-95303147D01*
X125019140Y-95306252D01*
X125015568Y-95309990D01*
X124878513Y-95453410D01*
X124854602Y-95478431D01*
X124832630Y-95510641D01*
X124819186Y-95530349D01*
X124764274Y-95575351D01*
X124693749Y-95583522D01*
X124630002Y-95552267D01*
X124609306Y-95527784D01*
X124598217Y-95510642D01*
X124598212Y-95510636D01*
X124595406Y-95506298D01*
X124435124Y-95330150D01*
X124431073Y-95326951D01*
X124431069Y-95326947D01*
X124252278Y-95185747D01*
X124252273Y-95185744D01*
X124248224Y-95182546D01*
X124243708Y-95180053D01*
X124243705Y-95180051D01*
X124044250Y-95069946D01*
X124044246Y-95069944D01*
X124039726Y-95067449D01*
X124034857Y-95065725D01*
X124034853Y-95065723D01*
X123820105Y-94989676D01*
X123820101Y-94989675D01*
X123815230Y-94987950D01*
X123810140Y-94987043D01*
X123810135Y-94987042D01*
X123682814Y-94964364D01*
X123580764Y-94946186D01*
X123491637Y-94945097D01*
X123347795Y-94943339D01*
X123347793Y-94943339D01*
X123342625Y-94943276D01*
X123107209Y-94979300D01*
X122880838Y-95053289D01*
X122669590Y-95163258D01*
X122665457Y-95166361D01*
X122665454Y-95166363D01*
X122483275Y-95303147D01*
X122479140Y-95306252D01*
X122475568Y-95309990D01*
X122338513Y-95453410D01*
X122314602Y-95478431D01*
X122272064Y-95540790D01*
X122217155Y-95585790D01*
X122146631Y-95593961D01*
X122094940Y-95569588D01*
X122092940Y-95569307D01*
X122081753Y-95574457D01*
X121880783Y-95775427D01*
X121818471Y-95809453D01*
X121747656Y-95804388D01*
X121694045Y-95765968D01*
X121626960Y-95683713D01*
X121626957Y-95683710D01*
X121623065Y-95678938D01*
X121613341Y-95670893D01*
X121582847Y-95645667D01*
X121530437Y-95602309D01*
X121490700Y-95543478D01*
X121489077Y-95472500D01*
X121521658Y-95416131D01*
X121721327Y-95216462D01*
X121728348Y-95203606D01*
X121720575Y-95192938D01*
X121712004Y-95186169D01*
X121703417Y-95180464D01*
X121504055Y-95070410D01*
X121494643Y-95066180D01*
X121279971Y-94990160D01*
X121270014Y-94987530D01*
X121045805Y-94947591D01*
X121035554Y-94946622D01*
X120807830Y-94943840D01*
X120797546Y-94944560D01*
X120572437Y-94979006D01*
X120562410Y-94981395D01*
X120345951Y-95052144D01*
X120336442Y-95056141D01*
X120134451Y-95161292D01*
X120125716Y-95166793D01*
X120089535Y-95193958D01*
X120081081Y-95205285D01*
X120087826Y-95217615D01*
X120286475Y-95416264D01*
X120320501Y-95478576D01*
X120315436Y-95549391D01*
X120276332Y-95603555D01*
X120194975Y-95668968D01*
X120112619Y-95767116D01*
X120053513Y-95806440D01*
X119982526Y-95807566D01*
X119927006Y-95775217D01*
X119729224Y-95577435D01*
X119717688Y-95571135D01*
X119705406Y-95580758D01*
X119643747Y-95671146D01*
X119638654Y-95680110D01*
X119542768Y-95886679D01*
X119539211Y-95896347D01*
X119478352Y-96115797D01*
X119476421Y-96125916D01*
X119452221Y-96352373D01*
X119451969Y-96362662D01*
X119465078Y-96590017D01*
X119466514Y-96600237D01*
X119516580Y-96822393D01*
X119519659Y-96832221D01*
X119605338Y-97043223D01*
X119609991Y-97052434D01*
X119705153Y-97207723D01*
X119715611Y-97217185D01*
X119724387Y-97213402D01*
X119927272Y-97010518D01*
X119989584Y-96976493D01*
X120060400Y-96981558D01*
X120115113Y-97021350D01*
X120158879Y-97076569D01*
X120175035Y-97096953D01*
X120278620Y-97185110D01*
X120317532Y-97244491D01*
X120318163Y-97315485D01*
X120286052Y-97370158D01*
X120085083Y-97571128D01*
X120078326Y-97583503D01*
X120083607Y-97590558D01*
X120271821Y-97700541D01*
X120281108Y-97704991D01*
X120493861Y-97786233D01*
X120503763Y-97789110D01*
X120726911Y-97834510D01*
X120737163Y-97835733D01*
X120964738Y-97844077D01*
X120975024Y-97843610D01*
X121200915Y-97814673D01*
X121211001Y-97812530D01*
X121429128Y-97747088D01*
X121438723Y-97743328D01*
X121643237Y-97643137D01*
X121652083Y-97637863D01*
X121717631Y-97591108D01*
X121726032Y-97580408D01*
X121719044Y-97567255D01*
X121521549Y-97369760D01*
X121487523Y-97307448D01*
X121492588Y-97236633D01*
X121533071Y-97181376D01*
X121597991Y-97130655D01*
X121602847Y-97126861D01*
X121696888Y-97017913D01*
X121756538Y-96979418D01*
X121827535Y-96979282D01*
X121881362Y-97011151D01*
X122078822Y-97208611D01*
X122092097Y-97215860D01*
X122154007Y-97192078D01*
X122223525Y-97206491D01*
X122265899Y-97243245D01*
X122268574Y-97246899D01*
X122271274Y-97251306D01*
X122427204Y-97431317D01*
X122610442Y-97583444D01*
X122614894Y-97586046D01*
X122614899Y-97586049D01*
X122713333Y-97643569D01*
X122816065Y-97703601D01*
X123038552Y-97788560D01*
X123043618Y-97789591D01*
X123043619Y-97789591D01*
X123052221Y-97791341D01*
X123271928Y-97836041D01*
X123406121Y-97840962D01*
X123504760Y-97844579D01*
X123504764Y-97844579D01*
X123509924Y-97844768D01*
X123515044Y-97844112D01*
X123515046Y-97844112D01*
X123741023Y-97815164D01*
X123741024Y-97815164D01*
X123746151Y-97814507D01*
X123752741Y-97812530D01*
X123969316Y-97747554D01*
X123969317Y-97747553D01*
X123974262Y-97746070D01*
X124188133Y-97641295D01*
X124192336Y-97638297D01*
X124192341Y-97638294D01*
X124377816Y-97505996D01*
X124377818Y-97505994D01*
X124382020Y-97502997D01*
X124550716Y-97334889D01*
X124608979Y-97253807D01*
X124664972Y-97210160D01*
X124735676Y-97203714D01*
X124798640Y-97236516D01*
X124810582Y-97250176D01*
X124811274Y-97251306D01*
X124967204Y-97431317D01*
X125150442Y-97583444D01*
X125154894Y-97586046D01*
X125154899Y-97586049D01*
X125253333Y-97643569D01*
X125356065Y-97703601D01*
X125578552Y-97788560D01*
X125583618Y-97789591D01*
X125583619Y-97789591D01*
X125592221Y-97791341D01*
X125811928Y-97836041D01*
X125946121Y-97840962D01*
X126044760Y-97844579D01*
X126044764Y-97844579D01*
X126049924Y-97844768D01*
X126055044Y-97844112D01*
X126055046Y-97844112D01*
X126281023Y-97815164D01*
X126281024Y-97815164D01*
X126286151Y-97814507D01*
X126292741Y-97812530D01*
X126509316Y-97747554D01*
X126509317Y-97747553D01*
X126514262Y-97746070D01*
X126728133Y-97641295D01*
X126732336Y-97638297D01*
X126732341Y-97638294D01*
X126917816Y-97505996D01*
X126917818Y-97505994D01*
X126922020Y-97502997D01*
X127090716Y-97334889D01*
X127148979Y-97253807D01*
X127204972Y-97210160D01*
X127275676Y-97203714D01*
X127338640Y-97236516D01*
X127350582Y-97250176D01*
X127351274Y-97251306D01*
X127507204Y-97431317D01*
X127690442Y-97583444D01*
X127694894Y-97586046D01*
X127694899Y-97586049D01*
X127793333Y-97643569D01*
X127896065Y-97703601D01*
X128118552Y-97788560D01*
X128123618Y-97789591D01*
X128123619Y-97789591D01*
X128132221Y-97791341D01*
X128351928Y-97836041D01*
X128486121Y-97840962D01*
X128584760Y-97844579D01*
X128584764Y-97844579D01*
X128589924Y-97844768D01*
X128595044Y-97844112D01*
X128595046Y-97844112D01*
X128821023Y-97815164D01*
X128821024Y-97815164D01*
X128826151Y-97814507D01*
X128832741Y-97812530D01*
X129049316Y-97747554D01*
X129049317Y-97747553D01*
X129054262Y-97746070D01*
X129268133Y-97641295D01*
X129272336Y-97638297D01*
X129272341Y-97638294D01*
X129457816Y-97505996D01*
X129457818Y-97505994D01*
X129462020Y-97502997D01*
X129630716Y-97334889D01*
X129688979Y-97253807D01*
X129744972Y-97210160D01*
X129815676Y-97203714D01*
X129878640Y-97236516D01*
X129890582Y-97250176D01*
X129891274Y-97251306D01*
X130047204Y-97431317D01*
X130230442Y-97583444D01*
X130234894Y-97586046D01*
X130234899Y-97586049D01*
X130333333Y-97643569D01*
X130436065Y-97703601D01*
X130658552Y-97788560D01*
X130663618Y-97789591D01*
X130663619Y-97789591D01*
X130672221Y-97791341D01*
X130891928Y-97836041D01*
X131026121Y-97840962D01*
X131124760Y-97844579D01*
X131124764Y-97844579D01*
X131129924Y-97844768D01*
X131135044Y-97844112D01*
X131135046Y-97844112D01*
X131361023Y-97815164D01*
X131361024Y-97815164D01*
X131366151Y-97814507D01*
X131372741Y-97812530D01*
X131589316Y-97747554D01*
X131589317Y-97747553D01*
X131594262Y-97746070D01*
X131808133Y-97641295D01*
X131812336Y-97638297D01*
X131812341Y-97638294D01*
X131997816Y-97505996D01*
X131997818Y-97505994D01*
X132002020Y-97502997D01*
X132170716Y-97334889D01*
X132228979Y-97253807D01*
X132284972Y-97210160D01*
X132355676Y-97203714D01*
X132418640Y-97236516D01*
X132430582Y-97250176D01*
X132431274Y-97251306D01*
X132587204Y-97431317D01*
X132770442Y-97583444D01*
X132774894Y-97586046D01*
X132774899Y-97586049D01*
X132873333Y-97643569D01*
X132976065Y-97703601D01*
X133198552Y-97788560D01*
X133203618Y-97789591D01*
X133203619Y-97789591D01*
X133212221Y-97791341D01*
X133431928Y-97836041D01*
X133566121Y-97840962D01*
X133664760Y-97844579D01*
X133664764Y-97844579D01*
X133669924Y-97844768D01*
X133675044Y-97844112D01*
X133675046Y-97844112D01*
X133901023Y-97815164D01*
X133901024Y-97815164D01*
X133906151Y-97814507D01*
X133912741Y-97812530D01*
X134129316Y-97747554D01*
X134129317Y-97747553D01*
X134134262Y-97746070D01*
X134348133Y-97641295D01*
X134352336Y-97638297D01*
X134352341Y-97638294D01*
X134537816Y-97505996D01*
X134537818Y-97505994D01*
X134542020Y-97502997D01*
X134710716Y-97334889D01*
X134768979Y-97253807D01*
X134824972Y-97210160D01*
X134895676Y-97203714D01*
X134958640Y-97236516D01*
X134970582Y-97250176D01*
X134971274Y-97251306D01*
X135127204Y-97431317D01*
X135310442Y-97583444D01*
X135314894Y-97586046D01*
X135314899Y-97586049D01*
X135413333Y-97643569D01*
X135516065Y-97703601D01*
X135738552Y-97788560D01*
X135743618Y-97789591D01*
X135743619Y-97789591D01*
X135752221Y-97791341D01*
X135971928Y-97836041D01*
X136106121Y-97840962D01*
X136204760Y-97844579D01*
X136204764Y-97844579D01*
X136209924Y-97844768D01*
X136215044Y-97844112D01*
X136215046Y-97844112D01*
X136441023Y-97815164D01*
X136441024Y-97815164D01*
X136446151Y-97814507D01*
X136452741Y-97812530D01*
X136669316Y-97747554D01*
X136669317Y-97747553D01*
X136674262Y-97746070D01*
X136888133Y-97641295D01*
X136892336Y-97638297D01*
X136892341Y-97638294D01*
X137077816Y-97505996D01*
X137077818Y-97505994D01*
X137082020Y-97502997D01*
X137250716Y-97334889D01*
X137308979Y-97253807D01*
X137364972Y-97210160D01*
X137435676Y-97203714D01*
X137498640Y-97236516D01*
X137510582Y-97250176D01*
X137511274Y-97251306D01*
X137667204Y-97431317D01*
X137850442Y-97583444D01*
X137854894Y-97586046D01*
X137854899Y-97586049D01*
X137953333Y-97643569D01*
X138056065Y-97703601D01*
X138278552Y-97788560D01*
X138283618Y-97789591D01*
X138283619Y-97789591D01*
X138292221Y-97791341D01*
X138511928Y-97836041D01*
X138646121Y-97840962D01*
X138744760Y-97844579D01*
X138744764Y-97844579D01*
X138749924Y-97844768D01*
X138755044Y-97844112D01*
X138755046Y-97844112D01*
X138981023Y-97815164D01*
X138981024Y-97815164D01*
X138986151Y-97814507D01*
X138992741Y-97812530D01*
X139209316Y-97747554D01*
X139209317Y-97747553D01*
X139214262Y-97746070D01*
X139428133Y-97641295D01*
X139432336Y-97638297D01*
X139432341Y-97638294D01*
X139617816Y-97505996D01*
X139617818Y-97505994D01*
X139622020Y-97502997D01*
X139790716Y-97334889D01*
X139848979Y-97253807D01*
X139904972Y-97210160D01*
X139975676Y-97203714D01*
X140038640Y-97236516D01*
X140050582Y-97250176D01*
X140051274Y-97251306D01*
X140207204Y-97431317D01*
X140390442Y-97583444D01*
X140394894Y-97586046D01*
X140394899Y-97586049D01*
X140493333Y-97643569D01*
X140596065Y-97703601D01*
X140818552Y-97788560D01*
X140823618Y-97789591D01*
X140823619Y-97789591D01*
X140832221Y-97791341D01*
X141051928Y-97836041D01*
X141186121Y-97840962D01*
X141284760Y-97844579D01*
X141284764Y-97844579D01*
X141289924Y-97844768D01*
X141295044Y-97844112D01*
X141295046Y-97844112D01*
X141521023Y-97815164D01*
X141521024Y-97815164D01*
X141526151Y-97814507D01*
X141532741Y-97812530D01*
X141749316Y-97747554D01*
X141749317Y-97747553D01*
X141754262Y-97746070D01*
X141968133Y-97641295D01*
X141972336Y-97638297D01*
X141972341Y-97638294D01*
X142157816Y-97505996D01*
X142157818Y-97505994D01*
X142162020Y-97502997D01*
X142330716Y-97334889D01*
X142469690Y-97141486D01*
X142479221Y-97122203D01*
X142572917Y-96932624D01*
X142572918Y-96932622D01*
X142575211Y-96927982D01*
X142644443Y-96700111D01*
X142645118Y-96694985D01*
X142675092Y-96467313D01*
X142675092Y-96467309D01*
X142675529Y-96463992D01*
X142676438Y-96426804D01*
X142677182Y-96396365D01*
X142677182Y-96396361D01*
X142677264Y-96393000D01*
X142657750Y-96155644D01*
X142625108Y-96025693D01*
X142600676Y-95928423D01*
X142603480Y-95857481D01*
X142633785Y-95808632D01*
X143334812Y-95107605D01*
X143397124Y-95073579D01*
X143423907Y-95070700D01*
X150291697Y-95070700D01*
X150359818Y-95090702D01*
X150406311Y-95144358D01*
X150416415Y-95214632D01*
X150386921Y-95279212D01*
X150367351Y-95297459D01*
X150355640Y-95306252D01*
X150352068Y-95309990D01*
X150215013Y-95453410D01*
X150191102Y-95478431D01*
X150188193Y-95482696D01*
X150188187Y-95482704D01*
X150155686Y-95530349D01*
X150056894Y-95675172D01*
X150008298Y-95779863D01*
X149959574Y-95884832D01*
X149956622Y-95891191D01*
X149892977Y-96120685D01*
X149892428Y-96125819D01*
X149892428Y-96125821D01*
X149886949Y-96177089D01*
X149867670Y-96357494D01*
X149867967Y-96362646D01*
X149867967Y-96362650D01*
X149875776Y-96498081D01*
X149881379Y-96595255D01*
X149882516Y-96600301D01*
X149882517Y-96600307D01*
X149915611Y-96747156D01*
X149933737Y-96827585D01*
X149935679Y-96832367D01*
X149935680Y-96832371D01*
X150012511Y-97021583D01*
X150023337Y-97048244D01*
X150147774Y-97251306D01*
X150303704Y-97431317D01*
X150486942Y-97583444D01*
X150491394Y-97586046D01*
X150491399Y-97586049D01*
X150589833Y-97643569D01*
X150692565Y-97703601D01*
X150915052Y-97788560D01*
X150920118Y-97789591D01*
X150920119Y-97789591D01*
X150928721Y-97791341D01*
X151148428Y-97836041D01*
X151282621Y-97840962D01*
X151381260Y-97844579D01*
X151381264Y-97844579D01*
X151386424Y-97844768D01*
X151391544Y-97844112D01*
X151391546Y-97844112D01*
X151617523Y-97815164D01*
X151617524Y-97815164D01*
X151622651Y-97814507D01*
X151629241Y-97812530D01*
X151845816Y-97747554D01*
X151845817Y-97747553D01*
X151850762Y-97746070D01*
X152064633Y-97641295D01*
X152068836Y-97638297D01*
X152068841Y-97638294D01*
X152254316Y-97505996D01*
X152254318Y-97505994D01*
X152258520Y-97502997D01*
X152427216Y-97334889D01*
X152485479Y-97253807D01*
X152541472Y-97210160D01*
X152612176Y-97203714D01*
X152675140Y-97236516D01*
X152687082Y-97250176D01*
X152687774Y-97251306D01*
X152843704Y-97431317D01*
X152935468Y-97507501D01*
X153016093Y-97574437D01*
X153055728Y-97633340D01*
X153057226Y-97704320D01*
X153020111Y-97764843D01*
X153011261Y-97772141D01*
X152903008Y-97853420D01*
X152895640Y-97858952D01*
X152731102Y-98031131D01*
X152728191Y-98035399D01*
X152728187Y-98035404D01*
X152695686Y-98083049D01*
X152596894Y-98227872D01*
X152496622Y-98443891D01*
X152432977Y-98673385D01*
X152432428Y-98678519D01*
X152432428Y-98678521D01*
X152426949Y-98729789D01*
X152407670Y-98910194D01*
X152407967Y-98915346D01*
X152407967Y-98915350D01*
X152415929Y-99053434D01*
X152421379Y-99147955D01*
X152422516Y-99153001D01*
X152422517Y-99153007D01*
X152448451Y-99268081D01*
X152473737Y-99380285D01*
X152475679Y-99385067D01*
X152475680Y-99385071D01*
X152561393Y-99596157D01*
X152563337Y-99600944D01*
X152687774Y-99804006D01*
X152843704Y-99984017D01*
X153026942Y-100136144D01*
X153031394Y-100138746D01*
X153031399Y-100138749D01*
X153099497Y-100178542D01*
X153232565Y-100256301D01*
X153235375Y-100257374D01*
X153287699Y-100304427D01*
X153306465Y-100370585D01*
X153306465Y-103216004D01*
X153286463Y-103284125D01*
X153232807Y-103330618D01*
X153162533Y-103340722D01*
X153106404Y-103317940D01*
X153014494Y-103251163D01*
X153014493Y-103251162D01*
X153009152Y-103247282D01*
X153003124Y-103244598D01*
X153003122Y-103244597D01*
X152840719Y-103172291D01*
X152840718Y-103172291D01*
X152834688Y-103169606D01*
X152740394Y-103149563D01*
X152654344Y-103131272D01*
X152654339Y-103131272D01*
X152647887Y-103129900D01*
X152456913Y-103129900D01*
X152450461Y-103131272D01*
X152450456Y-103131272D01*
X152364406Y-103149563D01*
X152270112Y-103169606D01*
X152264082Y-103172291D01*
X152264081Y-103172291D01*
X152101678Y-103244597D01*
X152101676Y-103244598D01*
X152095648Y-103247282D01*
X152090307Y-103251162D01*
X152090306Y-103251163D01*
X152060381Y-103272905D01*
X151941147Y-103359534D01*
X151936732Y-103364437D01*
X151931820Y-103368860D01*
X151930695Y-103367611D01*
X151877386Y-103400451D01*
X151844200Y-103404900D01*
X143852480Y-103404900D01*
X143784359Y-103384898D01*
X143758844Y-103363210D01*
X143668475Y-103262845D01*
X143668474Y-103262844D01*
X143664053Y-103257934D01*
X143546176Y-103172291D01*
X143514894Y-103149563D01*
X143514893Y-103149562D01*
X143509552Y-103145682D01*
X143503524Y-103142998D01*
X143503522Y-103142997D01*
X143341119Y-103070691D01*
X143341118Y-103070691D01*
X143335088Y-103068006D01*
X143229799Y-103045626D01*
X143154744Y-103029672D01*
X143154739Y-103029672D01*
X143148287Y-103028300D01*
X142957313Y-103028300D01*
X142950861Y-103029672D01*
X142950856Y-103029672D01*
X142875801Y-103045626D01*
X142770512Y-103068006D01*
X142764482Y-103070691D01*
X142764481Y-103070691D01*
X142602078Y-103142997D01*
X142602076Y-103142998D01*
X142596048Y-103145682D01*
X142590707Y-103149562D01*
X142590706Y-103149563D01*
X142559424Y-103172291D01*
X142441547Y-103257934D01*
X142437126Y-103262844D01*
X142437125Y-103262845D01*
X142328763Y-103383194D01*
X142313760Y-103399856D01*
X142218273Y-103565244D01*
X142159258Y-103746872D01*
X142158568Y-103753433D01*
X142158568Y-103753435D01*
X142157829Y-103760469D01*
X142139296Y-103936800D01*
X142139986Y-103943365D01*
X142157593Y-104110882D01*
X142159258Y-104126728D01*
X142218273Y-104308356D01*
X142221576Y-104314078D01*
X142221577Y-104314079D01*
X142232537Y-104333062D01*
X142313760Y-104473744D01*
X142318178Y-104478651D01*
X142318179Y-104478652D01*
X142398702Y-104568082D01*
X142441547Y-104615666D01*
X142596048Y-104727918D01*
X142602076Y-104730602D01*
X142602078Y-104730603D01*
X142764481Y-104802909D01*
X142770512Y-104805594D01*
X142863912Y-104825447D01*
X142950856Y-104843928D01*
X142950861Y-104843928D01*
X142957313Y-104845300D01*
X143148287Y-104845300D01*
X143154739Y-104843928D01*
X143154744Y-104843928D01*
X143241687Y-104825447D01*
X143335088Y-104805594D01*
X143341119Y-104802909D01*
X143503522Y-104730603D01*
X143503524Y-104730602D01*
X143509552Y-104727918D01*
X143537050Y-104707940D01*
X143553533Y-104695964D01*
X143627594Y-104671900D01*
X151844200Y-104671900D01*
X151912321Y-104691902D01*
X151931547Y-104708243D01*
X151931820Y-104707940D01*
X151936732Y-104712363D01*
X151941147Y-104717266D01*
X151946486Y-104721145D01*
X152085653Y-104822256D01*
X152095648Y-104829518D01*
X152101676Y-104832202D01*
X152101678Y-104832203D01*
X152193436Y-104873056D01*
X152270112Y-104907194D01*
X152363513Y-104927047D01*
X152450456Y-104945528D01*
X152450461Y-104945528D01*
X152456913Y-104946900D01*
X152647887Y-104946900D01*
X152654339Y-104945528D01*
X152654344Y-104945528D01*
X152741287Y-104927047D01*
X152834688Y-104907194D01*
X152911364Y-104873056D01*
X153003122Y-104832203D01*
X153003124Y-104832202D01*
X153009152Y-104829518D01*
X153019148Y-104822256D01*
X153106404Y-104758860D01*
X153173272Y-104735002D01*
X153242423Y-104751082D01*
X153291903Y-104801996D01*
X153306465Y-104860796D01*
X153306465Y-109969998D01*
X153305938Y-109981181D01*
X153304263Y-109988674D01*
X153304512Y-109996600D01*
X153304512Y-109996601D01*
X153306403Y-110056751D01*
X153306465Y-110060710D01*
X153306465Y-110088621D01*
X153306962Y-110092555D01*
X153306962Y-110092556D01*
X153306970Y-110092621D01*
X153307903Y-110104464D01*
X153309039Y-110140591D01*
X153309292Y-110148654D01*
X153314943Y-110168104D01*
X153318952Y-110187465D01*
X153321491Y-110207562D01*
X153324410Y-110214933D01*
X153324410Y-110214935D01*
X153337769Y-110248677D01*
X153341614Y-110259907D01*
X153353947Y-110302358D01*
X153357980Y-110309177D01*
X153357982Y-110309182D01*
X153364258Y-110319793D01*
X153372953Y-110337541D01*
X153380413Y-110356382D01*
X153385075Y-110362798D01*
X153385075Y-110362799D01*
X153406401Y-110392152D01*
X153412917Y-110402072D01*
X153431341Y-110433224D01*
X153435423Y-110440127D01*
X153449744Y-110454448D01*
X153462584Y-110469481D01*
X153474493Y-110485872D01*
X153504570Y-110510754D01*
X153508570Y-110514063D01*
X153517349Y-110522053D01*
X156569948Y-113574653D01*
X156577488Y-113582939D01*
X156581600Y-113589418D01*
X156587377Y-113594843D01*
X156631251Y-113636043D01*
X156634093Y-113638798D01*
X156653830Y-113658535D01*
X156657027Y-113661015D01*
X156666047Y-113668718D01*
X156698279Y-113698986D01*
X156705225Y-113702805D01*
X156705228Y-113702807D01*
X156716034Y-113708748D01*
X156732553Y-113719599D01*
X156748559Y-113732014D01*
X156755828Y-113735159D01*
X156755832Y-113735162D01*
X156789137Y-113749574D01*
X156799787Y-113754791D01*
X156838540Y-113776095D01*
X156846215Y-113778066D01*
X156846216Y-113778066D01*
X156858162Y-113781133D01*
X156876867Y-113787537D01*
X156895455Y-113795581D01*
X156903278Y-113796820D01*
X156903288Y-113796823D01*
X156939124Y-113802499D01*
X156950744Y-113804905D01*
X156985889Y-113813928D01*
X156993570Y-113815900D01*
X157013824Y-113815900D01*
X157033534Y-113817451D01*
X157053543Y-113820620D01*
X157061435Y-113819874D01*
X157097561Y-113816459D01*
X157109419Y-113815900D01*
X165547406Y-113815900D01*
X165615527Y-113835902D01*
X165636501Y-113852805D01*
X168102800Y-116319105D01*
X168136826Y-116381417D01*
X168131761Y-116452233D01*
X168102800Y-116497295D01*
X168075951Y-116524144D01*
X168013639Y-116558170D01*
X167942824Y-116553105D01*
X167886030Y-116510615D01*
X167873783Y-116494274D01*
X167861224Y-116481715D01*
X167759149Y-116405214D01*
X167743554Y-116396676D01*
X167623106Y-116351522D01*
X167607851Y-116347895D01*
X167556986Y-116342369D01*
X167550172Y-116342000D01*
X167011115Y-116342000D01*
X166995876Y-116346475D01*
X166994671Y-116347865D01*
X166993000Y-116355548D01*
X166993000Y-116865500D01*
X166972998Y-116933621D01*
X166919342Y-116980114D01*
X166867000Y-116991500D01*
X166665628Y-116991500D01*
X166597507Y-116971498D01*
X166551014Y-116917842D01*
X166540910Y-116847568D01*
X166542508Y-116838715D01*
X166543000Y-116836453D01*
X166543000Y-116360116D01*
X166538525Y-116344877D01*
X166537135Y-116343672D01*
X166529452Y-116342001D01*
X165985831Y-116342001D01*
X165979010Y-116342371D01*
X165928148Y-116347895D01*
X165912896Y-116351521D01*
X165792446Y-116396676D01*
X165776851Y-116405214D01*
X165674776Y-116481715D01*
X165662215Y-116494276D01*
X165585714Y-116596351D01*
X165577176Y-116611946D01*
X165532022Y-116732394D01*
X165528395Y-116747649D01*
X165522869Y-116798514D01*
X165522500Y-116805328D01*
X165522500Y-116831885D01*
X165526975Y-116847124D01*
X165528365Y-116848329D01*
X165536048Y-116850000D01*
X165671616Y-116850000D01*
X165739737Y-116870002D01*
X165786230Y-116923658D01*
X165796334Y-116993932D01*
X165766840Y-117058512D01*
X165747183Y-117076825D01*
X165667239Y-117136739D01*
X165579885Y-117253295D01*
X165579596Y-117253079D01*
X165533435Y-117299139D01*
X165528082Y-117301353D01*
X165524172Y-117305865D01*
X165522501Y-117313548D01*
X165522501Y-117344670D01*
X165522870Y-117351488D01*
X165526409Y-117384067D01*
X165526409Y-117411280D01*
X165522000Y-117451866D01*
X165522000Y-117998134D01*
X165522369Y-118001529D01*
X165522369Y-118001533D01*
X165526156Y-118036392D01*
X165526156Y-118063603D01*
X165522000Y-118101866D01*
X165522000Y-118648134D01*
X165526409Y-118688720D01*
X165526409Y-118715933D01*
X165522869Y-118748517D01*
X165522500Y-118755328D01*
X165522500Y-118781885D01*
X165526975Y-118797124D01*
X165552670Y-118819389D01*
X165552212Y-118819918D01*
X165564600Y-118826682D01*
X165579707Y-118846839D01*
X165579885Y-118846705D01*
X165656877Y-118949435D01*
X165681725Y-119015941D01*
X165666672Y-119085324D01*
X165656877Y-119100565D01*
X165579885Y-119203295D01*
X165579596Y-119203079D01*
X165533435Y-119249139D01*
X165508666Y-119259382D01*
X165506395Y-119260049D01*
X165478607Y-119277908D01*
X165407610Y-119277908D01*
X165354012Y-119246107D01*
X164740652Y-118632747D01*
X164733112Y-118624461D01*
X164729000Y-118617982D01*
X164679348Y-118571356D01*
X164676507Y-118568602D01*
X164656770Y-118548865D01*
X164653573Y-118546385D01*
X164644551Y-118538680D01*
X164618100Y-118513841D01*
X164612321Y-118508414D01*
X164605375Y-118504595D01*
X164605372Y-118504593D01*
X164594566Y-118498652D01*
X164578047Y-118487801D01*
X164577583Y-118487441D01*
X164562041Y-118475386D01*
X164554772Y-118472241D01*
X164554768Y-118472238D01*
X164521463Y-118457826D01*
X164510813Y-118452609D01*
X164472060Y-118431305D01*
X164452437Y-118426267D01*
X164433734Y-118419863D01*
X164422420Y-118414967D01*
X164422419Y-118414967D01*
X164415145Y-118411819D01*
X164407322Y-118410580D01*
X164407312Y-118410577D01*
X164371476Y-118404901D01*
X164359856Y-118402495D01*
X164324711Y-118393472D01*
X164324710Y-118393472D01*
X164317030Y-118391500D01*
X164296776Y-118391500D01*
X164277065Y-118389949D01*
X164264886Y-118388020D01*
X164257057Y-118386780D01*
X164249165Y-118387526D01*
X164213039Y-118390941D01*
X164201181Y-118391500D01*
X162263500Y-118391500D01*
X162195379Y-118371498D01*
X162148886Y-118317842D01*
X162137500Y-118265501D01*
X162137499Y-118105332D01*
X162137130Y-118098523D01*
X162133338Y-118063603D01*
X162133339Y-118036393D01*
X162137131Y-118001488D01*
X162137500Y-117994671D01*
X162137500Y-117968115D01*
X162133025Y-117952876D01*
X162131635Y-117951671D01*
X162123952Y-117950000D01*
X161135115Y-117950000D01*
X161119876Y-117954475D01*
X161118671Y-117955865D01*
X161117000Y-117963548D01*
X161117000Y-118165500D01*
X161096998Y-118233621D01*
X161043342Y-118280114D01*
X160991000Y-118291500D01*
X160793000Y-118291500D01*
X160724879Y-118271498D01*
X160678386Y-118217842D01*
X160667000Y-118165500D01*
X160667000Y-117968115D01*
X160662525Y-117952876D01*
X160661135Y-117951671D01*
X160653452Y-117950000D01*
X159664616Y-117950000D01*
X159649377Y-117954475D01*
X159648172Y-117955865D01*
X159646501Y-117963548D01*
X159646501Y-117994669D01*
X159646871Y-118001493D01*
X159650661Y-118036393D01*
X159650661Y-118063603D01*
X159646869Y-118098510D01*
X159646500Y-118105328D01*
X159646501Y-118265499D01*
X159626499Y-118333620D01*
X159572844Y-118380113D01*
X159520501Y-118391500D01*
X159344595Y-118391500D01*
X159276474Y-118371498D01*
X159255500Y-118354595D01*
X159135405Y-118234500D01*
X159101379Y-118172188D01*
X159098500Y-118145405D01*
X159098499Y-117856249D01*
X159098499Y-117853366D01*
X159091753Y-117779938D01*
X159089754Y-117773559D01*
X159042744Y-117623550D01*
X159042743Y-117623548D01*
X159040472Y-117616301D01*
X158959067Y-117481885D01*
X159646500Y-117481885D01*
X159650975Y-117497124D01*
X159652365Y-117498329D01*
X159660048Y-117500000D01*
X160648885Y-117500000D01*
X160664124Y-117495525D01*
X160665329Y-117494135D01*
X160667000Y-117486452D01*
X160667000Y-117481885D01*
X161117000Y-117481885D01*
X161121475Y-117497124D01*
X161122865Y-117498329D01*
X161130548Y-117500000D01*
X162119384Y-117500000D01*
X162134623Y-117495525D01*
X162135828Y-117494135D01*
X162137499Y-117486452D01*
X162137499Y-117455331D01*
X162137130Y-117448525D01*
X162133338Y-117413605D01*
X162133339Y-117386394D01*
X162137131Y-117351488D01*
X162137500Y-117344671D01*
X162137500Y-117318115D01*
X162133025Y-117302876D01*
X162131635Y-117301671D01*
X162123952Y-117300000D01*
X161135115Y-117300000D01*
X161119876Y-117304475D01*
X161118671Y-117305865D01*
X161117000Y-117313548D01*
X161117000Y-117481885D01*
X160667000Y-117481885D01*
X160667000Y-117318115D01*
X160662525Y-117302876D01*
X160661135Y-117301671D01*
X160653452Y-117300000D01*
X159664616Y-117300000D01*
X159649377Y-117304475D01*
X159648172Y-117305865D01*
X159646501Y-117313548D01*
X159646501Y-117344669D01*
X159646871Y-117351493D01*
X159650661Y-117386393D01*
X159650661Y-117413603D01*
X159646869Y-117448510D01*
X159646500Y-117455329D01*
X159646500Y-117481885D01*
X158959067Y-117481885D01*
X158951639Y-117469619D01*
X158855761Y-117373741D01*
X158821735Y-117311429D01*
X158826800Y-117240614D01*
X158855761Y-117195551D01*
X158945869Y-117105443D01*
X158955176Y-117093574D01*
X159036079Y-116959988D01*
X159042285Y-116946243D01*
X159078122Y-116831885D01*
X159646500Y-116831885D01*
X159650975Y-116847124D01*
X159652365Y-116848329D01*
X159660048Y-116850000D01*
X160648885Y-116850000D01*
X160664124Y-116845525D01*
X160665329Y-116844135D01*
X160667000Y-116836452D01*
X160667000Y-116831885D01*
X161117000Y-116831885D01*
X161121475Y-116847124D01*
X161122865Y-116848329D01*
X161130548Y-116850000D01*
X162119384Y-116850000D01*
X162134623Y-116845525D01*
X162135828Y-116844135D01*
X162137499Y-116836452D01*
X162137499Y-116805331D01*
X162137129Y-116798510D01*
X162131605Y-116747648D01*
X162127979Y-116732396D01*
X162082824Y-116611946D01*
X162074286Y-116596351D01*
X161997785Y-116494276D01*
X161985224Y-116481715D01*
X161883149Y-116405214D01*
X161867554Y-116396676D01*
X161747106Y-116351522D01*
X161731851Y-116347895D01*
X161680986Y-116342369D01*
X161674172Y-116342000D01*
X161135115Y-116342000D01*
X161119876Y-116346475D01*
X161118671Y-116347865D01*
X161117000Y-116355548D01*
X161117000Y-116831885D01*
X160667000Y-116831885D01*
X160667000Y-116360116D01*
X160662525Y-116344877D01*
X160661135Y-116343672D01*
X160653452Y-116342001D01*
X160109831Y-116342001D01*
X160103010Y-116342371D01*
X160052148Y-116347895D01*
X160036896Y-116351521D01*
X159916446Y-116396676D01*
X159900851Y-116405214D01*
X159798776Y-116481715D01*
X159786215Y-116494276D01*
X159709714Y-116596351D01*
X159701176Y-116611946D01*
X159656022Y-116732394D01*
X159652395Y-116747649D01*
X159646869Y-116798514D01*
X159646500Y-116805328D01*
X159646500Y-116831885D01*
X159078122Y-116831885D01*
X159089256Y-116796356D01*
X159091869Y-116783306D01*
X159096913Y-116728414D01*
X159093525Y-116716876D01*
X159092135Y-116715671D01*
X159084452Y-116714000D01*
X156082715Y-116714000D01*
X156058548Y-116721096D01*
X156023050Y-116726200D01*
X146456716Y-116726200D01*
X146441477Y-116730675D01*
X146440272Y-116732065D01*
X146439309Y-116736494D01*
X146444732Y-116795515D01*
X146447343Y-116808551D01*
X146494315Y-116958443D01*
X146500521Y-116972188D01*
X146581424Y-117105774D01*
X146590731Y-117117643D01*
X146680839Y-117207751D01*
X146714865Y-117270063D01*
X146709800Y-117340878D01*
X146680839Y-117385941D01*
X146584961Y-117481819D01*
X146496128Y-117628501D01*
X146444847Y-117792138D01*
X146438100Y-117865565D01*
X146438101Y-118378834D01*
X146438364Y-118381692D01*
X146438364Y-118381701D01*
X146440496Y-118404901D01*
X146444847Y-118452262D01*
X146446846Y-118458640D01*
X146446846Y-118458641D01*
X146481731Y-118569957D01*
X146496128Y-118615899D01*
X146584961Y-118762581D01*
X146706219Y-118883839D01*
X146852901Y-118972672D01*
X146860148Y-118974943D01*
X146860150Y-118974944D01*
X146880758Y-118981402D01*
X147016538Y-119023953D01*
X147089965Y-119030700D01*
X147108074Y-119030700D01*
X147382006Y-119030699D01*
X147450125Y-119050701D01*
X147471100Y-119067604D01*
X149300363Y-120896867D01*
X149334389Y-120959179D01*
X149329324Y-121029994D01*
X149286777Y-121086830D01*
X149262517Y-121101069D01*
X149206078Y-121126197D01*
X149206076Y-121126198D01*
X149200048Y-121128882D01*
X149045547Y-121241134D01*
X149039711Y-121247616D01*
X149038664Y-121248261D01*
X149036223Y-121250459D01*
X149035821Y-121250012D01*
X148979264Y-121284854D01*
X148962980Y-121287299D01*
X148963065Y-121287838D01*
X148955237Y-121289078D01*
X148947310Y-121289327D01*
X148929944Y-121294372D01*
X148927858Y-121294978D01*
X148908506Y-121298986D01*
X148896268Y-121300532D01*
X148896266Y-121300533D01*
X148888403Y-121301526D01*
X148847286Y-121317806D01*
X148836085Y-121321641D01*
X148793606Y-121333982D01*
X148786787Y-121338015D01*
X148786782Y-121338017D01*
X148776171Y-121344293D01*
X148758421Y-121352990D01*
X148739583Y-121360448D01*
X148733167Y-121365109D01*
X148733166Y-121365110D01*
X148703825Y-121386428D01*
X148693901Y-121392947D01*
X148662660Y-121411422D01*
X148662655Y-121411426D01*
X148655837Y-121415458D01*
X148641513Y-121429782D01*
X148626481Y-121442621D01*
X148610093Y-121454528D01*
X148581912Y-121488593D01*
X148573922Y-121497373D01*
X132873600Y-137197695D01*
X132811288Y-137231721D01*
X132784505Y-137234600D01*
X131900966Y-137234600D01*
X131838784Y-137241355D01*
X131702395Y-137292485D01*
X131585839Y-137379839D01*
X131584913Y-137381074D01*
X131525883Y-137413308D01*
X131455068Y-137408243D01*
X131413745Y-137381686D01*
X131412361Y-137379839D01*
X131295805Y-137292485D01*
X131159416Y-137241355D01*
X131097234Y-137234600D01*
X129900966Y-137234600D01*
X129838784Y-137241355D01*
X129702395Y-137292485D01*
X129585839Y-137379839D01*
X129584913Y-137381074D01*
X129525883Y-137413308D01*
X129455068Y-137408243D01*
X129413745Y-137381686D01*
X129412361Y-137379839D01*
X129295805Y-137292485D01*
X129159416Y-137241355D01*
X129097234Y-137234600D01*
X127900966Y-137234600D01*
X127838784Y-137241355D01*
X127702395Y-137292485D01*
X127585839Y-137379839D01*
X127498485Y-137496395D01*
X127447355Y-137632784D01*
X127440600Y-137694966D01*
X127440600Y-139241234D01*
X127447355Y-139303416D01*
X127498485Y-139439805D01*
X127585839Y-139556361D01*
X127702395Y-139643715D01*
X127710803Y-139646867D01*
X127783830Y-139674244D01*
X127840594Y-139716886D01*
X127865294Y-139783448D01*
X127865600Y-139792226D01*
X127865600Y-142085533D01*
X127865073Y-142096716D01*
X127863398Y-142104209D01*
X127863647Y-142112135D01*
X127863647Y-142112136D01*
X127865538Y-142172286D01*
X127865600Y-142176245D01*
X127865600Y-142204156D01*
X127866097Y-142208090D01*
X127866097Y-142208091D01*
X127866105Y-142208156D01*
X127867038Y-142219993D01*
X127868427Y-142264189D01*
X127871675Y-142275368D01*
X127874078Y-142283639D01*
X127878087Y-142303000D01*
X127880626Y-142323097D01*
X127883545Y-142330468D01*
X127883545Y-142330470D01*
X127896904Y-142364212D01*
X127900749Y-142375442D01*
X127902769Y-142382395D01*
X127913082Y-142417893D01*
X127917115Y-142424712D01*
X127917117Y-142424717D01*
X127923393Y-142435328D01*
X127932088Y-142453076D01*
X127939548Y-142471917D01*
X127944210Y-142478333D01*
X127944210Y-142478334D01*
X127965536Y-142507687D01*
X127972052Y-142517607D01*
X127982920Y-142535983D01*
X127994558Y-142555662D01*
X128008879Y-142569983D01*
X128021719Y-142585016D01*
X128033628Y-142601407D01*
X128039734Y-142606458D01*
X128067705Y-142629598D01*
X128076484Y-142637588D01*
X128209195Y-142770299D01*
X128243221Y-142832611D01*
X128246100Y-142859394D01*
X128246100Y-143532806D01*
X128226098Y-143600927D01*
X128209195Y-143621901D01*
X127002695Y-144828401D01*
X126940383Y-144862427D01*
X126869568Y-144857362D01*
X126812732Y-144814815D01*
X126787921Y-144748295D01*
X126787600Y-144739306D01*
X126787600Y-142944966D01*
X126780845Y-142882784D01*
X126729715Y-142746395D01*
X126642361Y-142629839D01*
X126525805Y-142542485D01*
X126389416Y-142491355D01*
X126327234Y-142484600D01*
X124880966Y-142484600D01*
X124818784Y-142491355D01*
X124682395Y-142542485D01*
X124565839Y-142629839D01*
X124478485Y-142746395D01*
X124427355Y-142882784D01*
X124420600Y-142944966D01*
X124420600Y-145941234D01*
X124427355Y-146003416D01*
X124478485Y-146139805D01*
X124565839Y-146256361D01*
X124682395Y-146343715D01*
X124818784Y-146394845D01*
X124880966Y-146401600D01*
X125125305Y-146401600D01*
X125193426Y-146421602D01*
X125239919Y-146475258D01*
X125250023Y-146545532D01*
X125220529Y-146610112D01*
X125214400Y-146616695D01*
X123149500Y-148681595D01*
X123087188Y-148715621D01*
X123060405Y-148718500D01*
X122236965Y-148718500D01*
X122168844Y-148698498D01*
X122131173Y-148660940D01*
X122007417Y-148469642D01*
X122007412Y-148469636D01*
X122004606Y-148465298D01*
X121844324Y-148289150D01*
X121840273Y-148285951D01*
X121840269Y-148285947D01*
X121661478Y-148144747D01*
X121661473Y-148144744D01*
X121657424Y-148141546D01*
X121652908Y-148139053D01*
X121652905Y-148139051D01*
X121453450Y-148028946D01*
X121453446Y-148028944D01*
X121448926Y-148026449D01*
X121444057Y-148024725D01*
X121444053Y-148024723D01*
X121229305Y-147948676D01*
X121229301Y-147948675D01*
X121224430Y-147946950D01*
X121219340Y-147946043D01*
X121219335Y-147946042D01*
X121054430Y-147916669D01*
X120989964Y-147905186D01*
X120900837Y-147904097D01*
X120756995Y-147902339D01*
X120756993Y-147902339D01*
X120751825Y-147902276D01*
X120516409Y-147938300D01*
X120290038Y-148012289D01*
X120078790Y-148122258D01*
X120074657Y-148125361D01*
X120074654Y-148125363D01*
X119892475Y-148262147D01*
X119888340Y-148265252D01*
X119868564Y-148285947D01*
X119747105Y-148413046D01*
X119685581Y-148448476D01*
X119614668Y-148445019D01*
X119556882Y-148403773D01*
X119550219Y-148394435D01*
X119467417Y-148266442D01*
X119467412Y-148266436D01*
X119464606Y-148262098D01*
X119304324Y-148085950D01*
X119300273Y-148082751D01*
X119300269Y-148082747D01*
X119121478Y-147941547D01*
X119121473Y-147941544D01*
X119117424Y-147938346D01*
X119112908Y-147935853D01*
X119112905Y-147935851D01*
X118913450Y-147825746D01*
X118913446Y-147825744D01*
X118908926Y-147823249D01*
X118904057Y-147821525D01*
X118904053Y-147821523D01*
X118689305Y-147745476D01*
X118689301Y-147745475D01*
X118684430Y-147743750D01*
X118679340Y-147742843D01*
X118679335Y-147742842D01*
X118552014Y-147720164D01*
X118449964Y-147701986D01*
X118360837Y-147700897D01*
X118216995Y-147699139D01*
X118216993Y-147699139D01*
X118211825Y-147699076D01*
X117976409Y-147735100D01*
X117750038Y-147809089D01*
X117538790Y-147919058D01*
X117534657Y-147922161D01*
X117534654Y-147922163D01*
X117392433Y-148028946D01*
X117348340Y-148062052D01*
X117183802Y-148234231D01*
X117049594Y-148430972D01*
X116949322Y-148646991D01*
X116885677Y-148876485D01*
X116860370Y-149113294D01*
X114338600Y-149113294D01*
X114338600Y-134539723D01*
X114338602Y-134538953D01*
X114338839Y-134500137D01*
X114339076Y-134461379D01*
X114330950Y-134432947D01*
X114327372Y-134416185D01*
X114324906Y-134398968D01*
X114323180Y-134386913D01*
X114312551Y-134363536D01*
X114306104Y-134346013D01*
X114301516Y-134329962D01*
X114299049Y-134321329D01*
X114290508Y-134307792D01*
X114283270Y-134296320D01*
X114275130Y-134281235D01*
X114274055Y-134278871D01*
X114262892Y-134254318D01*
X114246130Y-134234865D01*
X114235027Y-134219861D01*
X114221324Y-134198142D01*
X114214599Y-134192203D01*
X114214596Y-134192199D01*
X114199162Y-134178568D01*
X114187118Y-134166376D01*
X114173673Y-134150773D01*
X114173670Y-134150771D01*
X114167813Y-134143973D01*
X114146265Y-134130006D01*
X114131391Y-134118715D01*
X114118883Y-134107669D01*
X114118882Y-134107668D01*
X114112149Y-134101722D01*
X114085387Y-134089157D01*
X114070409Y-134080837D01*
X114053117Y-134069629D01*
X114053112Y-134069627D01*
X114045585Y-134064748D01*
X114036992Y-134062178D01*
X114036987Y-134062176D01*
X114020980Y-134057389D01*
X114003536Y-134050728D01*
X113988424Y-134043633D01*
X113988422Y-134043632D01*
X113980300Y-134039819D01*
X113971433Y-134038438D01*
X113971432Y-134038438D01*
X113961790Y-134036937D01*
X113951083Y-134035270D01*
X113934368Y-134031487D01*
X113914634Y-134025585D01*
X113914628Y-134025584D01*
X113906034Y-134023014D01*
X113897063Y-134022959D01*
X113897062Y-134022959D01*
X113887003Y-134022898D01*
X113871594Y-134022804D01*
X113870811Y-134022771D01*
X113869714Y-134022600D01*
X113838723Y-134022600D01*
X113837953Y-134022598D01*
X113764315Y-134022148D01*
X113764314Y-134022148D01*
X113760379Y-134022124D01*
X113759035Y-134022508D01*
X113757690Y-134022600D01*
X104317300Y-134022600D01*
X104249179Y-134002598D01*
X104202686Y-133948942D01*
X104191300Y-133896600D01*
X104191300Y-118226894D01*
X136138970Y-118226894D01*
X136139267Y-118232046D01*
X136139267Y-118232050D01*
X136148429Y-118390941D01*
X136152679Y-118464655D01*
X136153816Y-118469701D01*
X136153817Y-118469707D01*
X136179085Y-118581826D01*
X136205037Y-118696985D01*
X136206979Y-118701767D01*
X136206980Y-118701771D01*
X136255150Y-118820400D01*
X136294637Y-118917644D01*
X136419074Y-119120706D01*
X136575004Y-119300717D01*
X136688613Y-119395037D01*
X136747335Y-119443789D01*
X136786970Y-119502692D01*
X136788468Y-119573672D01*
X136768687Y-119614329D01*
X136775626Y-119627015D01*
X136974275Y-119825664D01*
X137008301Y-119887976D01*
X137003236Y-119958791D01*
X136964132Y-120012955D01*
X136938950Y-120033202D01*
X136882775Y-120078368D01*
X136800419Y-120176516D01*
X136741313Y-120215840D01*
X136670326Y-120216966D01*
X136614806Y-120184617D01*
X136417024Y-119986835D01*
X136405488Y-119980535D01*
X136393206Y-119990158D01*
X136331547Y-120080546D01*
X136326454Y-120089510D01*
X136230568Y-120296079D01*
X136227011Y-120305747D01*
X136166152Y-120525197D01*
X136164221Y-120535316D01*
X136140021Y-120761773D01*
X136139769Y-120772062D01*
X136152878Y-120999417D01*
X136154314Y-121009637D01*
X136204380Y-121231793D01*
X136207459Y-121241621D01*
X136293138Y-121452623D01*
X136297791Y-121461834D01*
X136392953Y-121617123D01*
X136403411Y-121626585D01*
X136412187Y-121622802D01*
X136615072Y-121419918D01*
X136677384Y-121385893D01*
X136748200Y-121390958D01*
X136802913Y-121430750D01*
X136821759Y-121454528D01*
X136862835Y-121506353D01*
X136966420Y-121594510D01*
X137005332Y-121653891D01*
X137005963Y-121724885D01*
X136973852Y-121779558D01*
X136772883Y-121980528D01*
X136766126Y-121992903D01*
X136771407Y-121999958D01*
X136959621Y-122109941D01*
X136968908Y-122114391D01*
X137181661Y-122195633D01*
X137191563Y-122198510D01*
X137414711Y-122243910D01*
X137424963Y-122245133D01*
X137652538Y-122253477D01*
X137662824Y-122253010D01*
X137888715Y-122224073D01*
X137898801Y-122221930D01*
X138116928Y-122156488D01*
X138126523Y-122152728D01*
X138331037Y-122052537D01*
X138339883Y-122047263D01*
X138405431Y-122000508D01*
X138413832Y-121989808D01*
X138406844Y-121976655D01*
X138209349Y-121779160D01*
X138175323Y-121716848D01*
X138180388Y-121646033D01*
X138220871Y-121590776D01*
X138285791Y-121540055D01*
X138290647Y-121536261D01*
X138384688Y-121427313D01*
X138444338Y-121388818D01*
X138515335Y-121388682D01*
X138569162Y-121420551D01*
X138766622Y-121618011D01*
X138778632Y-121624569D01*
X138790372Y-121615601D01*
X138834041Y-121554829D01*
X138839351Y-121545992D01*
X138940250Y-121341838D01*
X138944049Y-121332243D01*
X139010249Y-121114357D01*
X139012428Y-121104276D01*
X139042391Y-120876688D01*
X139042910Y-120870015D01*
X139044480Y-120805765D01*
X139044286Y-120799046D01*
X139025479Y-120570287D01*
X139023794Y-120560107D01*
X138968315Y-120339237D01*
X138964995Y-120329486D01*
X138874184Y-120120633D01*
X138869318Y-120111558D01*
X138789808Y-119988656D01*
X138779122Y-119979452D01*
X138769553Y-119983857D01*
X138568583Y-120184827D01*
X138506271Y-120218853D01*
X138435456Y-120213788D01*
X138381845Y-120175368D01*
X138314760Y-120093113D01*
X138314757Y-120093110D01*
X138310865Y-120088338D01*
X138298814Y-120078368D01*
X138281599Y-120064127D01*
X138218237Y-120011709D01*
X138178500Y-119952878D01*
X138176877Y-119881900D01*
X138209458Y-119825531D01*
X138409127Y-119625862D01*
X138416147Y-119613006D01*
X138414614Y-119610902D01*
X138390665Y-119544066D01*
X138406652Y-119474893D01*
X138443280Y-119434126D01*
X138529820Y-119372397D01*
X138698516Y-119204289D01*
X138837490Y-119010886D01*
X138858322Y-118968737D01*
X138940717Y-118802024D01*
X138940718Y-118802022D01*
X138943011Y-118797382D01*
X138996175Y-118622396D01*
X139010741Y-118574455D01*
X139010741Y-118574454D01*
X139012243Y-118569511D01*
X139022315Y-118493010D01*
X139042892Y-118336713D01*
X139042892Y-118336709D01*
X139043329Y-118333392D01*
X139043411Y-118330040D01*
X139044982Y-118265765D01*
X139044982Y-118265761D01*
X139045064Y-118262400D01*
X139025550Y-118025044D01*
X138967531Y-117794063D01*
X138895543Y-117628501D01*
X138874627Y-117580396D01*
X138874625Y-117580393D01*
X138872567Y-117575659D01*
X138864010Y-117562431D01*
X138752254Y-117389684D01*
X138743206Y-117375698D01*
X138729433Y-117360561D01*
X138648601Y-117271728D01*
X138582924Y-117199550D01*
X138578873Y-117196351D01*
X138578869Y-117196347D01*
X138499759Y-117133870D01*
X138445147Y-117090741D01*
X138404085Y-117032825D01*
X138400853Y-116961902D01*
X138436478Y-116900491D01*
X138450071Y-116889282D01*
X138525614Y-116835398D01*
X138525621Y-116835392D01*
X138529820Y-116832397D01*
X138698516Y-116664289D01*
X138712035Y-116645476D01*
X138774770Y-116558170D01*
X138837490Y-116470886D01*
X138869948Y-116405214D01*
X138940717Y-116262024D01*
X138940718Y-116262022D01*
X138943011Y-116257382D01*
X138959295Y-116203786D01*
X146439687Y-116203786D01*
X146443075Y-116215324D01*
X146444465Y-116216529D01*
X146452148Y-116218200D01*
X147149485Y-116218200D01*
X147164724Y-116213725D01*
X147165929Y-116212335D01*
X147167600Y-116204652D01*
X147167600Y-116200085D01*
X147675600Y-116200085D01*
X147680075Y-116215324D01*
X147681465Y-116216529D01*
X147689148Y-116218200D01*
X148673485Y-116218200D01*
X148688724Y-116213725D01*
X148689929Y-116212335D01*
X148691600Y-116204652D01*
X148691600Y-116200085D01*
X149199600Y-116200085D01*
X149204075Y-116215324D01*
X149205465Y-116216529D01*
X149213148Y-116218200D01*
X150197485Y-116218200D01*
X150212724Y-116213725D01*
X150213929Y-116212335D01*
X150215600Y-116204652D01*
X150215600Y-116200085D01*
X150723600Y-116200085D01*
X150728075Y-116215324D01*
X150729465Y-116216529D01*
X150737148Y-116218200D01*
X151721485Y-116218200D01*
X151736724Y-116213725D01*
X151737929Y-116212335D01*
X151739600Y-116204652D01*
X151739600Y-116200085D01*
X152247600Y-116200085D01*
X152252075Y-116215324D01*
X152253465Y-116216529D01*
X152261148Y-116218200D01*
X153245485Y-116218200D01*
X153260724Y-116213725D01*
X153261929Y-116212335D01*
X153263600Y-116204652D01*
X153263600Y-116200085D01*
X153771600Y-116200085D01*
X153776075Y-116215324D01*
X153777465Y-116216529D01*
X153785148Y-116218200D01*
X154769485Y-116218200D01*
X154784724Y-116213725D01*
X154785929Y-116212335D01*
X154787600Y-116204652D01*
X154787600Y-116200085D01*
X155295600Y-116200085D01*
X155300075Y-116215324D01*
X155301465Y-116216529D01*
X155309148Y-116218200D01*
X155549885Y-116218200D01*
X155574052Y-116211104D01*
X155609550Y-116206000D01*
X156318885Y-116206000D01*
X156334124Y-116201525D01*
X156335329Y-116200135D01*
X156337000Y-116192452D01*
X156337000Y-116187885D01*
X156845000Y-116187885D01*
X156849475Y-116203124D01*
X156850865Y-116204329D01*
X156858548Y-116206000D01*
X157842885Y-116206000D01*
X157858124Y-116201525D01*
X157859329Y-116200135D01*
X157861000Y-116192452D01*
X157861000Y-116187885D01*
X158369000Y-116187885D01*
X158373475Y-116203124D01*
X158374865Y-116204329D01*
X158382548Y-116206000D01*
X159079884Y-116206000D01*
X159095123Y-116201525D01*
X159096328Y-116200135D01*
X159097291Y-116195706D01*
X159091868Y-116136685D01*
X159089257Y-116123649D01*
X159042285Y-115973757D01*
X159036079Y-115960012D01*
X158955176Y-115826426D01*
X158945869Y-115814557D01*
X158835443Y-115704131D01*
X158823574Y-115694824D01*
X158689988Y-115613921D01*
X158676243Y-115607715D01*
X158526356Y-115560744D01*
X158513306Y-115558131D01*
X158449479Y-115552266D01*
X158443691Y-115552000D01*
X158387115Y-115552000D01*
X158371876Y-115556475D01*
X158370671Y-115557865D01*
X158369000Y-115565548D01*
X158369000Y-116187885D01*
X157861000Y-116187885D01*
X157861000Y-115570116D01*
X157856525Y-115554877D01*
X157855135Y-115553672D01*
X157847452Y-115552001D01*
X157786295Y-115552001D01*
X157780546Y-115552264D01*
X157716685Y-115558132D01*
X157703649Y-115560743D01*
X157553757Y-115607715D01*
X157540012Y-115613921D01*
X157418272Y-115687650D01*
X157349642Y-115705829D01*
X157287728Y-115687650D01*
X157165988Y-115613921D01*
X157152243Y-115607715D01*
X157002356Y-115560744D01*
X156989306Y-115558131D01*
X156925479Y-115552266D01*
X156919691Y-115552000D01*
X156863115Y-115552000D01*
X156847876Y-115556475D01*
X156846671Y-115557865D01*
X156845000Y-115565548D01*
X156845000Y-116187885D01*
X156337000Y-116187885D01*
X156337000Y-115570116D01*
X156332525Y-115554877D01*
X156331135Y-115553672D01*
X156323452Y-115552001D01*
X156262295Y-115552001D01*
X156256546Y-115552264D01*
X156192685Y-115558132D01*
X156179649Y-115560743D01*
X156029757Y-115607715D01*
X156016012Y-115613921D01*
X155875930Y-115698758D01*
X155874875Y-115697016D01*
X155818607Y-115719455D01*
X155748911Y-115705926D01*
X155741525Y-115701786D01*
X155616588Y-115626121D01*
X155602843Y-115619915D01*
X155452956Y-115572944D01*
X155439906Y-115570331D01*
X155376079Y-115564466D01*
X155370291Y-115564200D01*
X155313715Y-115564200D01*
X155298476Y-115568675D01*
X155297271Y-115570065D01*
X155295600Y-115577748D01*
X155295600Y-116200085D01*
X154787600Y-116200085D01*
X154787600Y-115582316D01*
X154783125Y-115567077D01*
X154781735Y-115565872D01*
X154774052Y-115564201D01*
X154712895Y-115564201D01*
X154707146Y-115564464D01*
X154643285Y-115570332D01*
X154630249Y-115572943D01*
X154480357Y-115619915D01*
X154466612Y-115626121D01*
X154344872Y-115699850D01*
X154276242Y-115718029D01*
X154214328Y-115699850D01*
X154092588Y-115626121D01*
X154078843Y-115619915D01*
X153928956Y-115572944D01*
X153915906Y-115570331D01*
X153852079Y-115564466D01*
X153846291Y-115564200D01*
X153789715Y-115564200D01*
X153774476Y-115568675D01*
X153773271Y-115570065D01*
X153771600Y-115577748D01*
X153771600Y-116200085D01*
X153263600Y-116200085D01*
X153263600Y-115582316D01*
X153259125Y-115567077D01*
X153257735Y-115565872D01*
X153250052Y-115564201D01*
X153188895Y-115564201D01*
X153183146Y-115564464D01*
X153119285Y-115570332D01*
X153106249Y-115572943D01*
X152956357Y-115619915D01*
X152942612Y-115626121D01*
X152820872Y-115699850D01*
X152752242Y-115718029D01*
X152690328Y-115699850D01*
X152568588Y-115626121D01*
X152554843Y-115619915D01*
X152404956Y-115572944D01*
X152391906Y-115570331D01*
X152328079Y-115564466D01*
X152322291Y-115564200D01*
X152265715Y-115564200D01*
X152250476Y-115568675D01*
X152249271Y-115570065D01*
X152247600Y-115577748D01*
X152247600Y-116200085D01*
X151739600Y-116200085D01*
X151739600Y-115582316D01*
X151735125Y-115567077D01*
X151733735Y-115565872D01*
X151726052Y-115564201D01*
X151664895Y-115564201D01*
X151659146Y-115564464D01*
X151595285Y-115570332D01*
X151582249Y-115572943D01*
X151432357Y-115619915D01*
X151418612Y-115626121D01*
X151296872Y-115699850D01*
X151228242Y-115718029D01*
X151166328Y-115699850D01*
X151044588Y-115626121D01*
X151030843Y-115619915D01*
X150880956Y-115572944D01*
X150867906Y-115570331D01*
X150804079Y-115564466D01*
X150798291Y-115564200D01*
X150741715Y-115564200D01*
X150726476Y-115568675D01*
X150725271Y-115570065D01*
X150723600Y-115577748D01*
X150723600Y-116200085D01*
X150215600Y-116200085D01*
X150215600Y-115582316D01*
X150211125Y-115567077D01*
X150209735Y-115565872D01*
X150202052Y-115564201D01*
X150140895Y-115564201D01*
X150135146Y-115564464D01*
X150071285Y-115570332D01*
X150058249Y-115572943D01*
X149908357Y-115619915D01*
X149894612Y-115626121D01*
X149772872Y-115699850D01*
X149704242Y-115718029D01*
X149642328Y-115699850D01*
X149520588Y-115626121D01*
X149506843Y-115619915D01*
X149356956Y-115572944D01*
X149343906Y-115570331D01*
X149280079Y-115564466D01*
X149274291Y-115564200D01*
X149217715Y-115564200D01*
X149202476Y-115568675D01*
X149201271Y-115570065D01*
X149199600Y-115577748D01*
X149199600Y-116200085D01*
X148691600Y-116200085D01*
X148691600Y-115582316D01*
X148687125Y-115567077D01*
X148685735Y-115565872D01*
X148678052Y-115564201D01*
X148616895Y-115564201D01*
X148611146Y-115564464D01*
X148547285Y-115570332D01*
X148534249Y-115572943D01*
X148384357Y-115619915D01*
X148370612Y-115626121D01*
X148248872Y-115699850D01*
X148180242Y-115718029D01*
X148118328Y-115699850D01*
X147996588Y-115626121D01*
X147982843Y-115619915D01*
X147832956Y-115572944D01*
X147819906Y-115570331D01*
X147756079Y-115564466D01*
X147750291Y-115564200D01*
X147693715Y-115564200D01*
X147678476Y-115568675D01*
X147677271Y-115570065D01*
X147675600Y-115577748D01*
X147675600Y-116200085D01*
X147167600Y-116200085D01*
X147167600Y-115582316D01*
X147163125Y-115567077D01*
X147161735Y-115565872D01*
X147154052Y-115564201D01*
X147092895Y-115564201D01*
X147087146Y-115564464D01*
X147023285Y-115570332D01*
X147010249Y-115572943D01*
X146860357Y-115619915D01*
X146846612Y-115626121D01*
X146713026Y-115707024D01*
X146701157Y-115716331D01*
X146590731Y-115826757D01*
X146581424Y-115838626D01*
X146500521Y-115972212D01*
X146494315Y-115985957D01*
X146447344Y-116135844D01*
X146444731Y-116148894D01*
X146439687Y-116203786D01*
X138959295Y-116203786D01*
X139012243Y-116029511D01*
X139025059Y-115932166D01*
X139042892Y-115796713D01*
X139042892Y-115796709D01*
X139043329Y-115793392D01*
X139045064Y-115722400D01*
X139025550Y-115485044D01*
X138967531Y-115254063D01*
X138886875Y-115068565D01*
X138874627Y-115040396D01*
X138874625Y-115040393D01*
X138872567Y-115035659D01*
X138855494Y-115009267D01*
X138746016Y-114840042D01*
X138743206Y-114835698D01*
X138582924Y-114659550D01*
X138578873Y-114656351D01*
X138578869Y-114656347D01*
X138445148Y-114550742D01*
X138404085Y-114492825D01*
X138400853Y-114421902D01*
X138436478Y-114360491D01*
X138450071Y-114349282D01*
X138525614Y-114295398D01*
X138525621Y-114295392D01*
X138529820Y-114292397D01*
X138698516Y-114124289D01*
X138837490Y-113930886D01*
X138851387Y-113902769D01*
X138940717Y-113722024D01*
X138940718Y-113722022D01*
X138943011Y-113717382D01*
X139012243Y-113489511D01*
X139027660Y-113372408D01*
X139042892Y-113256713D01*
X139042892Y-113256709D01*
X139043329Y-113253392D01*
X139043592Y-113242645D01*
X139044982Y-113185765D01*
X139044982Y-113185761D01*
X139045064Y-113182400D01*
X139025550Y-112945044D01*
X138967531Y-112714063D01*
X138872567Y-112495659D01*
X138855494Y-112469267D01*
X138746921Y-112301441D01*
X138743206Y-112295698D01*
X138582924Y-112119550D01*
X138578873Y-112116351D01*
X138578869Y-112116347D01*
X138499759Y-112053870D01*
X138445147Y-112010741D01*
X138404085Y-111952825D01*
X138400853Y-111881902D01*
X138436478Y-111820491D01*
X138450071Y-111809282D01*
X138525614Y-111755398D01*
X138525621Y-111755392D01*
X138529820Y-111752397D01*
X138698516Y-111584289D01*
X138837490Y-111390886D01*
X138844357Y-111376993D01*
X138940717Y-111182024D01*
X138940718Y-111182022D01*
X138943011Y-111177382D01*
X139012243Y-110949511D01*
X139013458Y-110940285D01*
X139042892Y-110716713D01*
X139042892Y-110716709D01*
X139043329Y-110713392D01*
X139044059Y-110683529D01*
X139044982Y-110645765D01*
X139044982Y-110645761D01*
X139045064Y-110642400D01*
X139025550Y-110405044D01*
X138967531Y-110174063D01*
X138893736Y-110004345D01*
X138874627Y-109960396D01*
X138874625Y-109960393D01*
X138872567Y-109955659D01*
X138855494Y-109929267D01*
X138763042Y-109786360D01*
X138743206Y-109755698D01*
X138736052Y-109747835D01*
X138665516Y-109670318D01*
X138582924Y-109579550D01*
X138578873Y-109576351D01*
X138578869Y-109576347D01*
X138400078Y-109435147D01*
X138400073Y-109435144D01*
X138396024Y-109431946D01*
X138391508Y-109429453D01*
X138391505Y-109429451D01*
X138192050Y-109319346D01*
X138192046Y-109319344D01*
X138187526Y-109316849D01*
X138182657Y-109315125D01*
X138182653Y-109315123D01*
X137967905Y-109239076D01*
X137967901Y-109239075D01*
X137963030Y-109237350D01*
X137957940Y-109236443D01*
X137957935Y-109236442D01*
X137830614Y-109213764D01*
X137728564Y-109195586D01*
X137639437Y-109194497D01*
X137495595Y-109192739D01*
X137495593Y-109192739D01*
X137490425Y-109192676D01*
X137255009Y-109228700D01*
X137028638Y-109302689D01*
X136817390Y-109412658D01*
X136813257Y-109415761D01*
X136813254Y-109415763D01*
X136677346Y-109517806D01*
X136626940Y-109555652D01*
X136623368Y-109559390D01*
X136482116Y-109707202D01*
X136462402Y-109727831D01*
X136459488Y-109732103D01*
X136459487Y-109732104D01*
X136397301Y-109823265D01*
X136328194Y-109924572D01*
X136291165Y-110004345D01*
X136242662Y-110108837D01*
X136227922Y-110140591D01*
X136164277Y-110370085D01*
X136163728Y-110375219D01*
X136163728Y-110375221D01*
X136158468Y-110424445D01*
X136138970Y-110606894D01*
X136139267Y-110612046D01*
X136139267Y-110612050D01*
X136150853Y-110812992D01*
X136152679Y-110844655D01*
X136153816Y-110849701D01*
X136153817Y-110849707D01*
X136179227Y-110962459D01*
X136205037Y-111076985D01*
X136206979Y-111081767D01*
X136206980Y-111081771D01*
X136291091Y-111288911D01*
X136294637Y-111297644D01*
X136419074Y-111500706D01*
X136575004Y-111680717D01*
X136656402Y-111748295D01*
X136739360Y-111817168D01*
X136778995Y-111876071D01*
X136780493Y-111947051D01*
X136743378Y-112007574D01*
X136734528Y-112014872D01*
X136631075Y-112092547D01*
X136626940Y-112095652D01*
X136566429Y-112158973D01*
X136501194Y-112227238D01*
X136462402Y-112267831D01*
X136328194Y-112464572D01*
X136227922Y-112680591D01*
X136164277Y-112910085D01*
X136163728Y-112915219D01*
X136163728Y-112915221D01*
X136158249Y-112966489D01*
X136138970Y-113146894D01*
X136139267Y-113152046D01*
X136139267Y-113152050D01*
X136145302Y-113256713D01*
X136152679Y-113384655D01*
X136153816Y-113389701D01*
X136153817Y-113389707D01*
X136186911Y-113536556D01*
X136205037Y-113616985D01*
X136206979Y-113621767D01*
X136206980Y-113621771D01*
X136287221Y-113819380D01*
X136294637Y-113837644D01*
X136419074Y-114040706D01*
X136575004Y-114220717D01*
X136680667Y-114308440D01*
X136739360Y-114357168D01*
X136778995Y-114416071D01*
X136780493Y-114487051D01*
X136743378Y-114547574D01*
X136734528Y-114554872D01*
X136653584Y-114615647D01*
X136626940Y-114635652D01*
X136462402Y-114807831D01*
X136328194Y-115004572D01*
X136227922Y-115220591D01*
X136164277Y-115450085D01*
X136163728Y-115455219D01*
X136163728Y-115455221D01*
X136158727Y-115502015D01*
X136138970Y-115686894D01*
X136139267Y-115692046D01*
X136139267Y-115692050D01*
X136146331Y-115814557D01*
X136152679Y-115924655D01*
X136153816Y-115929701D01*
X136153817Y-115929707D01*
X136178255Y-116038144D01*
X136205037Y-116156985D01*
X136206979Y-116161767D01*
X136206980Y-116161771D01*
X136289833Y-116365813D01*
X136294637Y-116377644D01*
X136419074Y-116580706D01*
X136575004Y-116760717D01*
X136666229Y-116836453D01*
X136739360Y-116897168D01*
X136778995Y-116956071D01*
X136780493Y-117027051D01*
X136743378Y-117087574D01*
X136734528Y-117094872D01*
X136650354Y-117158072D01*
X136626940Y-117175652D01*
X136595792Y-117208247D01*
X136495164Y-117313548D01*
X136462402Y-117347831D01*
X136459488Y-117352103D01*
X136459487Y-117352104D01*
X136393751Y-117448469D01*
X136328194Y-117544572D01*
X136326015Y-117549267D01*
X136246970Y-117719556D01*
X136227922Y-117760591D01*
X136164277Y-117990085D01*
X136163728Y-117995219D01*
X136163728Y-117995221D01*
X136159931Y-118030749D01*
X136138970Y-118226894D01*
X104191300Y-118226894D01*
X104191300Y-104952800D01*
X131014096Y-104952800D01*
X131014786Y-104959365D01*
X131032305Y-105126045D01*
X131034058Y-105142728D01*
X131093073Y-105324356D01*
X131096376Y-105330078D01*
X131096377Y-105330079D01*
X131102831Y-105341257D01*
X131188560Y-105489744D01*
X131192978Y-105494651D01*
X131192979Y-105494652D01*
X131296448Y-105609566D01*
X131316347Y-105631666D01*
X131470848Y-105743918D01*
X131476876Y-105746602D01*
X131476878Y-105746603D01*
X131620181Y-105810405D01*
X131645312Y-105821594D01*
X131738712Y-105841447D01*
X131825656Y-105859928D01*
X131825661Y-105859928D01*
X131832113Y-105861300D01*
X132023087Y-105861300D01*
X132029539Y-105859928D01*
X132029544Y-105859928D01*
X132116487Y-105841447D01*
X132209888Y-105821594D01*
X132235019Y-105810405D01*
X132378322Y-105746603D01*
X132378324Y-105746602D01*
X132384352Y-105743918D01*
X132538853Y-105631666D01*
X132558752Y-105609566D01*
X132662221Y-105494652D01*
X132662222Y-105494651D01*
X132666640Y-105489744D01*
X132752369Y-105341257D01*
X132758823Y-105330079D01*
X132758824Y-105330078D01*
X132762127Y-105324356D01*
X132821142Y-105142728D01*
X132822896Y-105126045D01*
X132840414Y-104959365D01*
X132841104Y-104952800D01*
X132836311Y-104907194D01*
X132821832Y-104769435D01*
X132821832Y-104769433D01*
X132821142Y-104762872D01*
X132762127Y-104581244D01*
X132666640Y-104415856D01*
X132647046Y-104394094D01*
X132543275Y-104278845D01*
X132543274Y-104278844D01*
X132538853Y-104273934D01*
X132384352Y-104161682D01*
X132378324Y-104158998D01*
X132378322Y-104158997D01*
X132215919Y-104086691D01*
X132215918Y-104086691D01*
X132209888Y-104084006D01*
X132115594Y-104063963D01*
X132029544Y-104045672D01*
X132029539Y-104045672D01*
X132023087Y-104044300D01*
X131832113Y-104044300D01*
X131825661Y-104045672D01*
X131825656Y-104045672D01*
X131739606Y-104063963D01*
X131645312Y-104084006D01*
X131639282Y-104086691D01*
X131639281Y-104086691D01*
X131476878Y-104158997D01*
X131476876Y-104158998D01*
X131470848Y-104161682D01*
X131316347Y-104273934D01*
X131311926Y-104278844D01*
X131311925Y-104278845D01*
X131208155Y-104394094D01*
X131188560Y-104415856D01*
X131093073Y-104581244D01*
X131034058Y-104762872D01*
X131033368Y-104769433D01*
X131033368Y-104769435D01*
X131018889Y-104907194D01*
X131014096Y-104952800D01*
X104191300Y-104952800D01*
X104191300Y-93509600D01*
X104211302Y-93441479D01*
X104264958Y-93394986D01*
X104317300Y-93383600D01*
X192697600Y-93383600D01*
X192765721Y-93403602D01*
G37*
%TD.AperFunction*%
%TA.AperFunction,Conductor*%
G36*
X182309795Y-99015502D02*
G01*
X182356288Y-99069158D01*
X182359656Y-99077270D01*
X182390185Y-99158705D01*
X182477539Y-99275261D01*
X182478774Y-99276187D01*
X182511008Y-99335217D01*
X182505943Y-99406032D01*
X182479386Y-99447355D01*
X182477539Y-99448739D01*
X182390185Y-99565295D01*
X182387033Y-99573703D01*
X182359656Y-99646730D01*
X182317014Y-99703494D01*
X182250452Y-99728194D01*
X182241674Y-99728500D01*
X180691568Y-99728500D01*
X180680385Y-99727973D01*
X180672892Y-99726298D01*
X180664966Y-99726547D01*
X180664965Y-99726547D01*
X180604802Y-99728438D01*
X180600844Y-99728500D01*
X180572944Y-99728500D01*
X180568954Y-99729004D01*
X180557120Y-99729936D01*
X180512911Y-99731326D01*
X180505295Y-99733539D01*
X180505293Y-99733539D01*
X180493452Y-99736979D01*
X180474093Y-99740988D01*
X180472783Y-99741154D01*
X180454003Y-99743526D01*
X180446637Y-99746442D01*
X180446631Y-99746444D01*
X180412898Y-99759800D01*
X180401668Y-99763645D01*
X180389146Y-99767283D01*
X180359207Y-99775981D01*
X180352384Y-99780016D01*
X180341766Y-99786295D01*
X180324013Y-99794992D01*
X180316368Y-99798019D01*
X180305183Y-99802448D01*
X180298768Y-99807109D01*
X180269412Y-99828437D01*
X180259495Y-99834951D01*
X180221438Y-99857458D01*
X180207117Y-99871779D01*
X180192084Y-99884619D01*
X180175693Y-99896528D01*
X180170642Y-99902634D01*
X180147502Y-99930605D01*
X180139512Y-99939384D01*
X178205100Y-101873795D01*
X178142788Y-101907821D01*
X178116005Y-101910700D01*
X178060113Y-101910700D01*
X178053661Y-101912072D01*
X178053656Y-101912072D01*
X177980069Y-101927714D01*
X177873312Y-101950406D01*
X177867282Y-101953091D01*
X177867281Y-101953091D01*
X177704878Y-102025397D01*
X177704876Y-102025398D01*
X177698848Y-102028082D01*
X177544347Y-102140334D01*
X177539926Y-102145244D01*
X177539925Y-102145245D01*
X177427421Y-102270194D01*
X177416560Y-102282256D01*
X177321073Y-102447644D01*
X177262058Y-102629272D01*
X177261368Y-102635833D01*
X177261368Y-102635835D01*
X177247479Y-102767982D01*
X177242096Y-102819200D01*
X177242786Y-102825765D01*
X177260626Y-102995500D01*
X177262058Y-103009128D01*
X177321073Y-103190756D01*
X177416560Y-103356144D01*
X177420978Y-103361051D01*
X177420979Y-103361052D01*
X177475432Y-103421528D01*
X177544347Y-103498066D01*
X177626989Y-103558109D01*
X177688853Y-103603056D01*
X177698848Y-103610318D01*
X177704876Y-103613002D01*
X177704878Y-103613003D01*
X177867281Y-103685309D01*
X177873312Y-103687994D01*
X177966713Y-103707847D01*
X178053656Y-103726328D01*
X178053661Y-103726328D01*
X178060113Y-103727700D01*
X178251087Y-103727700D01*
X178257539Y-103726328D01*
X178257544Y-103726328D01*
X178344487Y-103707847D01*
X178437888Y-103687994D01*
X178443919Y-103685309D01*
X178606322Y-103613003D01*
X178606324Y-103613002D01*
X178612352Y-103610318D01*
X178622348Y-103603056D01*
X178684211Y-103558109D01*
X178766853Y-103498066D01*
X178835768Y-103421528D01*
X178890221Y-103361052D01*
X178890222Y-103361051D01*
X178894640Y-103356144D01*
X178990127Y-103190756D01*
X179049142Y-103009128D01*
X179050575Y-102995500D01*
X179066507Y-102843907D01*
X179093520Y-102778250D01*
X179102722Y-102767982D01*
X180186898Y-101683806D01*
X180210252Y-101671054D01*
X180216074Y-101656099D01*
X180226759Y-101643945D01*
X180838299Y-101032405D01*
X180900611Y-100998379D01*
X180927394Y-100995500D01*
X182241674Y-100995500D01*
X182309795Y-101015502D01*
X182356288Y-101069158D01*
X182359656Y-101077270D01*
X182390185Y-101158705D01*
X182477539Y-101275261D01*
X182478774Y-101276187D01*
X182511008Y-101335217D01*
X182505943Y-101406032D01*
X182479386Y-101447355D01*
X182477539Y-101448739D01*
X182390185Y-101565295D01*
X182387033Y-101573703D01*
X182359656Y-101646730D01*
X182317014Y-101703494D01*
X182250452Y-101728194D01*
X182241674Y-101728500D01*
X181495655Y-101728500D01*
X181444406Y-101717607D01*
X181288719Y-101648291D01*
X181288718Y-101648291D01*
X181282688Y-101645606D01*
X181182447Y-101624299D01*
X181102344Y-101607272D01*
X181102339Y-101607272D01*
X181095887Y-101605900D01*
X180904913Y-101605900D01*
X180898461Y-101607272D01*
X180898456Y-101607272D01*
X180818353Y-101624299D01*
X180718112Y-101645606D01*
X180712082Y-101648291D01*
X180712081Y-101648291D01*
X180549678Y-101720597D01*
X180549676Y-101720598D01*
X180543648Y-101723282D01*
X180538307Y-101727162D01*
X180538306Y-101727163D01*
X180389915Y-101834976D01*
X180383850Y-101837140D01*
X180369629Y-101857211D01*
X180291993Y-101943435D01*
X180261360Y-101977456D01*
X180165873Y-102142844D01*
X180106858Y-102324472D01*
X180106168Y-102331033D01*
X180106168Y-102331035D01*
X180103259Y-102358712D01*
X180086896Y-102514400D01*
X180087586Y-102520965D01*
X180098426Y-102624098D01*
X180106858Y-102704328D01*
X180165873Y-102885956D01*
X180261360Y-103051344D01*
X180265778Y-103056251D01*
X180265779Y-103056252D01*
X180358028Y-103158705D01*
X180389147Y-103193266D01*
X180543648Y-103305518D01*
X180549676Y-103308202D01*
X180549678Y-103308203D01*
X180685917Y-103368860D01*
X180718112Y-103383194D01*
X180811513Y-103403047D01*
X180898456Y-103421528D01*
X180898461Y-103421528D01*
X180904913Y-103422900D01*
X181095887Y-103422900D01*
X181102339Y-103421528D01*
X181102344Y-103421528D01*
X181189287Y-103403047D01*
X181282688Y-103383194D01*
X181314883Y-103368860D01*
X181451122Y-103308203D01*
X181451124Y-103308202D01*
X181457152Y-103305518D01*
X181611653Y-103193266D01*
X181642772Y-103158705D01*
X181735023Y-103056250D01*
X181735025Y-103056248D01*
X181739440Y-103051344D01*
X181741912Y-103047062D01*
X181797649Y-103004084D01*
X181843360Y-102995500D01*
X182241674Y-102995500D01*
X182309795Y-103015502D01*
X182356288Y-103069158D01*
X182359656Y-103077270D01*
X182390185Y-103158705D01*
X182477539Y-103275261D01*
X182478774Y-103276187D01*
X182511008Y-103335217D01*
X182505943Y-103406032D01*
X182479386Y-103447355D01*
X182477539Y-103448739D01*
X182390185Y-103565295D01*
X182339055Y-103701684D01*
X182332300Y-103763866D01*
X182332300Y-104960134D01*
X182339055Y-105022316D01*
X182390185Y-105158705D01*
X182477539Y-105275261D01*
X182478774Y-105276187D01*
X182511008Y-105335217D01*
X182505943Y-105406032D01*
X182479386Y-105447355D01*
X182477539Y-105448739D01*
X182390185Y-105565295D01*
X182339055Y-105701684D01*
X182332300Y-105763866D01*
X182332300Y-106960134D01*
X182339055Y-107022316D01*
X182357049Y-107070315D01*
X182390185Y-107158705D01*
X182387514Y-107159706D01*
X182398900Y-107204208D01*
X182398900Y-120365048D01*
X182378898Y-120433169D01*
X182325242Y-120479662D01*
X182254968Y-120489766D01*
X182190388Y-120460272D01*
X182179264Y-120449358D01*
X182073275Y-120331645D01*
X182073274Y-120331644D01*
X182068853Y-120326734D01*
X181914352Y-120214482D01*
X181908324Y-120211798D01*
X181908322Y-120211797D01*
X181745919Y-120139491D01*
X181745918Y-120139491D01*
X181739888Y-120136806D01*
X181646488Y-120116953D01*
X181559544Y-120098472D01*
X181559539Y-120098472D01*
X181553087Y-120097100D01*
X181362113Y-120097100D01*
X181355661Y-120098472D01*
X181355656Y-120098472D01*
X181268712Y-120116953D01*
X181175312Y-120136806D01*
X181169282Y-120139491D01*
X181169281Y-120139491D01*
X181006878Y-120211797D01*
X181006876Y-120211798D01*
X181000848Y-120214482D01*
X180995507Y-120218362D01*
X180995506Y-120218363D01*
X180878551Y-120303336D01*
X180811683Y-120327195D01*
X180804490Y-120327400D01*
X180673526Y-120327400D01*
X180605405Y-120307398D01*
X180558912Y-120253742D01*
X180555544Y-120245630D01*
X180528167Y-120172603D01*
X180525015Y-120164195D01*
X180437661Y-120047639D01*
X180436426Y-120046713D01*
X180404192Y-119987683D01*
X180409257Y-119916868D01*
X180435814Y-119875545D01*
X180437661Y-119874161D01*
X180525015Y-119757605D01*
X180576145Y-119621216D01*
X180582900Y-119559034D01*
X180582900Y-118362766D01*
X180576145Y-118300584D01*
X180525015Y-118164195D01*
X180437661Y-118047639D01*
X180436426Y-118046713D01*
X180404192Y-117987683D01*
X180409257Y-117916868D01*
X180435814Y-117875545D01*
X180437661Y-117874161D01*
X180525015Y-117757605D01*
X180576145Y-117621216D01*
X180582900Y-117559034D01*
X180582900Y-116362766D01*
X180576145Y-116300584D01*
X180525015Y-116164195D01*
X180437661Y-116047639D01*
X180436426Y-116046713D01*
X180404192Y-115987683D01*
X180409257Y-115916868D01*
X180435814Y-115875545D01*
X180437661Y-115874161D01*
X180525015Y-115757605D01*
X180576145Y-115621216D01*
X180582900Y-115559034D01*
X180582900Y-114362766D01*
X180576145Y-114300584D01*
X180525015Y-114164195D01*
X180437661Y-114047639D01*
X180321105Y-113960285D01*
X180184716Y-113909155D01*
X180122534Y-113902400D01*
X178576266Y-113902400D01*
X178514084Y-113909155D01*
X178377695Y-113960285D01*
X178261139Y-114047639D01*
X178173785Y-114164195D01*
X178122655Y-114300584D01*
X178115900Y-114362766D01*
X178115900Y-115537405D01*
X178095898Y-115605526D01*
X178078995Y-115626500D01*
X176587236Y-117118259D01*
X176524924Y-117152285D01*
X176454109Y-117147220D01*
X176397273Y-117104673D01*
X176378308Y-117068100D01*
X176350569Y-116982729D01*
X176348527Y-116976444D01*
X176331091Y-116946243D01*
X176298204Y-116889282D01*
X176253040Y-116811056D01*
X176179863Y-116729785D01*
X176149147Y-116665779D01*
X176147500Y-116645476D01*
X176147500Y-116156767D01*
X176148027Y-116145584D01*
X176149702Y-116138091D01*
X176147562Y-116070000D01*
X176147500Y-116066043D01*
X176147500Y-116038144D01*
X176146996Y-116034153D01*
X176146063Y-116022311D01*
X176145064Y-115990502D01*
X176144674Y-115978111D01*
X176142462Y-115970497D01*
X176142461Y-115970492D01*
X176139023Y-115958659D01*
X176135012Y-115939295D01*
X176134112Y-115932166D01*
X176132474Y-115919203D01*
X176129557Y-115911836D01*
X176129556Y-115911831D01*
X176116198Y-115878092D01*
X176112354Y-115866865D01*
X176102230Y-115832022D01*
X176100018Y-115824407D01*
X176089707Y-115806972D01*
X176081012Y-115789224D01*
X176073552Y-115770383D01*
X176064269Y-115757605D01*
X176047564Y-115734613D01*
X176041048Y-115724693D01*
X176022580Y-115693465D01*
X176022578Y-115693462D01*
X176018542Y-115686638D01*
X176004221Y-115672317D01*
X175991380Y-115657283D01*
X175984131Y-115647306D01*
X175979472Y-115640893D01*
X175945395Y-115612702D01*
X175936616Y-115604712D01*
X175445122Y-115113218D01*
X175411096Y-115050906D01*
X175408907Y-115037293D01*
X175408292Y-115031436D01*
X175391542Y-114872072D01*
X175332527Y-114690444D01*
X175237040Y-114525056D01*
X175109253Y-114383134D01*
X174954752Y-114270882D01*
X174948724Y-114268198D01*
X174948722Y-114268197D01*
X174786319Y-114195891D01*
X174786318Y-114195891D01*
X174780288Y-114193206D01*
X174683359Y-114172603D01*
X174599944Y-114154872D01*
X174599939Y-114154872D01*
X174593487Y-114153500D01*
X174472994Y-114153500D01*
X174404873Y-114133498D01*
X174358380Y-114079842D01*
X174348276Y-114009568D01*
X174377770Y-113944988D01*
X174383899Y-113938405D01*
X176617447Y-111704857D01*
X176625737Y-111697313D01*
X176632218Y-111693200D01*
X176640840Y-111684019D01*
X176678858Y-111643533D01*
X176681613Y-111640691D01*
X176701335Y-111620969D01*
X176703812Y-111617776D01*
X176711517Y-111608755D01*
X176733125Y-111585744D01*
X176741786Y-111576521D01*
X176745607Y-111569571D01*
X176751546Y-111558768D01*
X176762402Y-111542241D01*
X176769957Y-111532502D01*
X176769958Y-111532500D01*
X176774814Y-111526240D01*
X176792374Y-111485660D01*
X176797591Y-111475012D01*
X176815075Y-111443209D01*
X176815076Y-111443207D01*
X176818895Y-111436260D01*
X176822979Y-111420356D01*
X176823933Y-111416638D01*
X176830337Y-111397934D01*
X176835233Y-111386620D01*
X176835233Y-111386619D01*
X176838381Y-111379345D01*
X176839620Y-111371522D01*
X176839623Y-111371512D01*
X176845299Y-111335676D01*
X176847705Y-111324056D01*
X176856728Y-111288911D01*
X176856728Y-111288910D01*
X176858700Y-111281230D01*
X176858700Y-111260976D01*
X176860251Y-111241265D01*
X176862180Y-111229086D01*
X176863420Y-111221257D01*
X176859259Y-111177238D01*
X176858700Y-111165381D01*
X176858700Y-102270194D01*
X176878702Y-102202073D01*
X176895605Y-102181099D01*
X180044300Y-99032405D01*
X180106612Y-98998379D01*
X180133395Y-98995500D01*
X182241674Y-98995500D01*
X182309795Y-99015502D01*
G37*
%TD.AperFunction*%
%TA.AperFunction,Conductor*%
G36*
X173504101Y-114922369D02*
G01*
X173560937Y-114964916D01*
X173585748Y-115031436D01*
X173585379Y-115053590D01*
X173585186Y-115055427D01*
X173585186Y-115055435D01*
X173584496Y-115062000D01*
X173604458Y-115251928D01*
X173663473Y-115433556D01*
X173758960Y-115598944D01*
X173763378Y-115603851D01*
X173763379Y-115603852D01*
X173866184Y-115718029D01*
X173886747Y-115740866D01*
X173965986Y-115798437D01*
X174021302Y-115838626D01*
X174041248Y-115853118D01*
X174047276Y-115855802D01*
X174047278Y-115855803D01*
X174207334Y-115927064D01*
X174215712Y-115930794D01*
X174309112Y-115950647D01*
X174396056Y-115969128D01*
X174396061Y-115969128D01*
X174402513Y-115970500D01*
X174458405Y-115970500D01*
X174526526Y-115990502D01*
X174547501Y-116007405D01*
X174843596Y-116303501D01*
X174877621Y-116365813D01*
X174880500Y-116392596D01*
X174880500Y-116645476D01*
X174860498Y-116713597D01*
X174848142Y-116729779D01*
X174774960Y-116811056D01*
X174729796Y-116889282D01*
X174696910Y-116946243D01*
X174679473Y-116976444D01*
X174620458Y-117158072D01*
X174619768Y-117164633D01*
X174619768Y-117164635D01*
X174604340Y-117311429D01*
X174600496Y-117348000D01*
X174601186Y-117354565D01*
X174616472Y-117500000D01*
X174620458Y-117537928D01*
X174679473Y-117719556D01*
X174774960Y-117884944D01*
X174779378Y-117889851D01*
X174779379Y-117889852D01*
X174879901Y-118001493D01*
X174902747Y-118026866D01*
X175057248Y-118139118D01*
X175063276Y-118141802D01*
X175063278Y-118141803D01*
X175132457Y-118172603D01*
X175231712Y-118216794D01*
X175232461Y-118216953D01*
X175289281Y-118255804D01*
X175316919Y-118321201D01*
X175304813Y-118391158D01*
X175280835Y-118424660D01*
X174885095Y-118820400D01*
X174822783Y-118854426D01*
X174751968Y-118849361D01*
X174695132Y-118806814D01*
X174675766Y-118768985D01*
X174663284Y-118729155D01*
X174657079Y-118715412D01*
X174576176Y-118581826D01*
X174566869Y-118569957D01*
X174456443Y-118459531D01*
X174444574Y-118450224D01*
X174310988Y-118369321D01*
X174297243Y-118363115D01*
X174147356Y-118316144D01*
X174134306Y-118313531D01*
X174070479Y-118307666D01*
X174064691Y-118307400D01*
X174008115Y-118307400D01*
X173992876Y-118311875D01*
X173991671Y-118313265D01*
X173990000Y-118320948D01*
X173990000Y-119343400D01*
X173969998Y-119411521D01*
X173916342Y-119458014D01*
X173864000Y-119469400D01*
X170644300Y-119469400D01*
X170576179Y-119449398D01*
X170529686Y-119395742D01*
X170518300Y-119343400D01*
X170518300Y-118943285D01*
X170891200Y-118943285D01*
X170895675Y-118958524D01*
X170897065Y-118959729D01*
X170904748Y-118961400D01*
X171889085Y-118961400D01*
X171904324Y-118956925D01*
X171905529Y-118955535D01*
X171907200Y-118947852D01*
X171907200Y-118943285D01*
X172415200Y-118943285D01*
X172419675Y-118958524D01*
X172421065Y-118959729D01*
X172428748Y-118961400D01*
X173463885Y-118961400D01*
X173479124Y-118956925D01*
X173480329Y-118955535D01*
X173482000Y-118947852D01*
X173482000Y-118325516D01*
X173477525Y-118310277D01*
X173476135Y-118309072D01*
X173468452Y-118307401D01*
X173407295Y-118307401D01*
X173401546Y-118307664D01*
X173337685Y-118313532D01*
X173324649Y-118316143D01*
X173174757Y-118363115D01*
X173161012Y-118369321D01*
X173027429Y-118450222D01*
X173026354Y-118451065D01*
X173025426Y-118451435D01*
X173020930Y-118454158D01*
X173020476Y-118453409D01*
X172960407Y-118477363D01*
X172890712Y-118463832D01*
X172870846Y-118451065D01*
X172869771Y-118450222D01*
X172736188Y-118369321D01*
X172722443Y-118363115D01*
X172572556Y-118316144D01*
X172559506Y-118313531D01*
X172495679Y-118307666D01*
X172489891Y-118307400D01*
X172433315Y-118307400D01*
X172418076Y-118311875D01*
X172416871Y-118313265D01*
X172415200Y-118320948D01*
X172415200Y-118943285D01*
X171907200Y-118943285D01*
X171907200Y-118325516D01*
X171902725Y-118310277D01*
X171901335Y-118309072D01*
X171893652Y-118307401D01*
X171832495Y-118307401D01*
X171826746Y-118307664D01*
X171762885Y-118313532D01*
X171749849Y-118316143D01*
X171599957Y-118363115D01*
X171586212Y-118369321D01*
X171464472Y-118443050D01*
X171395842Y-118461229D01*
X171333928Y-118443050D01*
X171212188Y-118369321D01*
X171198443Y-118363115D01*
X171048556Y-118316144D01*
X171035506Y-118313531D01*
X170971679Y-118307666D01*
X170965891Y-118307400D01*
X170909315Y-118307400D01*
X170894076Y-118311875D01*
X170892871Y-118313265D01*
X170891200Y-118320948D01*
X170891200Y-118943285D01*
X170518300Y-118943285D01*
X170518300Y-117856194D01*
X170538302Y-117788073D01*
X170555205Y-117767099D01*
X173370974Y-114951330D01*
X173433286Y-114917304D01*
X173504101Y-114922369D01*
G37*
%TD.AperFunction*%
%TA.AperFunction,Conductor*%
G36*
X168070422Y-118956500D02*
G01*
X168092948Y-118961400D01*
X169125300Y-118961400D01*
X169193421Y-118981402D01*
X169239914Y-119035058D01*
X169251300Y-119087400D01*
X169251300Y-119343400D01*
X169231298Y-119411521D01*
X169177642Y-119458014D01*
X169125300Y-119469400D01*
X168135319Y-119469400D01*
X168067198Y-119449398D01*
X168020705Y-119395742D01*
X168010056Y-119329792D01*
X168013131Y-119301486D01*
X168013500Y-119294672D01*
X168013500Y-119268115D01*
X168009025Y-119252876D01*
X167983330Y-119230611D01*
X167983788Y-119230082D01*
X167971400Y-119223318D01*
X167956293Y-119203161D01*
X167956115Y-119203295D01*
X167910773Y-119142795D01*
X167885926Y-119076289D01*
X167900979Y-119006907D01*
X167947476Y-118958769D01*
X167950639Y-118956899D01*
X168019458Y-118939448D01*
X168070422Y-118956500D01*
G37*
%TD.AperFunction*%
%TA.AperFunction,Conductor*%
G36*
X175381921Y-100577102D02*
G01*
X175401147Y-100593443D01*
X175401420Y-100593140D01*
X175406332Y-100597563D01*
X175410747Y-100602466D01*
X175565248Y-100714718D01*
X175571276Y-100717402D01*
X175571278Y-100717403D01*
X175733681Y-100789709D01*
X175739712Y-100792394D01*
X175833113Y-100812247D01*
X175920056Y-100830728D01*
X175920061Y-100830728D01*
X175926513Y-100832100D01*
X176117487Y-100832100D01*
X176127230Y-100830029D01*
X176129177Y-100830178D01*
X176130515Y-100830037D01*
X176130541Y-100830282D01*
X176198019Y-100835428D01*
X176254653Y-100878243D01*
X176279150Y-100944879D01*
X176263731Y-101014181D01*
X176242525Y-101042370D01*
X175832947Y-101451948D01*
X175824661Y-101459488D01*
X175818182Y-101463600D01*
X175812757Y-101469377D01*
X175771557Y-101513251D01*
X175768802Y-101516093D01*
X175749065Y-101535830D01*
X175746585Y-101539027D01*
X175738882Y-101548047D01*
X175708614Y-101580279D01*
X175704795Y-101587225D01*
X175704793Y-101587228D01*
X175698852Y-101598034D01*
X175688001Y-101614553D01*
X175675586Y-101630559D01*
X175672441Y-101637828D01*
X175672438Y-101637832D01*
X175658026Y-101671137D01*
X175652809Y-101681787D01*
X175631505Y-101720540D01*
X175629534Y-101728215D01*
X175629534Y-101728216D01*
X175626467Y-101740162D01*
X175620063Y-101758866D01*
X175612019Y-101777455D01*
X175610780Y-101785278D01*
X175610777Y-101785288D01*
X175605101Y-101821124D01*
X175602695Y-101832744D01*
X175593672Y-101867889D01*
X175591700Y-101875570D01*
X175591700Y-101895824D01*
X175590149Y-101915534D01*
X175586980Y-101935543D01*
X175587726Y-101943435D01*
X175591141Y-101979561D01*
X175591700Y-101991419D01*
X175591700Y-108906513D01*
X175571698Y-108974634D01*
X175518042Y-109021127D01*
X175447768Y-109031231D01*
X175439504Y-109029760D01*
X175412746Y-109024073D01*
X175412747Y-109024073D01*
X175406287Y-109022700D01*
X175215313Y-109022700D01*
X175208861Y-109024072D01*
X175208856Y-109024072D01*
X175121912Y-109042553D01*
X175028512Y-109062406D01*
X175022482Y-109065091D01*
X175022481Y-109065091D01*
X174860078Y-109137397D01*
X174860076Y-109137398D01*
X174854048Y-109140082D01*
X174848707Y-109143962D01*
X174848706Y-109143963D01*
X174831774Y-109156265D01*
X174699547Y-109252334D01*
X174695126Y-109257244D01*
X174695125Y-109257245D01*
X174631269Y-109328165D01*
X174571760Y-109394256D01*
X174476273Y-109559644D01*
X174417258Y-109741272D01*
X174416568Y-109747833D01*
X174416568Y-109747835D01*
X174398442Y-109920293D01*
X174397296Y-109931200D01*
X174397986Y-109937765D01*
X174415507Y-110104464D01*
X174417258Y-110121128D01*
X174476273Y-110302756D01*
X174479576Y-110308478D01*
X174479577Y-110308479D01*
X174563210Y-110453335D01*
X174579948Y-110522330D01*
X174556728Y-110589422D01*
X174543192Y-110605424D01*
X173691516Y-111457100D01*
X173629204Y-111491125D01*
X173558388Y-111486060D01*
X173501553Y-111443513D01*
X173476742Y-111376993D01*
X173482587Y-111329071D01*
X173511942Y-111238728D01*
X173512956Y-111229086D01*
X173531214Y-111055365D01*
X173531904Y-111048800D01*
X173527532Y-111007199D01*
X173512632Y-110865435D01*
X173512632Y-110865433D01*
X173511942Y-110858872D01*
X173452927Y-110677244D01*
X173448986Y-110670417D01*
X173378760Y-110548784D01*
X173357440Y-110511856D01*
X173310463Y-110459682D01*
X173234075Y-110374845D01*
X173234074Y-110374844D01*
X173229653Y-110369934D01*
X173126169Y-110294748D01*
X173080494Y-110261563D01*
X173080493Y-110261562D01*
X173075152Y-110257682D01*
X173069124Y-110254998D01*
X173069122Y-110254997D01*
X172906719Y-110182691D01*
X172906718Y-110182691D01*
X172900688Y-110180006D01*
X172788982Y-110156262D01*
X172720344Y-110141672D01*
X172720339Y-110141672D01*
X172713887Y-110140300D01*
X172620758Y-110140300D01*
X172570718Y-110129937D01*
X172536265Y-110115028D01*
X172525615Y-110109811D01*
X172486862Y-110088507D01*
X172467239Y-110083469D01*
X172448536Y-110077065D01*
X172437222Y-110072169D01*
X172437221Y-110072169D01*
X172429947Y-110069021D01*
X172422124Y-110067782D01*
X172422114Y-110067779D01*
X172386278Y-110062103D01*
X172374658Y-110059697D01*
X172339513Y-110050674D01*
X172339512Y-110050674D01*
X172331832Y-110048702D01*
X172311578Y-110048702D01*
X172291867Y-110047151D01*
X172279688Y-110045222D01*
X172271859Y-110043982D01*
X172263967Y-110044728D01*
X172227841Y-110048143D01*
X172215983Y-110048702D01*
X170814500Y-110048702D01*
X170746379Y-110028700D01*
X170699886Y-109975044D01*
X170688500Y-109922702D01*
X170688500Y-109806267D01*
X170681745Y-109744085D01*
X170678973Y-109736691D01*
X170678891Y-109736346D01*
X170678891Y-109678055D01*
X170678971Y-109677716D01*
X170681745Y-109670318D01*
X170688500Y-109608136D01*
X170688500Y-109156268D01*
X170681745Y-109094086D01*
X170678973Y-109086692D01*
X170678890Y-109086342D01*
X170678891Y-109028054D01*
X170678971Y-109027715D01*
X170681745Y-109020317D01*
X170688500Y-108958135D01*
X170688500Y-108558790D01*
X170708502Y-108490669D01*
X170762158Y-108444176D01*
X170832432Y-108434072D01*
X170856283Y-108440414D01*
X170859340Y-108442095D01*
X170867013Y-108444065D01*
X170867018Y-108444067D01*
X170878958Y-108447132D01*
X170897666Y-108453537D01*
X170916255Y-108461581D01*
X170924083Y-108462821D01*
X170924090Y-108462823D01*
X170959924Y-108468499D01*
X170971544Y-108470905D01*
X171003359Y-108479073D01*
X171014370Y-108481900D01*
X171034624Y-108481900D01*
X171054334Y-108483451D01*
X171074343Y-108486620D01*
X171082235Y-108485874D01*
X171100980Y-108484102D01*
X171118362Y-108482459D01*
X171130219Y-108481900D01*
X172488833Y-108481900D01*
X172500016Y-108482427D01*
X172507509Y-108484102D01*
X172515435Y-108483853D01*
X172515436Y-108483853D01*
X172575586Y-108481962D01*
X172579545Y-108481900D01*
X172607456Y-108481900D01*
X172611391Y-108481403D01*
X172611456Y-108481395D01*
X172623293Y-108480462D01*
X172655551Y-108479448D01*
X172659570Y-108479322D01*
X172667489Y-108479073D01*
X172686943Y-108473421D01*
X172706300Y-108469413D01*
X172718530Y-108467868D01*
X172718531Y-108467868D01*
X172726397Y-108466874D01*
X172733768Y-108463955D01*
X172733770Y-108463955D01*
X172767512Y-108450596D01*
X172778742Y-108446751D01*
X172813583Y-108436629D01*
X172813584Y-108436629D01*
X172821193Y-108434418D01*
X172828012Y-108430385D01*
X172828017Y-108430383D01*
X172838628Y-108424107D01*
X172856376Y-108415412D01*
X172875217Y-108407952D01*
X172910987Y-108381964D01*
X172920907Y-108375448D01*
X172952135Y-108356980D01*
X172952138Y-108356978D01*
X172958962Y-108352942D01*
X172973283Y-108338621D01*
X172988317Y-108325780D01*
X172998294Y-108318531D01*
X173004707Y-108313872D01*
X173032898Y-108279795D01*
X173040888Y-108271016D01*
X173417047Y-107894857D01*
X173425337Y-107887313D01*
X173431818Y-107883200D01*
X173478459Y-107833532D01*
X173481213Y-107830691D01*
X173500934Y-107810970D01*
X173503412Y-107807775D01*
X173511118Y-107798753D01*
X173535958Y-107772301D01*
X173541386Y-107766521D01*
X173551146Y-107748768D01*
X173561999Y-107732245D01*
X173569553Y-107722506D01*
X173574413Y-107716241D01*
X173591976Y-107675657D01*
X173597183Y-107665027D01*
X173618495Y-107626260D01*
X173620466Y-107618583D01*
X173620468Y-107618578D01*
X173623532Y-107606642D01*
X173629938Y-107587930D01*
X173634834Y-107576617D01*
X173637981Y-107569345D01*
X173641600Y-107546500D01*
X173644897Y-107525681D01*
X173647304Y-107514060D01*
X173656328Y-107478911D01*
X173656328Y-107478910D01*
X173658300Y-107471230D01*
X173658300Y-107450969D01*
X173659851Y-107431258D01*
X173661614Y-107420131D01*
X173663019Y-107411257D01*
X173658859Y-107367246D01*
X173658300Y-107355389D01*
X173658300Y-106504767D01*
X173658827Y-106493584D01*
X173660502Y-106486091D01*
X173658362Y-106418014D01*
X173658300Y-106414055D01*
X173658300Y-106386144D01*
X173657795Y-106382144D01*
X173656862Y-106370301D01*
X173656587Y-106361532D01*
X173655473Y-106326110D01*
X173649822Y-106306658D01*
X173645814Y-106287306D01*
X173644267Y-106275063D01*
X173643274Y-106267203D01*
X173637997Y-106253874D01*
X173627000Y-106226097D01*
X173623155Y-106214870D01*
X173620979Y-106207381D01*
X173610818Y-106172407D01*
X173606784Y-106165585D01*
X173606781Y-106165579D01*
X173600506Y-106154968D01*
X173591810Y-106137218D01*
X173587272Y-106125756D01*
X173587269Y-106125751D01*
X173584352Y-106118383D01*
X173558373Y-106082625D01*
X173551857Y-106072707D01*
X173533375Y-106041457D01*
X173529342Y-106034637D01*
X173515018Y-106020313D01*
X173502176Y-106005278D01*
X173498609Y-106000368D01*
X173490272Y-105988893D01*
X173456206Y-105960711D01*
X173447427Y-105952722D01*
X172675349Y-105180644D01*
X172641323Y-105118332D01*
X172644610Y-105052616D01*
X172646299Y-105047416D01*
X172646299Y-105047415D01*
X172648342Y-105041128D01*
X172650320Y-105022316D01*
X172667614Y-104857765D01*
X172668304Y-104851200D01*
X172663511Y-104805594D01*
X172649032Y-104667835D01*
X172649032Y-104667833D01*
X172648342Y-104661272D01*
X172589327Y-104479644D01*
X172580639Y-104464595D01*
X172506513Y-104336206D01*
X172493840Y-104314256D01*
X172446718Y-104261921D01*
X172370475Y-104177245D01*
X172370474Y-104177244D01*
X172366053Y-104172334D01*
X172248176Y-104086691D01*
X172216894Y-104063963D01*
X172216893Y-104063962D01*
X172211552Y-104060082D01*
X172205524Y-104057398D01*
X172205522Y-104057397D01*
X172043119Y-103985091D01*
X172043118Y-103985091D01*
X172037088Y-103982406D01*
X171915846Y-103956635D01*
X171856744Y-103944072D01*
X171856739Y-103944072D01*
X171850287Y-103942700D01*
X171659313Y-103942700D01*
X171652861Y-103944072D01*
X171652856Y-103944072D01*
X171593754Y-103956635D01*
X171472512Y-103982406D01*
X171466482Y-103985091D01*
X171466481Y-103985091D01*
X171304078Y-104057397D01*
X171304076Y-104057398D01*
X171298048Y-104060082D01*
X171292707Y-104063962D01*
X171292706Y-104063963D01*
X171261424Y-104086691D01*
X171143547Y-104172334D01*
X171139126Y-104177244D01*
X171139125Y-104177245D01*
X171062883Y-104261921D01*
X171015760Y-104314256D01*
X171003087Y-104336206D01*
X170928962Y-104464595D01*
X170920273Y-104479644D01*
X170861258Y-104661272D01*
X170860568Y-104667833D01*
X170860568Y-104667835D01*
X170846089Y-104805594D01*
X170841296Y-104851200D01*
X170841986Y-104857765D01*
X170853273Y-104965155D01*
X170840501Y-105034993D01*
X170791999Y-105086840D01*
X170723166Y-105104234D01*
X170655856Y-105081653D01*
X170627137Y-105053890D01*
X170548285Y-104948678D01*
X170535724Y-104936117D01*
X170433649Y-104859616D01*
X170418054Y-104851078D01*
X170297606Y-104805924D01*
X170282351Y-104802297D01*
X170231486Y-104796771D01*
X170224672Y-104796402D01*
X169639315Y-104796402D01*
X169624076Y-104800877D01*
X169622871Y-104802267D01*
X169621200Y-104809950D01*
X169621200Y-105304402D01*
X169620647Y-105304402D01*
X169620647Y-105355399D01*
X169582264Y-105415125D01*
X169517683Y-105444618D01*
X169499751Y-105445901D01*
X169391600Y-105445901D01*
X169323479Y-105425899D01*
X169276986Y-105372243D01*
X169265600Y-105319901D01*
X169265600Y-104814518D01*
X169261125Y-104799279D01*
X169259735Y-104798074D01*
X169252052Y-104796403D01*
X168742491Y-104796403D01*
X168674370Y-104776401D01*
X168627877Y-104722745D01*
X168617773Y-104652471D01*
X168647267Y-104587891D01*
X168653396Y-104581308D01*
X172640699Y-100594005D01*
X172703011Y-100559979D01*
X172729794Y-100557100D01*
X175313800Y-100557100D01*
X175381921Y-100577102D01*
G37*
%TD.AperFunction*%
%TD*%
M02*
