M48
; DRILL file {KiCad (6.0.7)} date Wed Feb  1 00:47:53 2023
; FORMAT={-:-/ absolute / inch / decimal}
; #@! TF.CreationDate,2023-02-01T00:47:53-08:00
; #@! TF.GenerationSoftware,Kicad,Pcbnew,(6.0.7)
; #@! TF.FileFunction,Plated,1,2,PTH
FMAT,2
INCH
; #@! TA.AperFunction,Plated,PTH,ViaDrill
T1C0.0157
; #@! TA.AperFunction,Plated,PTH,ComponentDrill
T2C0.0400
%
G90
G05
T1
X5.022Y-4.26
X5.136Y-5.552
X5.194Y-4.132
X5.632Y-4.092
X5.786Y-5.562
X5.892Y-4.8
X5.946Y-4.888
X5.994Y-4.92
X6.006Y-4.096
X6.0518Y-4.7782
X6.1122Y-4.7786
X6.118Y-4.942
X6.198Y-4.222
X6.216Y-4.922
X6.218Y-4.13
X6.246Y-4.216
X6.288Y-3.834
X6.29Y-4.11
X6.29Y-4.214
X6.356Y-4.2051
X6.388Y-4.148
X6.39Y-4.382
X6.398Y-4.904
X6.4Y-4.846
X6.428Y-5.562
X6.5Y-5.296
X6.526Y-4.968
X6.53Y-4.222
X6.53Y-5.016
X6.572Y-4.15
X6.5874Y-4.304
X6.588Y-4.064
X6.614Y-4.176
X6.614Y-4.218
X6.6222Y-4.7922
X6.6617Y-4.644
X6.6752Y-4.8612
X6.75Y-4.21
X6.762Y-4.128
X6.796Y-4.372
X6.83Y-4.004
X6.834Y-4.6
X6.836Y-3.848
X6.87Y-4.53
X6.882Y-4.802
X6.902Y-4.328
X6.91Y-4.62
X6.93Y-3.934
X6.944Y-4.78
X6.948Y-5.162
X6.962Y-4.498
X6.992Y-5.372
X7.014Y-4.048
X7.018Y-4.718
X7.126Y-4.036
X7.142Y-4.466
X7.144Y-4.764
X7.168Y-5.47
X7.304Y-4.1
X7.31Y-4.572
T2
X4.658Y-5.872
X4.758Y-5.88
X4.76Y-3.795
X4.86Y-3.795
X4.96Y-3.795
X5.06Y-3.795
X5.16Y-3.795
X5.26Y-3.795
X5.36Y-3.795
X5.417Y-4.356
X5.417Y-4.456
X5.417Y-4.556
X5.417Y-4.656
X5.417Y-4.756
X5.46Y-3.795
X5.56Y-3.795
X5.9575Y-3.795
X6.0575Y-3.795
X6.0575Y-3.8955
X6.1575Y-3.795
X6.1575Y-3.8955
X7.46Y-5.15
X7.47Y-5.05
T0
M30
