%TF.GenerationSoftware,KiCad,Pcbnew,(6.0.7)*%
%TF.CreationDate,2023-02-01T00:47:53-08:00*%
%TF.ProjectId,SpresensePart2,53707265-7365-46e7-9365-50617274322e,rev?*%
%TF.SameCoordinates,Original*%
%TF.FileFunction,Copper,L2,Bot*%
%TF.FilePolarity,Positive*%
%FSLAX46Y46*%
G04 Gerber Fmt 4.6, Leading zero omitted, Abs format (unit mm)*
G04 Created by KiCad (PCBNEW (6.0.7)) date 2023-02-01 00:47:53*
%MOMM*%
%LPD*%
G01*
G04 APERTURE LIST*
%TA.AperFunction,ComponentPad*%
%ADD10C,1.879600*%
%TD*%
%TA.AperFunction,ViaPad*%
%ADD11C,0.800000*%
%TD*%
%TA.AperFunction,Conductor*%
%ADD12C,0.250000*%
%TD*%
G04 APERTURE END LIST*
D10*
%TO.P,J16,1,1*%
%TO.N,/VSOLAR*%
X120853200Y-149352000D03*
%TD*%
%TO.P,J7,1,1*%
%TO.N,+3V3*%
X120904000Y-96393000D03*
%TO.P,J7,2,2*%
%TO.N,GND*%
X123444000Y-96393000D03*
%TO.P,J7,3,3*%
%TO.N,/MOSI*%
X125984000Y-96393000D03*
%TO.P,J7,4,4*%
%TO.N,/SCK*%
X128524000Y-96393000D03*
%TO.P,J7,5,5*%
%TO.N,/MISO*%
X131064000Y-96393000D03*
%TO.P,J7,6,6*%
%TO.N,/PB23*%
X133604000Y-96393000D03*
%TO.P,J7,7,7*%
%TO.N,/PB22*%
X136144000Y-96393000D03*
%TO.P,J7,8,8*%
%TO.N,/PA20*%
X138684000Y-96393000D03*
%TO.P,J7,9,9*%
%TO.N,/PA22*%
X141224000Y-96393000D03*
%TD*%
%TO.P,J9,1,1*%
%TO.N,/PA17*%
X153860500Y-98945700D03*
%TO.P,J9,2,2*%
%TO.N,/PA16*%
X156400500Y-98945700D03*
%TD*%
%TO.P,J8,1,1*%
%TO.N,+3V3*%
X137591800Y-120802400D03*
%TO.P,J8,2,2*%
%TO.N,/CS*%
X137591800Y-118262400D03*
%TO.P,J8,3,3*%
%TO.N,/CLK*%
X137591800Y-115722400D03*
%TO.P,J8,4,4*%
%TO.N,/RST*%
X137591800Y-113182400D03*
%TO.P,J8,5,5*%
%TO.N,GND*%
X137591800Y-110642400D03*
%TD*%
%TO.P,J10,1,1*%
%TO.N,/PB17*%
X151320500Y-96393000D03*
%TO.P,J10,2,2*%
%TO.N,/PB16*%
X153860500Y-96393000D03*
%TO.P,J10,3,3*%
%TO.N,/PA19*%
X156400500Y-96393000D03*
%TD*%
%TO.P,J11,1,1*%
%TO.N,GND*%
X118313200Y-149148800D03*
%TD*%
%TO.P,J12,1,1*%
%TO.N,/VSOLAR*%
X189738000Y-128270000D03*
%TD*%
%TO.P,J15,1,1*%
%TO.N,GND*%
X189484000Y-130810000D03*
%TD*%
D11*
%TO.N,GND*%
X185521600Y-104140000D03*
X162255200Y-105359200D03*
X146964400Y-141274800D03*
X157886400Y-125018800D03*
X130454400Y-141020800D03*
X163271200Y-141274800D03*
X167995600Y-106070400D03*
X162306000Y-111302800D03*
X181457600Y-121005600D03*
X182067200Y-138938000D03*
X131927600Y-104952800D03*
%TO.N,/3V33*%
X177596800Y-136448800D03*
X176479200Y-131114800D03*
X172618400Y-111048800D03*
X174498000Y-115062000D03*
X176377600Y-121412000D03*
X175514000Y-117348000D03*
%TO.N,/SC3*%
X162509200Y-124561600D03*
X165862000Y-127406400D03*
%TO.N,/SD3*%
X162560000Y-123088400D03*
X165760400Y-126187200D03*
%TO.N,/PB23*%
X152552400Y-104038400D03*
X157937200Y-104902000D03*
X143052800Y-103936800D03*
%TO.N,/PB22*%
X157429200Y-107238800D03*
%TO.N,/PA20*%
X159766000Y-107035600D03*
X159766000Y-104394000D03*
X159715200Y-97383600D03*
%TO.N,/PA22*%
X167335200Y-103225600D03*
X171754800Y-104851200D03*
%TO.N,/PB16*%
X158648400Y-107086400D03*
%TO.N,+3V3*%
X185674000Y-116128800D03*
X127558800Y-108204000D03*
X173583600Y-116840000D03*
X176834800Y-114249200D03*
X173482000Y-101701600D03*
X181406800Y-113436400D03*
X173634400Y-97739200D03*
%TO.N,/SD2*%
X152247600Y-124968000D03*
X155248800Y-121377400D03*
%TO.N,/SC2*%
X153714700Y-121367300D03*
X151028400Y-124155200D03*
%TO.N,/SC5*%
X175310800Y-109931200D03*
X178155600Y-102819200D03*
X168204900Y-121722900D03*
X169207900Y-117957600D03*
%TO.N,/SC4*%
X174802800Y-121970800D03*
X169551100Y-123475500D03*
%TO.N,/3V34*%
X178257200Y-119837200D03*
X161442400Y-106809101D03*
%TO.N,/3V35*%
X181000400Y-102514400D03*
X165862000Y-107238800D03*
X176022000Y-99923600D03*
X166928800Y-105410000D03*
%TO.N,/3V32*%
X167318700Y-109321600D03*
X149656800Y-121920000D03*
%TO.N,/3V31*%
X167995600Y-107137200D03*
X155397200Y-125526800D03*
%TO.N,/3V30*%
X171450000Y-106934000D03*
X165100000Y-134518400D03*
%TD*%
D12*
%TO.N,/PA20*%
X157784800Y-94030800D02*
X140411200Y-94030800D01*
X159715200Y-95961200D02*
X157784800Y-94030800D01*
X140411200Y-94030800D02*
X139039600Y-95402400D01*
X139039600Y-95402400D02*
X139039600Y-95504000D01*
X159715200Y-97383600D02*
X159715200Y-95961200D01*
%TO.N,GND*%
X124104400Y-97129600D02*
X124002800Y-97129600D01*
X131927600Y-104952800D02*
X124104400Y-97129600D01*
X138887200Y-111302800D02*
X138480800Y-110896400D01*
X182155978Y-138938000D02*
X189584555Y-131509423D01*
X162306000Y-111302800D02*
X138887200Y-111302800D01*
X182067200Y-138938000D02*
X182155978Y-138938000D01*
%TO.N,/3V33*%
X175514000Y-120548400D02*
X175514000Y-117348000D01*
X176479200Y-135331200D02*
X176479200Y-131114800D01*
X172618400Y-113182400D02*
X172618400Y-111048800D01*
X177596800Y-136448800D02*
X176479200Y-135331200D01*
X176377600Y-121412000D02*
X175514000Y-120548400D01*
X174498000Y-115062000D02*
X172618400Y-113182400D01*
%TO.N,/SC3*%
X162509200Y-124561600D02*
X163017200Y-124561600D01*
X163017200Y-124561600D02*
X165862000Y-127406400D01*
%TO.N,/SD3*%
X165658800Y-126187200D02*
X165760400Y-126187200D01*
X162560000Y-123088400D02*
X165658800Y-126187200D01*
%TO.N,/PB23*%
X143052800Y-103936800D02*
X141325600Y-103936800D01*
X141325600Y-103936800D02*
X134366000Y-96977200D01*
X157937200Y-104902000D02*
X157124400Y-104089200D01*
X153314400Y-104089200D02*
X152603200Y-104089200D01*
X152603200Y-104089200D02*
X152552400Y-104038400D01*
X157124400Y-104089200D02*
X153314400Y-104089200D01*
%TO.N,/PB22*%
X155549600Y-105359200D02*
X145911776Y-105359200D01*
X145911776Y-105359200D02*
X136841630Y-96289054D01*
X157429200Y-107238800D02*
X155549600Y-105359200D01*
X136841630Y-96289054D02*
X136841630Y-96125161D01*
X136841630Y-96125161D02*
X136731744Y-96015275D01*
%TO.N,/PA20*%
X159766000Y-107035600D02*
X159766000Y-104394000D01*
%TO.N,/PA22*%
X170129200Y-103225600D02*
X167335200Y-103225600D01*
X171754800Y-104851200D02*
X170129200Y-103225600D01*
%TO.N,/PB16*%
X157022800Y-94488000D02*
X155695013Y-94488000D01*
X158648400Y-96113600D02*
X157022800Y-94488000D01*
X158648400Y-107086400D02*
X158648400Y-96113600D01*
X155695013Y-94488000D02*
X154318022Y-95864991D01*
%TO.N,+3V3*%
X173482000Y-101701600D02*
X173482000Y-97891600D01*
X182981600Y-113436400D02*
X185674000Y-116128800D01*
X173583600Y-116840000D02*
X174244000Y-116840000D01*
X174244000Y-116840000D02*
X176834800Y-114249200D01*
X173482000Y-97891600D02*
X173634400Y-97739200D01*
X181406800Y-113436400D02*
X182981600Y-113436400D01*
%TO.N,/SD2*%
X152247600Y-124378600D02*
X152247600Y-124968000D01*
X155248800Y-121377400D02*
X152247600Y-124378600D01*
%TO.N,/SC2*%
X151028400Y-124053600D02*
X151028400Y-124155200D01*
X153714700Y-121367300D02*
X151028400Y-124053600D01*
%TO.N,/SC5*%
X175310800Y-105664000D02*
X175310800Y-109931200D01*
X169207900Y-120719900D02*
X168204900Y-121722900D01*
X178155600Y-102819200D02*
X175310800Y-105664000D01*
X169207900Y-117957600D02*
X169207900Y-120719900D01*
%TO.N,/SC4*%
X173837600Y-121970800D02*
X172332900Y-123475500D01*
X174802800Y-121970800D02*
X173837600Y-121970800D01*
X172332900Y-123475500D02*
X169551100Y-123475500D01*
%TO.N,/3V34*%
X177850800Y-113690400D02*
X174633400Y-110473000D01*
X174633400Y-109152200D02*
X170213800Y-104732600D01*
X163847000Y-104732600D02*
X161770499Y-106809101D01*
X170213800Y-104732600D02*
X163847000Y-104732600D01*
X161770499Y-106809101D02*
X161442400Y-106809101D01*
X177850800Y-119430800D02*
X177850800Y-113690400D01*
X178257200Y-119837200D02*
X177850800Y-119430800D01*
X174633400Y-110473000D02*
X174633400Y-109152200D01*
%TO.N,/3V35*%
X176022000Y-99923600D02*
X178409600Y-99923600D01*
X165862000Y-107238800D02*
X165862000Y-106476800D01*
X165862000Y-106476800D02*
X166928800Y-105410000D01*
X178409600Y-99923600D02*
X181000400Y-102514400D01*
%TO.N,/3V32*%
X149656800Y-121920000D02*
X150886900Y-120689900D01*
X155950400Y-120689900D02*
X167318700Y-109321600D01*
X150886900Y-120689900D02*
X155950400Y-120689900D01*
%TO.N,/3V31*%
X155397200Y-125526800D02*
X167995600Y-112928400D01*
X167995600Y-112928400D02*
X167995600Y-107137200D01*
%TO.N,/3V30*%
X166539400Y-125529211D02*
X171450000Y-120618611D01*
X165100000Y-134518400D02*
X166539400Y-133079000D01*
X171450000Y-120618611D02*
X171450000Y-106934000D01*
X166539400Y-133079000D02*
X166539400Y-125529211D01*
%TD*%
%TA.AperFunction,Conductor*%
%TO.N,GND*%
G36*
X139924789Y-93403602D02*
G01*
X139971282Y-93457258D01*
X139981386Y-93527532D01*
X139953752Y-93589916D01*
X139945911Y-93599394D01*
X139937922Y-93608173D01*
X138647347Y-94898748D01*
X138639064Y-94906286D01*
X138632582Y-94910400D01*
X138627153Y-94916181D01*
X138623908Y-94918866D01*
X138562650Y-94946333D01*
X138347209Y-94979300D01*
X138120838Y-95053289D01*
X137909590Y-95163258D01*
X137905457Y-95166361D01*
X137905454Y-95166363D01*
X137837193Y-95217615D01*
X137719140Y-95306252D01*
X137715568Y-95309990D01*
X137578513Y-95453410D01*
X137554602Y-95478431D01*
X137520936Y-95527784D01*
X137519186Y-95530349D01*
X137464274Y-95575351D01*
X137393749Y-95583522D01*
X137330002Y-95552267D01*
X137309306Y-95527784D01*
X137298217Y-95510642D01*
X137298212Y-95510636D01*
X137295406Y-95506298D01*
X137285947Y-95495902D01*
X137244358Y-95450197D01*
X137135124Y-95330150D01*
X137131073Y-95326951D01*
X137131069Y-95326947D01*
X136952278Y-95185747D01*
X136952273Y-95185744D01*
X136948224Y-95182546D01*
X136943708Y-95180053D01*
X136943705Y-95180051D01*
X136744250Y-95069946D01*
X136744246Y-95069944D01*
X136739726Y-95067449D01*
X136734857Y-95065725D01*
X136734853Y-95065723D01*
X136520105Y-94989676D01*
X136520101Y-94989675D01*
X136515230Y-94987950D01*
X136510140Y-94987043D01*
X136510135Y-94987042D01*
X136382814Y-94964364D01*
X136280764Y-94946186D01*
X136191637Y-94945097D01*
X136047795Y-94943339D01*
X136047793Y-94943339D01*
X136042625Y-94943276D01*
X135807209Y-94979300D01*
X135580838Y-95053289D01*
X135369590Y-95163258D01*
X135365457Y-95166361D01*
X135365454Y-95166363D01*
X135297193Y-95217615D01*
X135179140Y-95306252D01*
X135175568Y-95309990D01*
X135038513Y-95453410D01*
X135014602Y-95478431D01*
X134980936Y-95527784D01*
X134979186Y-95530349D01*
X134924274Y-95575351D01*
X134853749Y-95583522D01*
X134790002Y-95552267D01*
X134769306Y-95527784D01*
X134758217Y-95510642D01*
X134758212Y-95510636D01*
X134755406Y-95506298D01*
X134745947Y-95495902D01*
X134704358Y-95450197D01*
X134595124Y-95330150D01*
X134591073Y-95326951D01*
X134591069Y-95326947D01*
X134412278Y-95185747D01*
X134412273Y-95185744D01*
X134408224Y-95182546D01*
X134403708Y-95180053D01*
X134403705Y-95180051D01*
X134204250Y-95069946D01*
X134204246Y-95069944D01*
X134199726Y-95067449D01*
X134194857Y-95065725D01*
X134194853Y-95065723D01*
X133980105Y-94989676D01*
X133980101Y-94989675D01*
X133975230Y-94987950D01*
X133970140Y-94987043D01*
X133970135Y-94987042D01*
X133842814Y-94964364D01*
X133740764Y-94946186D01*
X133651637Y-94945097D01*
X133507795Y-94943339D01*
X133507793Y-94943339D01*
X133502625Y-94943276D01*
X133267209Y-94979300D01*
X133040838Y-95053289D01*
X132829590Y-95163258D01*
X132825457Y-95166361D01*
X132825454Y-95166363D01*
X132757193Y-95217615D01*
X132639140Y-95306252D01*
X132635568Y-95309990D01*
X132498513Y-95453410D01*
X132474602Y-95478431D01*
X132440936Y-95527784D01*
X132439186Y-95530349D01*
X132384274Y-95575351D01*
X132313749Y-95583522D01*
X132250002Y-95552267D01*
X132229306Y-95527784D01*
X132218217Y-95510642D01*
X132218212Y-95510636D01*
X132215406Y-95506298D01*
X132205947Y-95495902D01*
X132164358Y-95450197D01*
X132055124Y-95330150D01*
X132051073Y-95326951D01*
X132051069Y-95326947D01*
X131872278Y-95185747D01*
X131872273Y-95185744D01*
X131868224Y-95182546D01*
X131863708Y-95180053D01*
X131863705Y-95180051D01*
X131664250Y-95069946D01*
X131664246Y-95069944D01*
X131659726Y-95067449D01*
X131654857Y-95065725D01*
X131654853Y-95065723D01*
X131440105Y-94989676D01*
X131440101Y-94989675D01*
X131435230Y-94987950D01*
X131430140Y-94987043D01*
X131430135Y-94987042D01*
X131302814Y-94964364D01*
X131200764Y-94946186D01*
X131111637Y-94945097D01*
X130967795Y-94943339D01*
X130967793Y-94943339D01*
X130962625Y-94943276D01*
X130727209Y-94979300D01*
X130500838Y-95053289D01*
X130289590Y-95163258D01*
X130285457Y-95166361D01*
X130285454Y-95166363D01*
X130217193Y-95217615D01*
X130099140Y-95306252D01*
X130095568Y-95309990D01*
X129958513Y-95453410D01*
X129934602Y-95478431D01*
X129900936Y-95527784D01*
X129899186Y-95530349D01*
X129844274Y-95575351D01*
X129773749Y-95583522D01*
X129710002Y-95552267D01*
X129689306Y-95527784D01*
X129678217Y-95510642D01*
X129678212Y-95510636D01*
X129675406Y-95506298D01*
X129665947Y-95495902D01*
X129624358Y-95450197D01*
X129515124Y-95330150D01*
X129511073Y-95326951D01*
X129511069Y-95326947D01*
X129332278Y-95185747D01*
X129332273Y-95185744D01*
X129328224Y-95182546D01*
X129323708Y-95180053D01*
X129323705Y-95180051D01*
X129124250Y-95069946D01*
X129124246Y-95069944D01*
X129119726Y-95067449D01*
X129114857Y-95065725D01*
X129114853Y-95065723D01*
X128900105Y-94989676D01*
X128900101Y-94989675D01*
X128895230Y-94987950D01*
X128890140Y-94987043D01*
X128890135Y-94987042D01*
X128762814Y-94964364D01*
X128660764Y-94946186D01*
X128571637Y-94945097D01*
X128427795Y-94943339D01*
X128427793Y-94943339D01*
X128422625Y-94943276D01*
X128187209Y-94979300D01*
X127960838Y-95053289D01*
X127749590Y-95163258D01*
X127745457Y-95166361D01*
X127745454Y-95166363D01*
X127677193Y-95217615D01*
X127559140Y-95306252D01*
X127555568Y-95309990D01*
X127418513Y-95453410D01*
X127394602Y-95478431D01*
X127360936Y-95527784D01*
X127359186Y-95530349D01*
X127304274Y-95575351D01*
X127233749Y-95583522D01*
X127170002Y-95552267D01*
X127149306Y-95527784D01*
X127138217Y-95510642D01*
X127138212Y-95510636D01*
X127135406Y-95506298D01*
X127125947Y-95495902D01*
X127084358Y-95450197D01*
X126975124Y-95330150D01*
X126971073Y-95326951D01*
X126971069Y-95326947D01*
X126792278Y-95185747D01*
X126792273Y-95185744D01*
X126788224Y-95182546D01*
X126783708Y-95180053D01*
X126783705Y-95180051D01*
X126584250Y-95069946D01*
X126584246Y-95069944D01*
X126579726Y-95067449D01*
X126574857Y-95065725D01*
X126574853Y-95065723D01*
X126360105Y-94989676D01*
X126360101Y-94989675D01*
X126355230Y-94987950D01*
X126350140Y-94987043D01*
X126350135Y-94987042D01*
X126222814Y-94964364D01*
X126120764Y-94946186D01*
X126031637Y-94945097D01*
X125887795Y-94943339D01*
X125887793Y-94943339D01*
X125882625Y-94943276D01*
X125647209Y-94979300D01*
X125420838Y-95053289D01*
X125209590Y-95163258D01*
X125205457Y-95166361D01*
X125205454Y-95166363D01*
X125137193Y-95217615D01*
X125019140Y-95306252D01*
X125015568Y-95309990D01*
X124878513Y-95453410D01*
X124854602Y-95478431D01*
X124812064Y-95540790D01*
X124757155Y-95585790D01*
X124686631Y-95593961D01*
X124634940Y-95569588D01*
X124632940Y-95569307D01*
X124621753Y-95574457D01*
X124420783Y-95775427D01*
X124358471Y-95809453D01*
X124287656Y-95804388D01*
X124234045Y-95765968D01*
X124166960Y-95683713D01*
X124166957Y-95683710D01*
X124163065Y-95678938D01*
X124153341Y-95670893D01*
X124124659Y-95647166D01*
X124070437Y-95602309D01*
X124030700Y-95543478D01*
X124029077Y-95472500D01*
X124061658Y-95416131D01*
X124261327Y-95216462D01*
X124268348Y-95203606D01*
X124260575Y-95192938D01*
X124252004Y-95186169D01*
X124243417Y-95180464D01*
X124044055Y-95070410D01*
X124034643Y-95066180D01*
X123819971Y-94990160D01*
X123810014Y-94987530D01*
X123585805Y-94947591D01*
X123575554Y-94946622D01*
X123347830Y-94943840D01*
X123337546Y-94944560D01*
X123112437Y-94979006D01*
X123102410Y-94981395D01*
X122885951Y-95052144D01*
X122876442Y-95056141D01*
X122674451Y-95161292D01*
X122665716Y-95166793D01*
X122629535Y-95193958D01*
X122621081Y-95205285D01*
X122627826Y-95217615D01*
X122826475Y-95416264D01*
X122860501Y-95478576D01*
X122855436Y-95549391D01*
X122816332Y-95603555D01*
X122734975Y-95668968D01*
X122652619Y-95767116D01*
X122593513Y-95806440D01*
X122522526Y-95807566D01*
X122467006Y-95775217D01*
X122269224Y-95577435D01*
X122256801Y-95570651D01*
X122193902Y-95595700D01*
X122124213Y-95582137D01*
X122076361Y-95538690D01*
X122058213Y-95510637D01*
X122055406Y-95506298D01*
X122045947Y-95495902D01*
X122004358Y-95450197D01*
X121895124Y-95330150D01*
X121891073Y-95326951D01*
X121891069Y-95326947D01*
X121712278Y-95185747D01*
X121712273Y-95185744D01*
X121708224Y-95182546D01*
X121703708Y-95180053D01*
X121703705Y-95180051D01*
X121504250Y-95069946D01*
X121504246Y-95069944D01*
X121499726Y-95067449D01*
X121494857Y-95065725D01*
X121494853Y-95065723D01*
X121280105Y-94989676D01*
X121280101Y-94989675D01*
X121275230Y-94987950D01*
X121270140Y-94987043D01*
X121270135Y-94987042D01*
X121142814Y-94964364D01*
X121040764Y-94946186D01*
X120951637Y-94945097D01*
X120807795Y-94943339D01*
X120807793Y-94943339D01*
X120802625Y-94943276D01*
X120567209Y-94979300D01*
X120340838Y-95053289D01*
X120129590Y-95163258D01*
X120125457Y-95166361D01*
X120125454Y-95166363D01*
X120057193Y-95217615D01*
X119939140Y-95306252D01*
X119935568Y-95309990D01*
X119798513Y-95453410D01*
X119774602Y-95478431D01*
X119771693Y-95482696D01*
X119771687Y-95482704D01*
X119739186Y-95530349D01*
X119640394Y-95675172D01*
X119590258Y-95783181D01*
X119553992Y-95861311D01*
X119540122Y-95891191D01*
X119476477Y-96120685D01*
X119475928Y-96125819D01*
X119475928Y-96125821D01*
X119470449Y-96177089D01*
X119451170Y-96357494D01*
X119451467Y-96362646D01*
X119451467Y-96362650D01*
X119457502Y-96467313D01*
X119464879Y-96595255D01*
X119466016Y-96600301D01*
X119466017Y-96600307D01*
X119495119Y-96729442D01*
X119517237Y-96827585D01*
X119519179Y-96832367D01*
X119519180Y-96832371D01*
X119604893Y-97043457D01*
X119606837Y-97048244D01*
X119609536Y-97052648D01*
X119726676Y-97243802D01*
X119731274Y-97251306D01*
X119887204Y-97431317D01*
X120070442Y-97583444D01*
X120074894Y-97586046D01*
X120074899Y-97586049D01*
X120248109Y-97687265D01*
X120276065Y-97703601D01*
X120498552Y-97788560D01*
X120503618Y-97789591D01*
X120503619Y-97789591D01*
X120557956Y-97800646D01*
X120731928Y-97836041D01*
X120866121Y-97840962D01*
X120964760Y-97844579D01*
X120964764Y-97844579D01*
X120969924Y-97844768D01*
X120975044Y-97844112D01*
X120975046Y-97844112D01*
X121201023Y-97815164D01*
X121201024Y-97815164D01*
X121206151Y-97814507D01*
X121290803Y-97789110D01*
X121429316Y-97747554D01*
X121429317Y-97747553D01*
X121434262Y-97746070D01*
X121648133Y-97641295D01*
X121652336Y-97638297D01*
X121652341Y-97638294D01*
X121837816Y-97505996D01*
X121837818Y-97505994D01*
X121842020Y-97502997D01*
X122010716Y-97334889D01*
X122013732Y-97330692D01*
X122013739Y-97330684D01*
X122076170Y-97243802D01*
X122132164Y-97200154D01*
X122202868Y-97193708D01*
X122249626Y-97217169D01*
X122253976Y-97217890D01*
X122264387Y-97213402D01*
X122467272Y-97010518D01*
X122529584Y-96976493D01*
X122600400Y-96981558D01*
X122655113Y-97021350D01*
X122682934Y-97056451D01*
X122715035Y-97096953D01*
X122818620Y-97185110D01*
X122857532Y-97244491D01*
X122858163Y-97315485D01*
X122826052Y-97370158D01*
X122625083Y-97571128D01*
X122618326Y-97583503D01*
X122623607Y-97590558D01*
X122811821Y-97700541D01*
X122821108Y-97704991D01*
X123033861Y-97786233D01*
X123043763Y-97789110D01*
X123266911Y-97834510D01*
X123277163Y-97835733D01*
X123504738Y-97844077D01*
X123515024Y-97843610D01*
X123740915Y-97814673D01*
X123751001Y-97812530D01*
X123969128Y-97747088D01*
X123978723Y-97743328D01*
X124183237Y-97643137D01*
X124192083Y-97637863D01*
X124257631Y-97591108D01*
X124266032Y-97580408D01*
X124259044Y-97567255D01*
X124061549Y-97369760D01*
X124027523Y-97307448D01*
X124032588Y-97236633D01*
X124073071Y-97181376D01*
X124137991Y-97130655D01*
X124142847Y-97126861D01*
X124236888Y-97017913D01*
X124296538Y-96979418D01*
X124367535Y-96979282D01*
X124421362Y-97011151D01*
X124618822Y-97208611D01*
X124632097Y-97215860D01*
X124694007Y-97192078D01*
X124763525Y-97206491D01*
X124805899Y-97243245D01*
X124808574Y-97246899D01*
X124811274Y-97251306D01*
X124967204Y-97431317D01*
X125150442Y-97583444D01*
X125154894Y-97586046D01*
X125154899Y-97586049D01*
X125328109Y-97687265D01*
X125356065Y-97703601D01*
X125578552Y-97788560D01*
X125583618Y-97789591D01*
X125583619Y-97789591D01*
X125637956Y-97800646D01*
X125811928Y-97836041D01*
X125946121Y-97840962D01*
X126044760Y-97844579D01*
X126044764Y-97844579D01*
X126049924Y-97844768D01*
X126055044Y-97844112D01*
X126055046Y-97844112D01*
X126281023Y-97815164D01*
X126281024Y-97815164D01*
X126286151Y-97814507D01*
X126370803Y-97789110D01*
X126509316Y-97747554D01*
X126509317Y-97747553D01*
X126514262Y-97746070D01*
X126728133Y-97641295D01*
X126732336Y-97638297D01*
X126732341Y-97638294D01*
X126917816Y-97505996D01*
X126917818Y-97505994D01*
X126922020Y-97502997D01*
X127090716Y-97334889D01*
X127148979Y-97253807D01*
X127204972Y-97210160D01*
X127275676Y-97203714D01*
X127338640Y-97236516D01*
X127350582Y-97250176D01*
X127351274Y-97251306D01*
X127507204Y-97431317D01*
X127690442Y-97583444D01*
X127694894Y-97586046D01*
X127694899Y-97586049D01*
X127868109Y-97687265D01*
X127896065Y-97703601D01*
X128118552Y-97788560D01*
X128123618Y-97789591D01*
X128123619Y-97789591D01*
X128177956Y-97800646D01*
X128351928Y-97836041D01*
X128486121Y-97840962D01*
X128584760Y-97844579D01*
X128584764Y-97844579D01*
X128589924Y-97844768D01*
X128595044Y-97844112D01*
X128595046Y-97844112D01*
X128821023Y-97815164D01*
X128821024Y-97815164D01*
X128826151Y-97814507D01*
X128910803Y-97789110D01*
X129049316Y-97747554D01*
X129049317Y-97747553D01*
X129054262Y-97746070D01*
X129268133Y-97641295D01*
X129272336Y-97638297D01*
X129272341Y-97638294D01*
X129457816Y-97505996D01*
X129457818Y-97505994D01*
X129462020Y-97502997D01*
X129630716Y-97334889D01*
X129688979Y-97253807D01*
X129744972Y-97210160D01*
X129815676Y-97203714D01*
X129878640Y-97236516D01*
X129890582Y-97250176D01*
X129891274Y-97251306D01*
X130047204Y-97431317D01*
X130230442Y-97583444D01*
X130234894Y-97586046D01*
X130234899Y-97586049D01*
X130408109Y-97687265D01*
X130436065Y-97703601D01*
X130658552Y-97788560D01*
X130663618Y-97789591D01*
X130663619Y-97789591D01*
X130717956Y-97800646D01*
X130891928Y-97836041D01*
X131026121Y-97840962D01*
X131124760Y-97844579D01*
X131124764Y-97844579D01*
X131129924Y-97844768D01*
X131135044Y-97844112D01*
X131135046Y-97844112D01*
X131361023Y-97815164D01*
X131361024Y-97815164D01*
X131366151Y-97814507D01*
X131450803Y-97789110D01*
X131589316Y-97747554D01*
X131589317Y-97747553D01*
X131594262Y-97746070D01*
X131808133Y-97641295D01*
X131812336Y-97638297D01*
X131812341Y-97638294D01*
X131997816Y-97505996D01*
X131997818Y-97505994D01*
X132002020Y-97502997D01*
X132170716Y-97334889D01*
X132228979Y-97253807D01*
X132284972Y-97210160D01*
X132355676Y-97203714D01*
X132418640Y-97236516D01*
X132430582Y-97250176D01*
X132431274Y-97251306D01*
X132587204Y-97431317D01*
X132770442Y-97583444D01*
X132774894Y-97586046D01*
X132774899Y-97586049D01*
X132948109Y-97687265D01*
X132976065Y-97703601D01*
X133198552Y-97788560D01*
X133203618Y-97789591D01*
X133203619Y-97789591D01*
X133257956Y-97800646D01*
X133431928Y-97836041D01*
X133566121Y-97840962D01*
X133664760Y-97844579D01*
X133664764Y-97844579D01*
X133669924Y-97844768D01*
X133675044Y-97844112D01*
X133675046Y-97844112D01*
X133901023Y-97815164D01*
X133901024Y-97815164D01*
X133906151Y-97814507D01*
X134134262Y-97746070D01*
X134134295Y-97746181D01*
X134203112Y-97740115D01*
X134267462Y-97774566D01*
X140821943Y-104329047D01*
X140829487Y-104337337D01*
X140833600Y-104343818D01*
X140839377Y-104349243D01*
X140883267Y-104390458D01*
X140886109Y-104393213D01*
X140905831Y-104412935D01*
X140908973Y-104415372D01*
X140909033Y-104415419D01*
X140918045Y-104423117D01*
X140943636Y-104447147D01*
X140950279Y-104453386D01*
X140957222Y-104457203D01*
X140968031Y-104463145D01*
X140984553Y-104473998D01*
X141000559Y-104486414D01*
X141007837Y-104489564D01*
X141007838Y-104489564D01*
X141041137Y-104503974D01*
X141051787Y-104509191D01*
X141090540Y-104530495D01*
X141098215Y-104532466D01*
X141098216Y-104532466D01*
X141110162Y-104535533D01*
X141128867Y-104541937D01*
X141147455Y-104549981D01*
X141155278Y-104551220D01*
X141155288Y-104551223D01*
X141191124Y-104556899D01*
X141202744Y-104559305D01*
X141237889Y-104568328D01*
X141245570Y-104570300D01*
X141265824Y-104570300D01*
X141285534Y-104571851D01*
X141305543Y-104575020D01*
X141313435Y-104574274D01*
X141349561Y-104570859D01*
X141361419Y-104570300D01*
X142344600Y-104570300D01*
X142412721Y-104590302D01*
X142431947Y-104606643D01*
X142432220Y-104606340D01*
X142437132Y-104610763D01*
X142441547Y-104615666D01*
X142596048Y-104727918D01*
X142602076Y-104730602D01*
X142602078Y-104730603D01*
X142734739Y-104789667D01*
X142770512Y-104805594D01*
X142863912Y-104825447D01*
X142950856Y-104843928D01*
X142950861Y-104843928D01*
X142957313Y-104845300D01*
X143148287Y-104845300D01*
X143154739Y-104843928D01*
X143154744Y-104843928D01*
X143241687Y-104825447D01*
X143335088Y-104805594D01*
X143370861Y-104789667D01*
X143503522Y-104730603D01*
X143503524Y-104730602D01*
X143509552Y-104727918D01*
X143664053Y-104615666D01*
X143700651Y-104575020D01*
X143787421Y-104478652D01*
X143787422Y-104478651D01*
X143791840Y-104473744D01*
X143833665Y-104401301D01*
X143885048Y-104352308D01*
X143954762Y-104338873D01*
X144020673Y-104365260D01*
X144031879Y-104375207D01*
X145408119Y-105751447D01*
X145415663Y-105759737D01*
X145419776Y-105766218D01*
X145425553Y-105771643D01*
X145469443Y-105812858D01*
X145472285Y-105815613D01*
X145492006Y-105835334D01*
X145495201Y-105837812D01*
X145504223Y-105845518D01*
X145536455Y-105875786D01*
X145543404Y-105879606D01*
X145554208Y-105885546D01*
X145570732Y-105896399D01*
X145586735Y-105908813D01*
X145627319Y-105926376D01*
X145637949Y-105931583D01*
X145676716Y-105952895D01*
X145684393Y-105954866D01*
X145684398Y-105954868D01*
X145696334Y-105957932D01*
X145715042Y-105964337D01*
X145733631Y-105972381D01*
X145741456Y-105973620D01*
X145741458Y-105973621D01*
X145777295Y-105979297D01*
X145788916Y-105981704D01*
X145824065Y-105990728D01*
X145831746Y-105992700D01*
X145852007Y-105992700D01*
X145871716Y-105994251D01*
X145891719Y-105997419D01*
X145899611Y-105996673D01*
X145904838Y-105996179D01*
X145935730Y-105993259D01*
X145947587Y-105992700D01*
X155235006Y-105992700D01*
X155303127Y-106012702D01*
X155324101Y-106029605D01*
X156482078Y-107187583D01*
X156516104Y-107249895D01*
X156518293Y-107263508D01*
X156533993Y-107412882D01*
X156535658Y-107428728D01*
X156594673Y-107610356D01*
X156690160Y-107775744D01*
X156694578Y-107780651D01*
X156694579Y-107780652D01*
X156782402Y-107878189D01*
X156817947Y-107917666D01*
X156972448Y-108029918D01*
X156978476Y-108032602D01*
X156978478Y-108032603D01*
X157096389Y-108085100D01*
X157146912Y-108107594D01*
X157240313Y-108127447D01*
X157327256Y-108145928D01*
X157327261Y-108145928D01*
X157333713Y-108147300D01*
X157524687Y-108147300D01*
X157531139Y-108145928D01*
X157531144Y-108145928D01*
X157618088Y-108127447D01*
X157711488Y-108107594D01*
X157762011Y-108085100D01*
X157879922Y-108032603D01*
X157879924Y-108032602D01*
X157885952Y-108029918D01*
X157936039Y-107993528D01*
X158018871Y-107933346D01*
X158040453Y-107917666D01*
X158044868Y-107912763D01*
X158044871Y-107912760D01*
X158048273Y-107908982D01*
X158108720Y-107871745D01*
X158179704Y-107873099D01*
X158193155Y-107878189D01*
X158338113Y-107942728D01*
X158366112Y-107955194D01*
X158459512Y-107975047D01*
X158546456Y-107993528D01*
X158546461Y-107993528D01*
X158552913Y-107994900D01*
X158743887Y-107994900D01*
X158750339Y-107993528D01*
X158750344Y-107993528D01*
X158837288Y-107975047D01*
X158930688Y-107955194D01*
X158955606Y-107944100D01*
X159099122Y-107880203D01*
X159099124Y-107880202D01*
X159105152Y-107877518D01*
X159168896Y-107831205D01*
X159235763Y-107807347D01*
X159305331Y-107823872D01*
X159309248Y-107826718D01*
X159483712Y-107904394D01*
X159577112Y-107924247D01*
X159664056Y-107942728D01*
X159664061Y-107942728D01*
X159670513Y-107944100D01*
X159861487Y-107944100D01*
X159867939Y-107942728D01*
X159867944Y-107942728D01*
X159954888Y-107924247D01*
X160048288Y-107904394D01*
X160054319Y-107901709D01*
X160216722Y-107829403D01*
X160216724Y-107829402D01*
X160222752Y-107826718D01*
X160232796Y-107819421D01*
X160298611Y-107771603D01*
X160377253Y-107714466D01*
X160408946Y-107679267D01*
X160500621Y-107577452D01*
X160500622Y-107577451D01*
X160505040Y-107572544D01*
X160575489Y-107450523D01*
X160626872Y-107401530D01*
X160696585Y-107388094D01*
X160762496Y-107414480D01*
X160778243Y-107429211D01*
X160831147Y-107487967D01*
X160882303Y-107525134D01*
X160969048Y-107588158D01*
X160985648Y-107600219D01*
X160991676Y-107602903D01*
X160991678Y-107602904D01*
X161124743Y-107662148D01*
X161160112Y-107677895D01*
X161253512Y-107697748D01*
X161340456Y-107716229D01*
X161340461Y-107716229D01*
X161346913Y-107717601D01*
X161537887Y-107717601D01*
X161544339Y-107716229D01*
X161544344Y-107716229D01*
X161631288Y-107697748D01*
X161724688Y-107677895D01*
X161760057Y-107662148D01*
X161893122Y-107602904D01*
X161893124Y-107602903D01*
X161899152Y-107600219D01*
X161915753Y-107588158D01*
X162002497Y-107525134D01*
X162053653Y-107487967D01*
X162123677Y-107410197D01*
X162177021Y-107350953D01*
X162177022Y-107350952D01*
X162181440Y-107346045D01*
X162244155Y-107237420D01*
X162264179Y-107211325D01*
X164072500Y-105403005D01*
X164134812Y-105368979D01*
X164161595Y-105366100D01*
X165772605Y-105366100D01*
X165840726Y-105386102D01*
X165887219Y-105439758D01*
X165897323Y-105510032D01*
X165867829Y-105574612D01*
X165861704Y-105581192D01*
X165661339Y-105781556D01*
X165469742Y-105973153D01*
X165461463Y-105980687D01*
X165454982Y-105984800D01*
X165420177Y-106021864D01*
X165408357Y-106034451D01*
X165405602Y-106037293D01*
X165385865Y-106057030D01*
X165383385Y-106060227D01*
X165375682Y-106069247D01*
X165345414Y-106101479D01*
X165341595Y-106108425D01*
X165341593Y-106108428D01*
X165335652Y-106119234D01*
X165324801Y-106135753D01*
X165312386Y-106151759D01*
X165309241Y-106159028D01*
X165309238Y-106159032D01*
X165294826Y-106192337D01*
X165289609Y-106202987D01*
X165268305Y-106241740D01*
X165266334Y-106249415D01*
X165266334Y-106249416D01*
X165263267Y-106261362D01*
X165256863Y-106280066D01*
X165248819Y-106298655D01*
X165247580Y-106306478D01*
X165247577Y-106306488D01*
X165241901Y-106342324D01*
X165239495Y-106353944D01*
X165234682Y-106372691D01*
X165228500Y-106396770D01*
X165228500Y-106417024D01*
X165226949Y-106436734D01*
X165223780Y-106456743D01*
X165224526Y-106464635D01*
X165227941Y-106500761D01*
X165228500Y-106512619D01*
X165228500Y-106536276D01*
X165208498Y-106604397D01*
X165196142Y-106620579D01*
X165122960Y-106701856D01*
X165027473Y-106867244D01*
X164968458Y-107048872D01*
X164967768Y-107055433D01*
X164967768Y-107055435D01*
X164959864Y-107130635D01*
X164948496Y-107238800D01*
X164949186Y-107245365D01*
X164966793Y-107412882D01*
X164968458Y-107428728D01*
X165027473Y-107610356D01*
X165122960Y-107775744D01*
X165127378Y-107780651D01*
X165127379Y-107780652D01*
X165215202Y-107878189D01*
X165250747Y-107917666D01*
X165405248Y-108029918D01*
X165411276Y-108032602D01*
X165411278Y-108032603D01*
X165529189Y-108085100D01*
X165579712Y-108107594D01*
X165673113Y-108127447D01*
X165760056Y-108145928D01*
X165760061Y-108145928D01*
X165766513Y-108147300D01*
X165957487Y-108147300D01*
X165963939Y-108145928D01*
X165963944Y-108145928D01*
X166050888Y-108127447D01*
X166144288Y-108107594D01*
X166194811Y-108085100D01*
X166312722Y-108032603D01*
X166312724Y-108032602D01*
X166318752Y-108029918D01*
X166473253Y-107917666D01*
X166508798Y-107878189D01*
X166596621Y-107780652D01*
X166596622Y-107780651D01*
X166601040Y-107775744D01*
X166696527Y-107610356D01*
X166755542Y-107428728D01*
X166757208Y-107412882D01*
X166774814Y-107245365D01*
X166775504Y-107238800D01*
X166764136Y-107130635D01*
X166756232Y-107055435D01*
X166756232Y-107055433D01*
X166755542Y-107048872D01*
X166696527Y-106867244D01*
X166629203Y-106750635D01*
X166624422Y-106742354D01*
X166607684Y-106673358D01*
X166630905Y-106606267D01*
X166644446Y-106590258D01*
X166879301Y-106355404D01*
X166941613Y-106321379D01*
X166968396Y-106318500D01*
X167024287Y-106318500D01*
X167030739Y-106317128D01*
X167030744Y-106317128D01*
X167117687Y-106298647D01*
X167211088Y-106278794D01*
X167217115Y-106276111D01*
X167217123Y-106276108D01*
X167228574Y-106271009D01*
X167298940Y-106261574D01*
X167363238Y-106291679D01*
X167401052Y-106351768D01*
X167400377Y-106422761D01*
X167373460Y-106470425D01*
X167314168Y-106536276D01*
X167256560Y-106600256D01*
X167200732Y-106696953D01*
X167173528Y-106744072D01*
X167161073Y-106765644D01*
X167102058Y-106947272D01*
X167101368Y-106953833D01*
X167101368Y-106953835D01*
X167090690Y-107055435D01*
X167082096Y-107137200D01*
X167082786Y-107143765D01*
X167094381Y-107254081D01*
X167102058Y-107327128D01*
X167161073Y-107508756D01*
X167164376Y-107514478D01*
X167164377Y-107514479D01*
X167186163Y-107552213D01*
X167256560Y-107674144D01*
X167329737Y-107755415D01*
X167360453Y-107819421D01*
X167362100Y-107839724D01*
X167362100Y-108287100D01*
X167342098Y-108355221D01*
X167288442Y-108401714D01*
X167236100Y-108413100D01*
X167223213Y-108413100D01*
X167216761Y-108414472D01*
X167216756Y-108414472D01*
X167129813Y-108432953D01*
X167036412Y-108452806D01*
X167030382Y-108455491D01*
X167030381Y-108455491D01*
X166867978Y-108527797D01*
X166867976Y-108527798D01*
X166861948Y-108530482D01*
X166707447Y-108642734D01*
X166579660Y-108784656D01*
X166484173Y-108950044D01*
X166425158Y-109131672D01*
X166424468Y-109138233D01*
X166424468Y-109138235D01*
X166407793Y-109296893D01*
X166380780Y-109362550D01*
X166371578Y-109372818D01*
X155724900Y-120019495D01*
X155662588Y-120053521D01*
X155635805Y-120056400D01*
X150965667Y-120056400D01*
X150954484Y-120055873D01*
X150946991Y-120054198D01*
X150939065Y-120054447D01*
X150939064Y-120054447D01*
X150878914Y-120056338D01*
X150874955Y-120056400D01*
X150847044Y-120056400D01*
X150843110Y-120056897D01*
X150843109Y-120056897D01*
X150843044Y-120056905D01*
X150831207Y-120057838D01*
X150799390Y-120058838D01*
X150794929Y-120058978D01*
X150787010Y-120059227D01*
X150769354Y-120064356D01*
X150767558Y-120064878D01*
X150748206Y-120068886D01*
X150741135Y-120069780D01*
X150728103Y-120071426D01*
X150720734Y-120074343D01*
X150720732Y-120074344D01*
X150686997Y-120087700D01*
X150675769Y-120091545D01*
X150633307Y-120103882D01*
X150626484Y-120107917D01*
X150626482Y-120107918D01*
X150615872Y-120114193D01*
X150598124Y-120122888D01*
X150579283Y-120130348D01*
X150572867Y-120135010D01*
X150572866Y-120135010D01*
X150543513Y-120156336D01*
X150533593Y-120162852D01*
X150502365Y-120181320D01*
X150502362Y-120181322D01*
X150495538Y-120185358D01*
X150481217Y-120199679D01*
X150466184Y-120212519D01*
X150449793Y-120224428D01*
X150444743Y-120230532D01*
X150444738Y-120230537D01*
X150421607Y-120258498D01*
X150413617Y-120267279D01*
X149706299Y-120974596D01*
X149643987Y-121008621D01*
X149617204Y-121011500D01*
X149561313Y-121011500D01*
X149554861Y-121012872D01*
X149554856Y-121012872D01*
X149471968Y-121030491D01*
X149374512Y-121051206D01*
X149368482Y-121053891D01*
X149368481Y-121053891D01*
X149206078Y-121126197D01*
X149206076Y-121126198D01*
X149200048Y-121128882D01*
X149194707Y-121132762D01*
X149194706Y-121132763D01*
X149171992Y-121149266D01*
X149045547Y-121241134D01*
X149041126Y-121246044D01*
X149041125Y-121246045D01*
X148940655Y-121357629D01*
X148917760Y-121383056D01*
X148901049Y-121412000D01*
X148827417Y-121539535D01*
X148822273Y-121548444D01*
X148763258Y-121730072D01*
X148762568Y-121736633D01*
X148762568Y-121736635D01*
X148751629Y-121840717D01*
X148743296Y-121920000D01*
X148743986Y-121926565D01*
X148761663Y-122094749D01*
X148763258Y-122109928D01*
X148822273Y-122291556D01*
X148825576Y-122297278D01*
X148825577Y-122297279D01*
X148851602Y-122342356D01*
X148917760Y-122456944D01*
X148922178Y-122461851D01*
X148922179Y-122461852D01*
X148971291Y-122516396D01*
X149045547Y-122598866D01*
X149200048Y-122711118D01*
X149206076Y-122713802D01*
X149206078Y-122713803D01*
X149368481Y-122786109D01*
X149374512Y-122788794D01*
X149451202Y-122805095D01*
X149554856Y-122827128D01*
X149554861Y-122827128D01*
X149561313Y-122828500D01*
X149752287Y-122828500D01*
X149758739Y-122827128D01*
X149758744Y-122827128D01*
X149862398Y-122805095D01*
X149939088Y-122788794D01*
X149945119Y-122786109D01*
X150107522Y-122713803D01*
X150107524Y-122713802D01*
X150113552Y-122711118D01*
X150268053Y-122598866D01*
X150342309Y-122516396D01*
X150391421Y-122461852D01*
X150391422Y-122461851D01*
X150395840Y-122456944D01*
X150461998Y-122342356D01*
X150488023Y-122297279D01*
X150488024Y-122297278D01*
X150491327Y-122291556D01*
X150550342Y-122109928D01*
X150551938Y-122094749D01*
X150567707Y-121944708D01*
X150594720Y-121879051D01*
X150603922Y-121868782D01*
X151112401Y-121360304D01*
X151174713Y-121326279D01*
X151201496Y-121323400D01*
X152558506Y-121323400D01*
X152626627Y-121343402D01*
X152673120Y-121397058D01*
X152683224Y-121467332D01*
X152653730Y-121531912D01*
X152647602Y-121538494D01*
X151789240Y-122396855D01*
X150967537Y-123218558D01*
X150904639Y-123252710D01*
X150746112Y-123286406D01*
X150740082Y-123289091D01*
X150740081Y-123289091D01*
X150577678Y-123361397D01*
X150577676Y-123361398D01*
X150571648Y-123364082D01*
X150417147Y-123476334D01*
X150289360Y-123618256D01*
X150193873Y-123783644D01*
X150134858Y-123965272D01*
X150134168Y-123971833D01*
X150134168Y-123971835D01*
X150120643Y-124100522D01*
X150114896Y-124155200D01*
X150115586Y-124161765D01*
X150126889Y-124269303D01*
X150134858Y-124345128D01*
X150193873Y-124526756D01*
X150197176Y-124532478D01*
X150197177Y-124532479D01*
X150225180Y-124580982D01*
X150289360Y-124692144D01*
X150293778Y-124697051D01*
X150293779Y-124697052D01*
X150348482Y-124757806D01*
X150417147Y-124834066D01*
X150484782Y-124883206D01*
X150544882Y-124926871D01*
X150571648Y-124946318D01*
X150577676Y-124949002D01*
X150577678Y-124949003D01*
X150715296Y-125010274D01*
X150746112Y-125023994D01*
X150835471Y-125042988D01*
X150926456Y-125062328D01*
X150926461Y-125062328D01*
X150932913Y-125063700D01*
X151123887Y-125063700D01*
X151130342Y-125062328D01*
X151130351Y-125062327D01*
X151202460Y-125046999D01*
X151273251Y-125052400D01*
X151329884Y-125095216D01*
X151349450Y-125145441D01*
X151351994Y-125144900D01*
X151353368Y-125151364D01*
X151354058Y-125157928D01*
X151413073Y-125339556D01*
X151416376Y-125345278D01*
X151416377Y-125345279D01*
X151418431Y-125348837D01*
X151508560Y-125504944D01*
X151512978Y-125509851D01*
X151512979Y-125509852D01*
X151550485Y-125551507D01*
X151636347Y-125646866D01*
X151722712Y-125709614D01*
X151785175Y-125754996D01*
X151790848Y-125759118D01*
X151796876Y-125761802D01*
X151796878Y-125761803D01*
X151959281Y-125834109D01*
X151965312Y-125836794D01*
X152058712Y-125856647D01*
X152145656Y-125875128D01*
X152145661Y-125875128D01*
X152152113Y-125876500D01*
X152343087Y-125876500D01*
X152349539Y-125875128D01*
X152349544Y-125875128D01*
X152436488Y-125856647D01*
X152529888Y-125836794D01*
X152535919Y-125834109D01*
X152698322Y-125761803D01*
X152698324Y-125761802D01*
X152704352Y-125759118D01*
X152710026Y-125754996D01*
X152772488Y-125709614D01*
X152858853Y-125646866D01*
X152944715Y-125551507D01*
X152982221Y-125509852D01*
X152982222Y-125509851D01*
X152986640Y-125504944D01*
X153076769Y-125348837D01*
X153078823Y-125345279D01*
X153078824Y-125345278D01*
X153082127Y-125339556D01*
X153141142Y-125157928D01*
X153142455Y-125145441D01*
X153160414Y-124974565D01*
X153161104Y-124968000D01*
X153151768Y-124879174D01*
X153141832Y-124784635D01*
X153141832Y-124784633D01*
X153141142Y-124778072D01*
X153082127Y-124596444D01*
X153073198Y-124580979D01*
X153056459Y-124511987D01*
X153079677Y-124444894D01*
X153093221Y-124428883D01*
X155199300Y-122322805D01*
X155261612Y-122288779D01*
X155288395Y-122285900D01*
X155344287Y-122285900D01*
X155350739Y-122284528D01*
X155350744Y-122284528D01*
X155443780Y-122264752D01*
X155531088Y-122246194D01*
X155584481Y-122222422D01*
X155699522Y-122171203D01*
X155699524Y-122171202D01*
X155705552Y-122168518D01*
X155721469Y-122156954D01*
X155812430Y-122090866D01*
X155860053Y-122056266D01*
X155914813Y-121995449D01*
X155983421Y-121919252D01*
X155983422Y-121919251D01*
X155987840Y-121914344D01*
X156046114Y-121813410D01*
X156080023Y-121754679D01*
X156080024Y-121754678D01*
X156083327Y-121748956D01*
X156142342Y-121567328D01*
X156143667Y-121554729D01*
X156161614Y-121383965D01*
X156162304Y-121377400D01*
X156161801Y-121372613D01*
X156181616Y-121305128D01*
X156241232Y-121256097D01*
X156258017Y-121249452D01*
X156274811Y-121237251D01*
X156293787Y-121223464D01*
X156303707Y-121216948D01*
X156334935Y-121198480D01*
X156334938Y-121198478D01*
X156341762Y-121194442D01*
X156356083Y-121180121D01*
X156371117Y-121167280D01*
X156381094Y-121160031D01*
X156387507Y-121155372D01*
X156415698Y-121121295D01*
X156423688Y-121112516D01*
X167147005Y-110389200D01*
X167209317Y-110355174D01*
X167280132Y-110360239D01*
X167336968Y-110402786D01*
X167361779Y-110469306D01*
X167362100Y-110478295D01*
X167362100Y-112613806D01*
X167342098Y-112681927D01*
X167325195Y-112702901D01*
X155446700Y-124581395D01*
X155384388Y-124615421D01*
X155357605Y-124618300D01*
X155301713Y-124618300D01*
X155295261Y-124619672D01*
X155295256Y-124619672D01*
X155208313Y-124638153D01*
X155114912Y-124658006D01*
X155108882Y-124660691D01*
X155108881Y-124660691D01*
X154946478Y-124732997D01*
X154946476Y-124732998D01*
X154940448Y-124735682D01*
X154785947Y-124847934D01*
X154658160Y-124989856D01*
X154562673Y-125155244D01*
X154503658Y-125336872D01*
X154502968Y-125343433D01*
X154502968Y-125343435D01*
X154489655Y-125470100D01*
X154483696Y-125526800D01*
X154503658Y-125716728D01*
X154562673Y-125898356D01*
X154565976Y-125904078D01*
X154565977Y-125904079D01*
X154571928Y-125914386D01*
X154658160Y-126063744D01*
X154662578Y-126068651D01*
X154662579Y-126068652D01*
X154736555Y-126150811D01*
X154785947Y-126205666D01*
X154940448Y-126317918D01*
X154946476Y-126320602D01*
X154946478Y-126320603D01*
X154952864Y-126323446D01*
X155114912Y-126395594D01*
X155208313Y-126415447D01*
X155295256Y-126433928D01*
X155295261Y-126433928D01*
X155301713Y-126435300D01*
X155492687Y-126435300D01*
X155499139Y-126433928D01*
X155499144Y-126433928D01*
X155586087Y-126415447D01*
X155679488Y-126395594D01*
X155841536Y-126323446D01*
X155847922Y-126320603D01*
X155847924Y-126320602D01*
X155853952Y-126317918D01*
X156008453Y-126205666D01*
X156057845Y-126150811D01*
X156131821Y-126068652D01*
X156131822Y-126068651D01*
X156136240Y-126063744D01*
X156222472Y-125914386D01*
X156228423Y-125904079D01*
X156228424Y-125904078D01*
X156231727Y-125898356D01*
X156290742Y-125716728D01*
X156308107Y-125551506D01*
X156335120Y-125485850D01*
X156344322Y-125475582D01*
X168387847Y-113432057D01*
X168396137Y-113424513D01*
X168402618Y-113420400D01*
X168449259Y-113370732D01*
X168452013Y-113367891D01*
X168471734Y-113348170D01*
X168474212Y-113344975D01*
X168481918Y-113335953D01*
X168506758Y-113309501D01*
X168512186Y-113303721D01*
X168521946Y-113285968D01*
X168532799Y-113269445D01*
X168540353Y-113259706D01*
X168545213Y-113253441D01*
X168562776Y-113212857D01*
X168567983Y-113202227D01*
X168589295Y-113163460D01*
X168591266Y-113155783D01*
X168591268Y-113155778D01*
X168594332Y-113143842D01*
X168600738Y-113125130D01*
X168605633Y-113113819D01*
X168608781Y-113106545D01*
X168610021Y-113098717D01*
X168610023Y-113098710D01*
X168615699Y-113062876D01*
X168618105Y-113051256D01*
X168627128Y-113016111D01*
X168627128Y-113016110D01*
X168629100Y-113008430D01*
X168629100Y-112988176D01*
X168630651Y-112968465D01*
X168632580Y-112956286D01*
X168633820Y-112948457D01*
X168629659Y-112904438D01*
X168629100Y-112892581D01*
X168629100Y-107839724D01*
X168649102Y-107771603D01*
X168661458Y-107755421D01*
X168734640Y-107674144D01*
X168805037Y-107552213D01*
X168826823Y-107514479D01*
X168826824Y-107514478D01*
X168830127Y-107508756D01*
X168889142Y-107327128D01*
X168896820Y-107254081D01*
X168908414Y-107143765D01*
X168909104Y-107137200D01*
X168900510Y-107055435D01*
X168889832Y-106953835D01*
X168889832Y-106953833D01*
X168889142Y-106947272D01*
X168830127Y-106765644D01*
X168817673Y-106744072D01*
X168790468Y-106696953D01*
X168734640Y-106600256D01*
X168655732Y-106512619D01*
X168611275Y-106463245D01*
X168611274Y-106463244D01*
X168606853Y-106458334D01*
X168501021Y-106381442D01*
X168457694Y-106349963D01*
X168457693Y-106349962D01*
X168452352Y-106346082D01*
X168446324Y-106343398D01*
X168446322Y-106343397D01*
X168283919Y-106271091D01*
X168283918Y-106271091D01*
X168277888Y-106268406D01*
X168184488Y-106248553D01*
X168097544Y-106230072D01*
X168097539Y-106230072D01*
X168091087Y-106228700D01*
X167900113Y-106228700D01*
X167893661Y-106230072D01*
X167893656Y-106230072D01*
X167806713Y-106248553D01*
X167713312Y-106268406D01*
X167707285Y-106271089D01*
X167707277Y-106271092D01*
X167695826Y-106276191D01*
X167625460Y-106285626D01*
X167561162Y-106255521D01*
X167523348Y-106195432D01*
X167524023Y-106124439D01*
X167550940Y-106076775D01*
X167663421Y-105951852D01*
X167663422Y-105951851D01*
X167667840Y-105946944D01*
X167763327Y-105781556D01*
X167822342Y-105599928D01*
X167823938Y-105584749D01*
X167835059Y-105478930D01*
X167862072Y-105413273D01*
X167920293Y-105372643D01*
X167960369Y-105366100D01*
X169899206Y-105366100D01*
X169967327Y-105386102D01*
X169988301Y-105403005D01*
X170754996Y-106169700D01*
X170789022Y-106232012D01*
X170783957Y-106302827D01*
X170759539Y-106343104D01*
X170710960Y-106397056D01*
X170688598Y-106435788D01*
X170644240Y-106512619D01*
X170615473Y-106562444D01*
X170556458Y-106744072D01*
X170536496Y-106934000D01*
X170537186Y-106940565D01*
X170547910Y-107042594D01*
X170556458Y-107123928D01*
X170615473Y-107305556D01*
X170618776Y-107311278D01*
X170618777Y-107311279D01*
X170631552Y-107333406D01*
X170710960Y-107470944D01*
X170784137Y-107552215D01*
X170814853Y-107616221D01*
X170816500Y-107636524D01*
X170816500Y-120304017D01*
X170796498Y-120372138D01*
X170779595Y-120393112D01*
X169914180Y-121258527D01*
X169851868Y-121292553D01*
X169781053Y-121287488D01*
X169724217Y-121244941D01*
X169699406Y-121178421D01*
X169714497Y-121109047D01*
X169720680Y-121099274D01*
X169724486Y-121095221D01*
X169734246Y-121077468D01*
X169745099Y-121060945D01*
X169747292Y-121058118D01*
X169757513Y-121044941D01*
X169775076Y-121004357D01*
X169780283Y-120993727D01*
X169801595Y-120954960D01*
X169803566Y-120947283D01*
X169803568Y-120947278D01*
X169806632Y-120935342D01*
X169813038Y-120916630D01*
X169817933Y-120905319D01*
X169821081Y-120898045D01*
X169822321Y-120890217D01*
X169822323Y-120890210D01*
X169827999Y-120854376D01*
X169830405Y-120842756D01*
X169839428Y-120807611D01*
X169839428Y-120807610D01*
X169841400Y-120799930D01*
X169841400Y-120779676D01*
X169842951Y-120759965D01*
X169844880Y-120747786D01*
X169846120Y-120739957D01*
X169841959Y-120695938D01*
X169841400Y-120684081D01*
X169841400Y-118660124D01*
X169861402Y-118592003D01*
X169873758Y-118575821D01*
X169946940Y-118494544D01*
X170042427Y-118329156D01*
X170101442Y-118147528D01*
X170111638Y-118050524D01*
X170120714Y-117964165D01*
X170121404Y-117957600D01*
X170101442Y-117767672D01*
X170042427Y-117586044D01*
X169946940Y-117420656D01*
X169887432Y-117354565D01*
X169823575Y-117283645D01*
X169823574Y-117283644D01*
X169819153Y-117278734D01*
X169710166Y-117199550D01*
X169669994Y-117170363D01*
X169669993Y-117170362D01*
X169664652Y-117166482D01*
X169658624Y-117163798D01*
X169658622Y-117163797D01*
X169496219Y-117091491D01*
X169496218Y-117091491D01*
X169490188Y-117088806D01*
X169396788Y-117068953D01*
X169309844Y-117050472D01*
X169309839Y-117050472D01*
X169303387Y-117049100D01*
X169112413Y-117049100D01*
X169105961Y-117050472D01*
X169105956Y-117050472D01*
X169019012Y-117068953D01*
X168925612Y-117088806D01*
X168919582Y-117091491D01*
X168919581Y-117091491D01*
X168757178Y-117163797D01*
X168757176Y-117163798D01*
X168751148Y-117166482D01*
X168745807Y-117170362D01*
X168745806Y-117170363D01*
X168705634Y-117199550D01*
X168596647Y-117278734D01*
X168592226Y-117283644D01*
X168592225Y-117283645D01*
X168528369Y-117354565D01*
X168468860Y-117420656D01*
X168373373Y-117586044D01*
X168314358Y-117767672D01*
X168294396Y-117957600D01*
X168295086Y-117964165D01*
X168304163Y-118050524D01*
X168314358Y-118147528D01*
X168373373Y-118329156D01*
X168468860Y-118494544D01*
X168542037Y-118575815D01*
X168572753Y-118639821D01*
X168574400Y-118660124D01*
X168574400Y-120405305D01*
X168554398Y-120473426D01*
X168537495Y-120494400D01*
X168254400Y-120777495D01*
X168192088Y-120811521D01*
X168165305Y-120814400D01*
X168109413Y-120814400D01*
X168102961Y-120815772D01*
X168102956Y-120815772D01*
X168045604Y-120827963D01*
X167922612Y-120854106D01*
X167916582Y-120856791D01*
X167916581Y-120856791D01*
X167754178Y-120929097D01*
X167754176Y-120929098D01*
X167748148Y-120931782D01*
X167742807Y-120935662D01*
X167742806Y-120935663D01*
X167706687Y-120961905D01*
X167593647Y-121044034D01*
X167589226Y-121048944D01*
X167589225Y-121048945D01*
X167472645Y-121178421D01*
X167465860Y-121185956D01*
X167427515Y-121252372D01*
X167375573Y-121342338D01*
X167370373Y-121351344D01*
X167311358Y-121532972D01*
X167310668Y-121539533D01*
X167310668Y-121539535D01*
X167293070Y-121706974D01*
X167291396Y-121722900D01*
X167292086Y-121729465D01*
X167306729Y-121868782D01*
X167311358Y-121912828D01*
X167370373Y-122094456D01*
X167373676Y-122100178D01*
X167373677Y-122100179D01*
X167379306Y-122109928D01*
X167465860Y-122259844D01*
X167470278Y-122264751D01*
X167470279Y-122264752D01*
X167499569Y-122297282D01*
X167593647Y-122401766D01*
X167661723Y-122451226D01*
X167739513Y-122507744D01*
X167748148Y-122514018D01*
X167754176Y-122516702D01*
X167754178Y-122516703D01*
X167845078Y-122557174D01*
X167922612Y-122591694D01*
X168016012Y-122611547D01*
X168102956Y-122630028D01*
X168102961Y-122630028D01*
X168109413Y-122631400D01*
X168237116Y-122631400D01*
X168305237Y-122651402D01*
X168351730Y-122705058D01*
X168361834Y-122775332D01*
X168332340Y-122839912D01*
X168326211Y-122846495D01*
X166147147Y-125025559D01*
X166138861Y-125033099D01*
X166132382Y-125037211D01*
X166126957Y-125042988D01*
X166085757Y-125086862D01*
X166083002Y-125089704D01*
X166063265Y-125109441D01*
X166060785Y-125112638D01*
X166053082Y-125121658D01*
X166022814Y-125153890D01*
X166018995Y-125160836D01*
X166018993Y-125160839D01*
X166013052Y-125171645D01*
X166002201Y-125188164D01*
X165989786Y-125204170D01*
X165986639Y-125211441D01*
X165982602Y-125218268D01*
X165979682Y-125216541D01*
X165944164Y-125259219D01*
X165876455Y-125280573D01*
X165861768Y-125279950D01*
X165855887Y-125278700D01*
X165698394Y-125278700D01*
X165630273Y-125258698D01*
X165609299Y-125241795D01*
X163507122Y-123139617D01*
X163473096Y-123077305D01*
X163470907Y-123063692D01*
X163454232Y-122905035D01*
X163454232Y-122905033D01*
X163453542Y-122898472D01*
X163394527Y-122716844D01*
X163388981Y-122707237D01*
X163342601Y-122626905D01*
X163299040Y-122551456D01*
X163171253Y-122409534D01*
X163016752Y-122297282D01*
X163010724Y-122294598D01*
X163010722Y-122294597D01*
X162848319Y-122222291D01*
X162848318Y-122222291D01*
X162842288Y-122219606D01*
X162740452Y-122197960D01*
X162661944Y-122181272D01*
X162661939Y-122181272D01*
X162655487Y-122179900D01*
X162464513Y-122179900D01*
X162458061Y-122181272D01*
X162458056Y-122181272D01*
X162379548Y-122197960D01*
X162277712Y-122219606D01*
X162271682Y-122222291D01*
X162271681Y-122222291D01*
X162109278Y-122294597D01*
X162109276Y-122294598D01*
X162103248Y-122297282D01*
X161948747Y-122409534D01*
X161820960Y-122551456D01*
X161777399Y-122626905D01*
X161731020Y-122707237D01*
X161725473Y-122716844D01*
X161666458Y-122898472D01*
X161646496Y-123088400D01*
X161666458Y-123278328D01*
X161725473Y-123459956D01*
X161820960Y-123625344D01*
X161899574Y-123712653D01*
X161930289Y-123776658D01*
X161921526Y-123847111D01*
X161896705Y-123881616D01*
X161897947Y-123882734D01*
X161810331Y-123980042D01*
X161770160Y-124024656D01*
X161730139Y-124093974D01*
X161698581Y-124148635D01*
X161674673Y-124190044D01*
X161615658Y-124371672D01*
X161595696Y-124561600D01*
X161596386Y-124568165D01*
X161613993Y-124735682D01*
X161615658Y-124751528D01*
X161674673Y-124933156D01*
X161677976Y-124938878D01*
X161677977Y-124938879D01*
X161704575Y-124984948D01*
X161770160Y-125098544D01*
X161774578Y-125103451D01*
X161774579Y-125103452D01*
X161850854Y-125188164D01*
X161897947Y-125240466D01*
X161955086Y-125281980D01*
X162044120Y-125346667D01*
X162052448Y-125352718D01*
X162058476Y-125355402D01*
X162058478Y-125355403D01*
X162220881Y-125427709D01*
X162226912Y-125430394D01*
X162320312Y-125450247D01*
X162407256Y-125468728D01*
X162407261Y-125468728D01*
X162413713Y-125470100D01*
X162604687Y-125470100D01*
X162611139Y-125468728D01*
X162611144Y-125468728D01*
X162698088Y-125450247D01*
X162791488Y-125430394D01*
X162803368Y-125425105D01*
X162849797Y-125404433D01*
X162920164Y-125394999D01*
X162984461Y-125425105D01*
X162990141Y-125430445D01*
X164914878Y-127355183D01*
X164948904Y-127417495D01*
X164951093Y-127431108D01*
X164964311Y-127556867D01*
X164968458Y-127596328D01*
X165027473Y-127777956D01*
X165122960Y-127943344D01*
X165250747Y-128085266D01*
X165405248Y-128197518D01*
X165411276Y-128200202D01*
X165411278Y-128200203D01*
X165568046Y-128270000D01*
X165579712Y-128275194D01*
X165673112Y-128295047D01*
X165760056Y-128313528D01*
X165760061Y-128313528D01*
X165766513Y-128314900D01*
X165779900Y-128314900D01*
X165848021Y-128334902D01*
X165894514Y-128388558D01*
X165905900Y-128440900D01*
X165905900Y-132764405D01*
X165885898Y-132832526D01*
X165868995Y-132853501D01*
X165149499Y-133572996D01*
X165087187Y-133607021D01*
X165060404Y-133609900D01*
X165004513Y-133609900D01*
X164998061Y-133611272D01*
X164998056Y-133611272D01*
X164911112Y-133629753D01*
X164817712Y-133649606D01*
X164811682Y-133652291D01*
X164811681Y-133652291D01*
X164649278Y-133724597D01*
X164649276Y-133724598D01*
X164643248Y-133727282D01*
X164488747Y-133839534D01*
X164484326Y-133844444D01*
X164484325Y-133844445D01*
X164437365Y-133896600D01*
X164360960Y-133981456D01*
X164328061Y-134038438D01*
X164269949Y-134139092D01*
X164265473Y-134146844D01*
X164206458Y-134328472D01*
X164186496Y-134518400D01*
X164206458Y-134708328D01*
X164265473Y-134889956D01*
X164360960Y-135055344D01*
X164488747Y-135197266D01*
X164643248Y-135309518D01*
X164649276Y-135312202D01*
X164649278Y-135312203D01*
X164772562Y-135367092D01*
X164817712Y-135387194D01*
X164911113Y-135407047D01*
X164998056Y-135425528D01*
X164998061Y-135425528D01*
X165004513Y-135426900D01*
X165195487Y-135426900D01*
X165201939Y-135425528D01*
X165201944Y-135425528D01*
X165288887Y-135407047D01*
X165382288Y-135387194D01*
X165427438Y-135367092D01*
X165550722Y-135312203D01*
X165550724Y-135312202D01*
X165556752Y-135309518D01*
X165711253Y-135197266D01*
X165839040Y-135055344D01*
X165934527Y-134889956D01*
X165993542Y-134708328D01*
X166010907Y-134543108D01*
X166037920Y-134477451D01*
X166047122Y-134467182D01*
X166475867Y-134038438D01*
X166931658Y-133582647D01*
X166939937Y-133575113D01*
X166946418Y-133571000D01*
X166993044Y-133521348D01*
X166995798Y-133518507D01*
X167015535Y-133498770D01*
X167018015Y-133495573D01*
X167025720Y-133486551D01*
X167050559Y-133460100D01*
X167055986Y-133454321D01*
X167059805Y-133447375D01*
X167059807Y-133447372D01*
X167065748Y-133436566D01*
X167076599Y-133420047D01*
X167084158Y-133410301D01*
X167089014Y-133404041D01*
X167092159Y-133396772D01*
X167092162Y-133396768D01*
X167106574Y-133363463D01*
X167111791Y-133352813D01*
X167133095Y-133314060D01*
X167138133Y-133294437D01*
X167144537Y-133275734D01*
X167149433Y-133264420D01*
X167149433Y-133264419D01*
X167152581Y-133257145D01*
X167153820Y-133249322D01*
X167153823Y-133249312D01*
X167159499Y-133213476D01*
X167161905Y-133201856D01*
X167170928Y-133166711D01*
X167170928Y-133166710D01*
X167172900Y-133159030D01*
X167172900Y-133138776D01*
X167174451Y-133119065D01*
X167176380Y-133106886D01*
X167177620Y-133099057D01*
X167173459Y-133055038D01*
X167172900Y-133043181D01*
X167172900Y-131114800D01*
X175565696Y-131114800D01*
X175585658Y-131304728D01*
X175644673Y-131486356D01*
X175740160Y-131651744D01*
X175813337Y-131733015D01*
X175844053Y-131797021D01*
X175845700Y-131817324D01*
X175845700Y-135252433D01*
X175845173Y-135263616D01*
X175843498Y-135271109D01*
X175843747Y-135279035D01*
X175843747Y-135279036D01*
X175845638Y-135339186D01*
X175845700Y-135343145D01*
X175845700Y-135371056D01*
X175846197Y-135374990D01*
X175846197Y-135374991D01*
X175846205Y-135375056D01*
X175847138Y-135386893D01*
X175848527Y-135431089D01*
X175854178Y-135450539D01*
X175858187Y-135469900D01*
X175860726Y-135489997D01*
X175863645Y-135497368D01*
X175863645Y-135497370D01*
X175877004Y-135531112D01*
X175880849Y-135542342D01*
X175893182Y-135584793D01*
X175897215Y-135591612D01*
X175897217Y-135591617D01*
X175903493Y-135602228D01*
X175912188Y-135619976D01*
X175919648Y-135638817D01*
X175924310Y-135645233D01*
X175924310Y-135645234D01*
X175945636Y-135674587D01*
X175952152Y-135684507D01*
X175974658Y-135722562D01*
X175988979Y-135736883D01*
X176001819Y-135751916D01*
X176013728Y-135768307D01*
X176019834Y-135773358D01*
X176047805Y-135796498D01*
X176056584Y-135804488D01*
X176649678Y-136397582D01*
X176683704Y-136459894D01*
X176685892Y-136473503D01*
X176703258Y-136638728D01*
X176762273Y-136820356D01*
X176857760Y-136985744D01*
X176985547Y-137127666D01*
X177140048Y-137239918D01*
X177146076Y-137242602D01*
X177146078Y-137242603D01*
X177308481Y-137314909D01*
X177314512Y-137317594D01*
X177407913Y-137337447D01*
X177494856Y-137355928D01*
X177494861Y-137355928D01*
X177501313Y-137357300D01*
X177692287Y-137357300D01*
X177698739Y-137355928D01*
X177698744Y-137355928D01*
X177785687Y-137337447D01*
X177879088Y-137317594D01*
X177885119Y-137314909D01*
X178047522Y-137242603D01*
X178047524Y-137242602D01*
X178053552Y-137239918D01*
X178208053Y-137127666D01*
X178335840Y-136985744D01*
X178431327Y-136820356D01*
X178490342Y-136638728D01*
X178510304Y-136448800D01*
X178490342Y-136258872D01*
X178431327Y-136077244D01*
X178335840Y-135911856D01*
X178208053Y-135769934D01*
X178053552Y-135657682D01*
X178047524Y-135654998D01*
X178047522Y-135654997D01*
X177885119Y-135582691D01*
X177885118Y-135582691D01*
X177879088Y-135580006D01*
X177785688Y-135560153D01*
X177698744Y-135541672D01*
X177698739Y-135541672D01*
X177692287Y-135540300D01*
X177636395Y-135540300D01*
X177568274Y-135520298D01*
X177547299Y-135503395D01*
X177149604Y-135105699D01*
X177115579Y-135043387D01*
X177112700Y-135016604D01*
X177112700Y-131817324D01*
X177132702Y-131749203D01*
X177145058Y-131733021D01*
X177218240Y-131651744D01*
X177313727Y-131486356D01*
X177372742Y-131304728D01*
X177392704Y-131114800D01*
X177372742Y-130924872D01*
X177325560Y-130779662D01*
X188031969Y-130779662D01*
X188045078Y-131007017D01*
X188046514Y-131017237D01*
X188096580Y-131239393D01*
X188099659Y-131249221D01*
X188185338Y-131460223D01*
X188189991Y-131469434D01*
X188285153Y-131624723D01*
X188295611Y-131634185D01*
X188304387Y-131630402D01*
X188501577Y-131433212D01*
X188563889Y-131399186D01*
X188634704Y-131404251D01*
X188689416Y-131444042D01*
X188749253Y-131519537D01*
X188852946Y-131607786D01*
X188891858Y-131667167D01*
X188892489Y-131738161D01*
X188860377Y-131792834D01*
X188665087Y-131988124D01*
X188658327Y-132000504D01*
X188663608Y-132007558D01*
X188851821Y-132117541D01*
X188861108Y-132121991D01*
X189073861Y-132203233D01*
X189083763Y-132206110D01*
X189306911Y-132251510D01*
X189317163Y-132252733D01*
X189544738Y-132261077D01*
X189555024Y-132260610D01*
X189780915Y-132231673D01*
X189791001Y-132229530D01*
X190009128Y-132164088D01*
X190018723Y-132160328D01*
X190223237Y-132060137D01*
X190232083Y-132054863D01*
X190297631Y-132008108D01*
X190306032Y-131997408D01*
X190299044Y-131984255D01*
X190107248Y-131792459D01*
X190073222Y-131730147D01*
X190078287Y-131659332D01*
X190118770Y-131604075D01*
X190183534Y-131553476D01*
X190188390Y-131549682D01*
X190282559Y-131440586D01*
X190342210Y-131402090D01*
X190413207Y-131401954D01*
X190467034Y-131433823D01*
X190658822Y-131625611D01*
X190670832Y-131632169D01*
X190682572Y-131623201D01*
X190726241Y-131562429D01*
X190731551Y-131553592D01*
X190832450Y-131349438D01*
X190836249Y-131339843D01*
X190902449Y-131121957D01*
X190904628Y-131111876D01*
X190934591Y-130884288D01*
X190935110Y-130877615D01*
X190936680Y-130813365D01*
X190936486Y-130806646D01*
X190917679Y-130577887D01*
X190915994Y-130567707D01*
X190860515Y-130346837D01*
X190857195Y-130337086D01*
X190766384Y-130128233D01*
X190761518Y-130119158D01*
X190682008Y-129996256D01*
X190671322Y-129987052D01*
X190661755Y-129991456D01*
X190466469Y-130186742D01*
X190404157Y-130220768D01*
X190333342Y-130215703D01*
X190279731Y-130177283D01*
X190212663Y-130095049D01*
X190212660Y-130095046D01*
X190208768Y-130090274D01*
X190116119Y-130013628D01*
X190076381Y-129954795D01*
X190074759Y-129883817D01*
X190107340Y-129827449D01*
X190301329Y-129633460D01*
X190301959Y-129632306D01*
X190314051Y-129620738D01*
X190314139Y-129620650D01*
X190314141Y-129620652D01*
X190357112Y-129579543D01*
X190477491Y-129520569D01*
X190482133Y-129518295D01*
X190486336Y-129515297D01*
X190486341Y-129515294D01*
X190671816Y-129382996D01*
X190671818Y-129382994D01*
X190676020Y-129379997D01*
X190844716Y-129211889D01*
X190983690Y-129018486D01*
X191029774Y-128925244D01*
X191086917Y-128809624D01*
X191086918Y-128809622D01*
X191089211Y-128804982D01*
X191158443Y-128577111D01*
X191189529Y-128340992D01*
X191191264Y-128270000D01*
X191171750Y-128032644D01*
X191113731Y-127801663D01*
X191058363Y-127674324D01*
X191020827Y-127587996D01*
X191020825Y-127587993D01*
X191018767Y-127583259D01*
X191001694Y-127556867D01*
X190892216Y-127387642D01*
X190889406Y-127383298D01*
X190863824Y-127355183D01*
X190838358Y-127327197D01*
X190729124Y-127207150D01*
X190725073Y-127203951D01*
X190725069Y-127203947D01*
X190546278Y-127062747D01*
X190546273Y-127062744D01*
X190542224Y-127059546D01*
X190537708Y-127057053D01*
X190537705Y-127057051D01*
X190338250Y-126946946D01*
X190338246Y-126946944D01*
X190333726Y-126944449D01*
X190328857Y-126942725D01*
X190328853Y-126942723D01*
X190114105Y-126866676D01*
X190114101Y-126866675D01*
X190109230Y-126864950D01*
X190024555Y-126849867D01*
X189961000Y-126818231D01*
X189924637Y-126757254D01*
X189927013Y-126686297D01*
X189967374Y-126627889D01*
X189989839Y-126613357D01*
X190031303Y-126592412D01*
X190188390Y-126469682D01*
X190210962Y-126443532D01*
X190314618Y-126323446D01*
X190314619Y-126323444D01*
X190318647Y-126318778D01*
X190417112Y-126145448D01*
X190480035Y-125956294D01*
X190488148Y-125892071D01*
X190504578Y-125762023D01*
X190504579Y-125762013D01*
X190505020Y-125758520D01*
X190505418Y-125730000D01*
X190485965Y-125531606D01*
X190484184Y-125525707D01*
X190484183Y-125525702D01*
X190430129Y-125346667D01*
X190428348Y-125340768D01*
X190355718Y-125204170D01*
X190337655Y-125170198D01*
X190337653Y-125170195D01*
X190334761Y-125164756D01*
X190330871Y-125159986D01*
X190330868Y-125159982D01*
X190212663Y-125015049D01*
X190212660Y-125015046D01*
X190208768Y-125010274D01*
X190165604Y-124974565D01*
X190059919Y-124887135D01*
X190055170Y-124883206D01*
X189879815Y-124788392D01*
X189689385Y-124729444D01*
X189683260Y-124728800D01*
X189683259Y-124728800D01*
X189497260Y-124709251D01*
X189497258Y-124709251D01*
X189491131Y-124708607D01*
X189368252Y-124719790D01*
X189298746Y-124726115D01*
X189298745Y-124726115D01*
X189292605Y-124726674D01*
X189286691Y-124728415D01*
X189286689Y-124728415D01*
X189248812Y-124739563D01*
X189101370Y-124782958D01*
X188924709Y-124875314D01*
X188919909Y-124879174D01*
X188919908Y-124879174D01*
X188914893Y-124883206D01*
X188769351Y-125000225D01*
X188641214Y-125152933D01*
X188545179Y-125327621D01*
X188543318Y-125333488D01*
X188543317Y-125333490D01*
X188536366Y-125355403D01*
X188484902Y-125517635D01*
X188462682Y-125715739D01*
X188479362Y-125914386D01*
X188534310Y-126106009D01*
X188625430Y-126283311D01*
X188749253Y-126439537D01*
X188901063Y-126568737D01*
X188906441Y-126571743D01*
X188906443Y-126571744D01*
X188948392Y-126595188D01*
X189075076Y-126665989D01*
X189080934Y-126667892D01*
X189080940Y-126667895D01*
X189164371Y-126695003D01*
X189222977Y-126735076D01*
X189250614Y-126800473D01*
X189238507Y-126870430D01*
X189190501Y-126922736D01*
X189177090Y-126929553D01*
X189174838Y-126930289D01*
X189170258Y-126932673D01*
X189170256Y-126932674D01*
X189147637Y-126944449D01*
X188963590Y-127040258D01*
X188959457Y-127043361D01*
X188959454Y-127043363D01*
X188933637Y-127062747D01*
X188773140Y-127183252D01*
X188608602Y-127355431D01*
X188605688Y-127359703D01*
X188605687Y-127359704D01*
X188512290Y-127496619D01*
X188474394Y-127552172D01*
X188374122Y-127768191D01*
X188310477Y-127997685D01*
X188309928Y-128002819D01*
X188309928Y-128002821D01*
X188304449Y-128054089D01*
X188285170Y-128234494D01*
X188285467Y-128239646D01*
X188285467Y-128239650D01*
X188291502Y-128344313D01*
X188298879Y-128472255D01*
X188300016Y-128477301D01*
X188300017Y-128477307D01*
X188333111Y-128624156D01*
X188351237Y-128704585D01*
X188353179Y-128709367D01*
X188353180Y-128709371D01*
X188438893Y-128920457D01*
X188440837Y-128925244D01*
X188565274Y-129128306D01*
X188721204Y-129308317D01*
X188725179Y-129311617D01*
X188725182Y-129311620D01*
X188772554Y-129350949D01*
X188812189Y-129409852D01*
X188813687Y-129480833D01*
X188776572Y-129541356D01*
X188750250Y-129559656D01*
X188714451Y-129578292D01*
X188705716Y-129583793D01*
X188669535Y-129610958D01*
X188661081Y-129622285D01*
X188667826Y-129634615D01*
X188860785Y-129827574D01*
X188894811Y-129889886D01*
X188889746Y-129960701D01*
X188850643Y-130014865D01*
X188769351Y-130080225D01*
X188729068Y-130128233D01*
X188686944Y-130178434D01*
X188627834Y-130217761D01*
X188556846Y-130218887D01*
X188501327Y-130186538D01*
X188309224Y-129994435D01*
X188297688Y-129988135D01*
X188285406Y-129997758D01*
X188223747Y-130088146D01*
X188218654Y-130097110D01*
X188122768Y-130303679D01*
X188119211Y-130313347D01*
X188058352Y-130532797D01*
X188056421Y-130542916D01*
X188032221Y-130769373D01*
X188031969Y-130779662D01*
X177325560Y-130779662D01*
X177313727Y-130743244D01*
X177218240Y-130577856D01*
X177090453Y-130435934D01*
X176935952Y-130323682D01*
X176929924Y-130320998D01*
X176929922Y-130320997D01*
X176767519Y-130248691D01*
X176767518Y-130248691D01*
X176761488Y-130246006D01*
X176668088Y-130226153D01*
X176581144Y-130207672D01*
X176581139Y-130207672D01*
X176574687Y-130206300D01*
X176383713Y-130206300D01*
X176377261Y-130207672D01*
X176377256Y-130207672D01*
X176290312Y-130226153D01*
X176196912Y-130246006D01*
X176190882Y-130248691D01*
X176190881Y-130248691D01*
X176028478Y-130320997D01*
X176028476Y-130320998D01*
X176022448Y-130323682D01*
X175867947Y-130435934D01*
X175740160Y-130577856D01*
X175644673Y-130743244D01*
X175585658Y-130924872D01*
X175565696Y-131114800D01*
X167172900Y-131114800D01*
X167172900Y-125843805D01*
X167192902Y-125775684D01*
X167209805Y-125754710D01*
X168788633Y-124175883D01*
X168850945Y-124141857D01*
X168921761Y-124146922D01*
X168951787Y-124163041D01*
X169094348Y-124266618D01*
X169100376Y-124269302D01*
X169100378Y-124269303D01*
X169255944Y-124338565D01*
X169268812Y-124344294D01*
X169362212Y-124364147D01*
X169449156Y-124382628D01*
X169449161Y-124382628D01*
X169455613Y-124384000D01*
X169646587Y-124384000D01*
X169653039Y-124382628D01*
X169653044Y-124382628D01*
X169739988Y-124364147D01*
X169833388Y-124344294D01*
X169846256Y-124338565D01*
X170001822Y-124269303D01*
X170001824Y-124269302D01*
X170007852Y-124266618D01*
X170162353Y-124154366D01*
X170166768Y-124149463D01*
X170171680Y-124145040D01*
X170172805Y-124146289D01*
X170226114Y-124113449D01*
X170259300Y-124109000D01*
X172254133Y-124109000D01*
X172265316Y-124109527D01*
X172272809Y-124111202D01*
X172280735Y-124110953D01*
X172280736Y-124110953D01*
X172340886Y-124109062D01*
X172344845Y-124109000D01*
X172372756Y-124109000D01*
X172376691Y-124108503D01*
X172376756Y-124108495D01*
X172388593Y-124107562D01*
X172420851Y-124106548D01*
X172424870Y-124106422D01*
X172432789Y-124106173D01*
X172452243Y-124100521D01*
X172471600Y-124096513D01*
X172483830Y-124094968D01*
X172483831Y-124094968D01*
X172491697Y-124093974D01*
X172499068Y-124091055D01*
X172499070Y-124091055D01*
X172532812Y-124077696D01*
X172544042Y-124073851D01*
X172578883Y-124063729D01*
X172578884Y-124063729D01*
X172586493Y-124061518D01*
X172593312Y-124057485D01*
X172593317Y-124057483D01*
X172603928Y-124051207D01*
X172621676Y-124042512D01*
X172640517Y-124035052D01*
X172661582Y-124019748D01*
X172676287Y-124009064D01*
X172686207Y-124002548D01*
X172717435Y-123984080D01*
X172717438Y-123984078D01*
X172724262Y-123980042D01*
X172738583Y-123965721D01*
X172753617Y-123952880D01*
X172763594Y-123945631D01*
X172770007Y-123940972D01*
X172798198Y-123906895D01*
X172806188Y-123898116D01*
X174036156Y-122668148D01*
X174098468Y-122634122D01*
X174169283Y-122639187D01*
X174199309Y-122655305D01*
X174346048Y-122761918D01*
X174352076Y-122764602D01*
X174352078Y-122764603D01*
X174495594Y-122828500D01*
X174520512Y-122839594D01*
X174613912Y-122859447D01*
X174700856Y-122877928D01*
X174700861Y-122877928D01*
X174707313Y-122879300D01*
X174898287Y-122879300D01*
X174904739Y-122877928D01*
X174904744Y-122877928D01*
X174991688Y-122859447D01*
X175085088Y-122839594D01*
X175110006Y-122828500D01*
X175253522Y-122764603D01*
X175253524Y-122764602D01*
X175259552Y-122761918D01*
X175414053Y-122649666D01*
X175456297Y-122602749D01*
X175537421Y-122512652D01*
X175537422Y-122512651D01*
X175541840Y-122507744D01*
X175637327Y-122342356D01*
X175674485Y-122227996D01*
X175714559Y-122169391D01*
X175779956Y-122141754D01*
X175849912Y-122153861D01*
X175868379Y-122164997D01*
X175915168Y-122198991D01*
X175920848Y-122203118D01*
X175926876Y-122205802D01*
X175926878Y-122205803D01*
X176089281Y-122278109D01*
X176095312Y-122280794D01*
X176172882Y-122297282D01*
X176275656Y-122319128D01*
X176275661Y-122319128D01*
X176282113Y-122320500D01*
X176473087Y-122320500D01*
X176479539Y-122319128D01*
X176479544Y-122319128D01*
X176582318Y-122297282D01*
X176659888Y-122280794D01*
X176665919Y-122278109D01*
X176828322Y-122205803D01*
X176828324Y-122205802D01*
X176834352Y-122203118D01*
X176840033Y-122198991D01*
X176918812Y-122141754D01*
X176988853Y-122090866D01*
X177116640Y-121948944D01*
X177212127Y-121783556D01*
X177271142Y-121601928D01*
X177276066Y-121555085D01*
X177290414Y-121418565D01*
X177291104Y-121412000D01*
X177285671Y-121360304D01*
X177271832Y-121228635D01*
X177271832Y-121228633D01*
X177271142Y-121222072D01*
X177212127Y-121040444D01*
X177116640Y-120875056D01*
X177111529Y-120869379D01*
X176993275Y-120738045D01*
X176993274Y-120738044D01*
X176988853Y-120733134D01*
X176858832Y-120638668D01*
X176839694Y-120624763D01*
X176839693Y-120624762D01*
X176834352Y-120620882D01*
X176828324Y-120618198D01*
X176828322Y-120618197D01*
X176665919Y-120545891D01*
X176665918Y-120545891D01*
X176659888Y-120543206D01*
X176550473Y-120519949D01*
X176479544Y-120504872D01*
X176479539Y-120504872D01*
X176473087Y-120503500D01*
X176417195Y-120503500D01*
X176349074Y-120483498D01*
X176328100Y-120466595D01*
X176184405Y-120322900D01*
X176150379Y-120260588D01*
X176147500Y-120233805D01*
X176147500Y-118050524D01*
X176167502Y-117982403D01*
X176179858Y-117966221D01*
X176253040Y-117884944D01*
X176348527Y-117719556D01*
X176407542Y-117537928D01*
X176408235Y-117531340D01*
X176426814Y-117354565D01*
X176427504Y-117348000D01*
X176412303Y-117203373D01*
X176408232Y-117164635D01*
X176408232Y-117164633D01*
X176407542Y-117158072D01*
X176348527Y-116976444D01*
X176253040Y-116811056D01*
X176125253Y-116669134D01*
X176003543Y-116580706D01*
X175976094Y-116560763D01*
X175976093Y-116560762D01*
X175970752Y-116556882D01*
X175964724Y-116554198D01*
X175964722Y-116554197D01*
X175802319Y-116481891D01*
X175802318Y-116481891D01*
X175796288Y-116479206D01*
X175779507Y-116475639D01*
X175717033Y-116441912D01*
X175682711Y-116379763D01*
X175687437Y-116308924D01*
X175716607Y-116263297D01*
X176785299Y-115194605D01*
X176847611Y-115160579D01*
X176874394Y-115157700D01*
X176930287Y-115157700D01*
X176936739Y-115156328D01*
X176936744Y-115156328D01*
X177065103Y-115129044D01*
X177135894Y-115134446D01*
X177192526Y-115177263D01*
X177217020Y-115243901D01*
X177217300Y-115252291D01*
X177217300Y-119352033D01*
X177216773Y-119363216D01*
X177215098Y-119370709D01*
X177215347Y-119378635D01*
X177215347Y-119378636D01*
X177217238Y-119438786D01*
X177217300Y-119442745D01*
X177217300Y-119470656D01*
X177217797Y-119474590D01*
X177217797Y-119474591D01*
X177217805Y-119474656D01*
X177218738Y-119486493D01*
X177220127Y-119530689D01*
X177225778Y-119550139D01*
X177229787Y-119569500D01*
X177232326Y-119589597D01*
X177235245Y-119596968D01*
X177235245Y-119596970D01*
X177248604Y-119630712D01*
X177252449Y-119641942D01*
X177255904Y-119653835D01*
X177264782Y-119684393D01*
X177268815Y-119691212D01*
X177268817Y-119691217D01*
X177275093Y-119701828D01*
X177283788Y-119719576D01*
X177291248Y-119738417D01*
X177295910Y-119744833D01*
X177295910Y-119744834D01*
X177317236Y-119774187D01*
X177323750Y-119784104D01*
X177327233Y-119789993D01*
X177344092Y-119840965D01*
X177363658Y-120027128D01*
X177422673Y-120208756D01*
X177518160Y-120374144D01*
X177522578Y-120379051D01*
X177522579Y-120379052D01*
X177635868Y-120504872D01*
X177645947Y-120516066D01*
X177704157Y-120558358D01*
X177786518Y-120618197D01*
X177800448Y-120628318D01*
X177806476Y-120631002D01*
X177806478Y-120631003D01*
X177959944Y-120699330D01*
X177974912Y-120705994D01*
X178068313Y-120725847D01*
X178155256Y-120744328D01*
X178155261Y-120744328D01*
X178161713Y-120745700D01*
X178352687Y-120745700D01*
X178359139Y-120744328D01*
X178359144Y-120744328D01*
X178446087Y-120725847D01*
X178539488Y-120705994D01*
X178554456Y-120699330D01*
X178707922Y-120631003D01*
X178707924Y-120631002D01*
X178713952Y-120628318D01*
X178727883Y-120618197D01*
X178810243Y-120558358D01*
X178868453Y-120516066D01*
X178878532Y-120504872D01*
X178991821Y-120379052D01*
X178991822Y-120379051D01*
X178996240Y-120374144D01*
X179091727Y-120208756D01*
X179150742Y-120027128D01*
X179170704Y-119837200D01*
X179165742Y-119789993D01*
X179151432Y-119653835D01*
X179151432Y-119653833D01*
X179150742Y-119647272D01*
X179091727Y-119465644D01*
X179076221Y-119438786D01*
X179031229Y-119360858D01*
X178996240Y-119300256D01*
X178868453Y-119158334D01*
X178713952Y-119046082D01*
X178707924Y-119043398D01*
X178707922Y-119043397D01*
X178559051Y-118977116D01*
X178504955Y-118931136D01*
X178484300Y-118862009D01*
X178484300Y-113769168D01*
X178484827Y-113757985D01*
X178486502Y-113750492D01*
X178484362Y-113682401D01*
X178484300Y-113678444D01*
X178484300Y-113650544D01*
X178483796Y-113646553D01*
X178482863Y-113634711D01*
X178482457Y-113621771D01*
X178481474Y-113590511D01*
X178479262Y-113582897D01*
X178479261Y-113582892D01*
X178475823Y-113571059D01*
X178471812Y-113551695D01*
X178470267Y-113539464D01*
X178469274Y-113531603D01*
X178466357Y-113524236D01*
X178466356Y-113524231D01*
X178452998Y-113490492D01*
X178449154Y-113479265D01*
X178442999Y-113458082D01*
X178436818Y-113436807D01*
X178436577Y-113436400D01*
X180493296Y-113436400D01*
X180493986Y-113442965D01*
X180509976Y-113595097D01*
X180513258Y-113626328D01*
X180572273Y-113807956D01*
X180667760Y-113973344D01*
X180795547Y-114115266D01*
X180950048Y-114227518D01*
X180956076Y-114230202D01*
X180956078Y-114230203D01*
X181118481Y-114302509D01*
X181124512Y-114305194D01*
X181217913Y-114325047D01*
X181304856Y-114343528D01*
X181304861Y-114343528D01*
X181311313Y-114344900D01*
X181502287Y-114344900D01*
X181508739Y-114343528D01*
X181508744Y-114343528D01*
X181595687Y-114325047D01*
X181689088Y-114305194D01*
X181695119Y-114302509D01*
X181857522Y-114230203D01*
X181857524Y-114230202D01*
X181863552Y-114227518D01*
X181878291Y-114216810D01*
X182011411Y-114120092D01*
X182018053Y-114115266D01*
X182022468Y-114110363D01*
X182027380Y-114105940D01*
X182028505Y-114107189D01*
X182081814Y-114074349D01*
X182115000Y-114069900D01*
X182667006Y-114069900D01*
X182735127Y-114089902D01*
X182756101Y-114106805D01*
X184726878Y-116077582D01*
X184760904Y-116139894D01*
X184763092Y-116153503D01*
X184764411Y-116166045D01*
X184779428Y-116308924D01*
X184780458Y-116318728D01*
X184839473Y-116500356D01*
X184934960Y-116665744D01*
X185062747Y-116807666D01*
X185098215Y-116833435D01*
X185207512Y-116912844D01*
X185217248Y-116919918D01*
X185223276Y-116922602D01*
X185223278Y-116922603D01*
X185385681Y-116994909D01*
X185391712Y-116997594D01*
X185485112Y-117017447D01*
X185572056Y-117035928D01*
X185572061Y-117035928D01*
X185578513Y-117037300D01*
X185769487Y-117037300D01*
X185775939Y-117035928D01*
X185775944Y-117035928D01*
X185862888Y-117017447D01*
X185956288Y-116997594D01*
X185962319Y-116994909D01*
X186124722Y-116922603D01*
X186124724Y-116922602D01*
X186130752Y-116919918D01*
X186140489Y-116912844D01*
X186249785Y-116833435D01*
X186285253Y-116807666D01*
X186413040Y-116665744D01*
X186508527Y-116500356D01*
X186567542Y-116318728D01*
X186568573Y-116308924D01*
X186586814Y-116135365D01*
X186587504Y-116128800D01*
X186577588Y-116034455D01*
X186568232Y-115945435D01*
X186568232Y-115945433D01*
X186567542Y-115938872D01*
X186508527Y-115757244D01*
X186413040Y-115591856D01*
X186290014Y-115455221D01*
X186289675Y-115454845D01*
X186289674Y-115454844D01*
X186285253Y-115449934D01*
X186130752Y-115337682D01*
X186124724Y-115334998D01*
X186124722Y-115334997D01*
X185962319Y-115262691D01*
X185962318Y-115262691D01*
X185956288Y-115260006D01*
X185862887Y-115240153D01*
X185775944Y-115221672D01*
X185775939Y-115221672D01*
X185769487Y-115220300D01*
X185713594Y-115220300D01*
X185645473Y-115200298D01*
X185624499Y-115183395D01*
X184569042Y-114127937D01*
X183485252Y-113044147D01*
X183477712Y-113035861D01*
X183473600Y-113029382D01*
X183423948Y-112982756D01*
X183421107Y-112980002D01*
X183401370Y-112960265D01*
X183398173Y-112957785D01*
X183389151Y-112950080D01*
X183383788Y-112945044D01*
X183356921Y-112919814D01*
X183349975Y-112915995D01*
X183349972Y-112915993D01*
X183339166Y-112910052D01*
X183322647Y-112899201D01*
X183321775Y-112898525D01*
X183306641Y-112886786D01*
X183299372Y-112883641D01*
X183299368Y-112883638D01*
X183266063Y-112869226D01*
X183255413Y-112864009D01*
X183216660Y-112842705D01*
X183197037Y-112837667D01*
X183178334Y-112831263D01*
X183167020Y-112826367D01*
X183167019Y-112826367D01*
X183159745Y-112823219D01*
X183151922Y-112821980D01*
X183151912Y-112821977D01*
X183116076Y-112816301D01*
X183104456Y-112813895D01*
X183069311Y-112804872D01*
X183069310Y-112804872D01*
X183061630Y-112802900D01*
X183041376Y-112802900D01*
X183021665Y-112801349D01*
X183009486Y-112799420D01*
X183001657Y-112798180D01*
X182993765Y-112798926D01*
X182957639Y-112802341D01*
X182945781Y-112802900D01*
X182115000Y-112802900D01*
X182046879Y-112782898D01*
X182027653Y-112766557D01*
X182027380Y-112766860D01*
X182022468Y-112762437D01*
X182018053Y-112757534D01*
X181951698Y-112709324D01*
X181868894Y-112649163D01*
X181868893Y-112649162D01*
X181863552Y-112645282D01*
X181857524Y-112642598D01*
X181857522Y-112642597D01*
X181695119Y-112570291D01*
X181695118Y-112570291D01*
X181689088Y-112567606D01*
X181595688Y-112547753D01*
X181508744Y-112529272D01*
X181508739Y-112529272D01*
X181502287Y-112527900D01*
X181311313Y-112527900D01*
X181304861Y-112529272D01*
X181304856Y-112529272D01*
X181217912Y-112547753D01*
X181124512Y-112567606D01*
X181118482Y-112570291D01*
X181118481Y-112570291D01*
X180956078Y-112642597D01*
X180956076Y-112642598D01*
X180950048Y-112645282D01*
X180944707Y-112649162D01*
X180944706Y-112649163D01*
X180899611Y-112681927D01*
X180795547Y-112757534D01*
X180791126Y-112762444D01*
X180791125Y-112762445D01*
X180682003Y-112883638D01*
X180667760Y-112899456D01*
X180572273Y-113064844D01*
X180513258Y-113246472D01*
X180512568Y-113253033D01*
X180512568Y-113253035D01*
X180498204Y-113389707D01*
X180493296Y-113436400D01*
X178436577Y-113436400D01*
X178426507Y-113419372D01*
X178417812Y-113401624D01*
X178410352Y-113382783D01*
X178399533Y-113367891D01*
X178384364Y-113347013D01*
X178377848Y-113337093D01*
X178359380Y-113305865D01*
X178359378Y-113305862D01*
X178355342Y-113299038D01*
X178341021Y-113284717D01*
X178328180Y-113269683D01*
X178320931Y-113259706D01*
X178316272Y-113253293D01*
X178282195Y-113225102D01*
X178273416Y-113217112D01*
X175878281Y-110821976D01*
X175844255Y-110759664D01*
X175849320Y-110688848D01*
X175893315Y-110630945D01*
X175922053Y-110610066D01*
X175929520Y-110601773D01*
X176045421Y-110473052D01*
X176045422Y-110473051D01*
X176049840Y-110468144D01*
X176145327Y-110302756D01*
X176204342Y-110121128D01*
X176224304Y-109931200D01*
X176216080Y-109852955D01*
X176205032Y-109747835D01*
X176205032Y-109747833D01*
X176204342Y-109741272D01*
X176145327Y-109559644D01*
X176049840Y-109394256D01*
X175976663Y-109312985D01*
X175945947Y-109248979D01*
X175944300Y-109228676D01*
X175944300Y-105978594D01*
X175964302Y-105910473D01*
X175981205Y-105889499D01*
X178106100Y-103764605D01*
X178168412Y-103730579D01*
X178195195Y-103727700D01*
X178251087Y-103727700D01*
X178257539Y-103726328D01*
X178257544Y-103726328D01*
X178344487Y-103707847D01*
X178437888Y-103687994D01*
X178463127Y-103676757D01*
X178606322Y-103613003D01*
X178606324Y-103613002D01*
X178612352Y-103610318D01*
X178622590Y-103602880D01*
X178677683Y-103562852D01*
X178766853Y-103498066D01*
X178776932Y-103486872D01*
X178890221Y-103361052D01*
X178890222Y-103361051D01*
X178894640Y-103356144D01*
X178959042Y-103244597D01*
X178986823Y-103196479D01*
X178986824Y-103196478D01*
X178990127Y-103190756D01*
X179049142Y-103009128D01*
X179069104Y-102819200D01*
X179058094Y-102714441D01*
X179049832Y-102635835D01*
X179049832Y-102635833D01*
X179049142Y-102629272D01*
X178990127Y-102447644D01*
X178894640Y-102282256D01*
X178766853Y-102140334D01*
X178612352Y-102028082D01*
X178606324Y-102025398D01*
X178606322Y-102025397D01*
X178443919Y-101953091D01*
X178443918Y-101953091D01*
X178437888Y-101950406D01*
X178344487Y-101930553D01*
X178257544Y-101912072D01*
X178257539Y-101912072D01*
X178251087Y-101910700D01*
X178060113Y-101910700D01*
X178053661Y-101912072D01*
X178053656Y-101912072D01*
X177966712Y-101930553D01*
X177873312Y-101950406D01*
X177867282Y-101953091D01*
X177867281Y-101953091D01*
X177704878Y-102025397D01*
X177704876Y-102025398D01*
X177698848Y-102028082D01*
X177544347Y-102140334D01*
X177416560Y-102282256D01*
X177321073Y-102447644D01*
X177262058Y-102629272D01*
X177261368Y-102635833D01*
X177261368Y-102635835D01*
X177254859Y-102697765D01*
X177247062Y-102771957D01*
X177244693Y-102794493D01*
X177217680Y-102860150D01*
X177208478Y-102870418D01*
X174918547Y-105160348D01*
X174910261Y-105167888D01*
X174903782Y-105172000D01*
X174898357Y-105177777D01*
X174857157Y-105221651D01*
X174854402Y-105224493D01*
X174834665Y-105244230D01*
X174832185Y-105247427D01*
X174824482Y-105256447D01*
X174794214Y-105288679D01*
X174790395Y-105295625D01*
X174790393Y-105295628D01*
X174784452Y-105306434D01*
X174773601Y-105322953D01*
X174761186Y-105338959D01*
X174758041Y-105346228D01*
X174758038Y-105346232D01*
X174743626Y-105379537D01*
X174738409Y-105390187D01*
X174717105Y-105428940D01*
X174715134Y-105436615D01*
X174715134Y-105436616D01*
X174712067Y-105448562D01*
X174705663Y-105467266D01*
X174697619Y-105485855D01*
X174696380Y-105493678D01*
X174696377Y-105493688D01*
X174690701Y-105529524D01*
X174688295Y-105541144D01*
X174677300Y-105583970D01*
X174677300Y-105604224D01*
X174675749Y-105623934D01*
X174672580Y-105643943D01*
X174673326Y-105651835D01*
X174676741Y-105687961D01*
X174677300Y-105699819D01*
X174677300Y-107996005D01*
X174657298Y-108064126D01*
X174603642Y-108110619D01*
X174533368Y-108120723D01*
X174468788Y-108091229D01*
X174462205Y-108085100D01*
X172204590Y-105827485D01*
X172170564Y-105765173D01*
X172175629Y-105694358D01*
X172219624Y-105636454D01*
X172309422Y-105571211D01*
X172366053Y-105530066D01*
X172430792Y-105458166D01*
X172489421Y-105393052D01*
X172489422Y-105393051D01*
X172493840Y-105388144D01*
X172589327Y-105222756D01*
X172648342Y-105041128D01*
X172649680Y-105028403D01*
X172667614Y-104857765D01*
X172668304Y-104851200D01*
X172663511Y-104805594D01*
X172649032Y-104667835D01*
X172649032Y-104667833D01*
X172648342Y-104661272D01*
X172589327Y-104479644D01*
X172493840Y-104314256D01*
X172366053Y-104172334D01*
X172211552Y-104060082D01*
X172205524Y-104057398D01*
X172205522Y-104057397D01*
X172043119Y-103985091D01*
X172043118Y-103985091D01*
X172037088Y-103982406D01*
X171943687Y-103962553D01*
X171856744Y-103944072D01*
X171856739Y-103944072D01*
X171850287Y-103942700D01*
X171794394Y-103942700D01*
X171726273Y-103922698D01*
X171705299Y-103905795D01*
X171184071Y-103384566D01*
X170632852Y-102833347D01*
X170625312Y-102825061D01*
X170621200Y-102818582D01*
X170571548Y-102771956D01*
X170568707Y-102769202D01*
X170548970Y-102749465D01*
X170545773Y-102746985D01*
X170536751Y-102739280D01*
X170510300Y-102714441D01*
X170504521Y-102709014D01*
X170497575Y-102705195D01*
X170497572Y-102705193D01*
X170486766Y-102699252D01*
X170470247Y-102688401D01*
X170464248Y-102683748D01*
X170454241Y-102675986D01*
X170446972Y-102672841D01*
X170446968Y-102672838D01*
X170413663Y-102658426D01*
X170403013Y-102653209D01*
X170364260Y-102631905D01*
X170354006Y-102629272D01*
X170344638Y-102626867D01*
X170325934Y-102620463D01*
X170314620Y-102615567D01*
X170314619Y-102615567D01*
X170307345Y-102612419D01*
X170299522Y-102611180D01*
X170299512Y-102611177D01*
X170263676Y-102605501D01*
X170252056Y-102603095D01*
X170216911Y-102594072D01*
X170216910Y-102594072D01*
X170209230Y-102592100D01*
X170188976Y-102592100D01*
X170169265Y-102590549D01*
X170157086Y-102588620D01*
X170149257Y-102587380D01*
X170141365Y-102588126D01*
X170105239Y-102591541D01*
X170093381Y-102592100D01*
X168043400Y-102592100D01*
X167975279Y-102572098D01*
X167956053Y-102555757D01*
X167955780Y-102556060D01*
X167950868Y-102551637D01*
X167946453Y-102546734D01*
X167831454Y-102463182D01*
X167797294Y-102438363D01*
X167797293Y-102438362D01*
X167791952Y-102434482D01*
X167785924Y-102431798D01*
X167785922Y-102431797D01*
X167623519Y-102359491D01*
X167623518Y-102359491D01*
X167617488Y-102356806D01*
X167496246Y-102331035D01*
X167437144Y-102318472D01*
X167437139Y-102318472D01*
X167430687Y-102317100D01*
X167239713Y-102317100D01*
X167233261Y-102318472D01*
X167233256Y-102318472D01*
X167174154Y-102331035D01*
X167052912Y-102356806D01*
X167046882Y-102359491D01*
X167046881Y-102359491D01*
X166884478Y-102431797D01*
X166884476Y-102431798D01*
X166878448Y-102434482D01*
X166873107Y-102438362D01*
X166873106Y-102438363D01*
X166838946Y-102463182D01*
X166723947Y-102546734D01*
X166719526Y-102551644D01*
X166719525Y-102551645D01*
X166610403Y-102672838D01*
X166596160Y-102688656D01*
X166583487Y-102710606D01*
X166524581Y-102812635D01*
X166500673Y-102854044D01*
X166441658Y-103035672D01*
X166440968Y-103042233D01*
X166440968Y-103042235D01*
X166436191Y-103087690D01*
X166421696Y-103225600D01*
X166422386Y-103232165D01*
X166438260Y-103383194D01*
X166441658Y-103415528D01*
X166500673Y-103597156D01*
X166503976Y-103602878D01*
X166503977Y-103602879D01*
X166509822Y-103613003D01*
X166596160Y-103762544D01*
X166600578Y-103767451D01*
X166600579Y-103767452D01*
X166709832Y-103888790D01*
X166740550Y-103952797D01*
X166731785Y-104023251D01*
X166686322Y-104077782D01*
X166616196Y-104099100D01*
X163925767Y-104099100D01*
X163914584Y-104098573D01*
X163907091Y-104096898D01*
X163899165Y-104097147D01*
X163899164Y-104097147D01*
X163839001Y-104099038D01*
X163835043Y-104099100D01*
X163807144Y-104099100D01*
X163803154Y-104099604D01*
X163791320Y-104100536D01*
X163747111Y-104101926D01*
X163739497Y-104104138D01*
X163739492Y-104104139D01*
X163727659Y-104107577D01*
X163708296Y-104111588D01*
X163688203Y-104114126D01*
X163680836Y-104117043D01*
X163680831Y-104117044D01*
X163647092Y-104130402D01*
X163635865Y-104134246D01*
X163593407Y-104146582D01*
X163586581Y-104150619D01*
X163575972Y-104156893D01*
X163558224Y-104165588D01*
X163539383Y-104173048D01*
X163532967Y-104177710D01*
X163532966Y-104177710D01*
X163503613Y-104199036D01*
X163493693Y-104205552D01*
X163462465Y-104224020D01*
X163462462Y-104224022D01*
X163455638Y-104228058D01*
X163441317Y-104242379D01*
X163426284Y-104255219D01*
X163409893Y-104267128D01*
X163404842Y-104273234D01*
X163381702Y-104301205D01*
X163373712Y-104309984D01*
X161788486Y-105895209D01*
X161726174Y-105929235D01*
X161673194Y-105929361D01*
X161544344Y-105901973D01*
X161544339Y-105901973D01*
X161537887Y-105900601D01*
X161346913Y-105900601D01*
X161340461Y-105901973D01*
X161340456Y-105901973D01*
X161253513Y-105920454D01*
X161160112Y-105940307D01*
X161154082Y-105942992D01*
X161154081Y-105942992D01*
X160991678Y-106015298D01*
X160991676Y-106015299D01*
X160985648Y-106017983D01*
X160831147Y-106130235D01*
X160826726Y-106135145D01*
X160826725Y-106135146D01*
X160718688Y-106255134D01*
X160703360Y-106272157D01*
X160656140Y-106353944D01*
X160634619Y-106391220D01*
X160583237Y-106440213D01*
X160513523Y-106453649D01*
X160447612Y-106427263D01*
X160406430Y-106369431D01*
X160399500Y-106328220D01*
X160399500Y-105096524D01*
X160419502Y-105028403D01*
X160431858Y-105012221D01*
X160505040Y-104930944D01*
X160578961Y-104802909D01*
X160597223Y-104771279D01*
X160597224Y-104771278D01*
X160600527Y-104765556D01*
X160659542Y-104583928D01*
X160660812Y-104571851D01*
X160678814Y-104400565D01*
X160679504Y-104394000D01*
X160666811Y-104273234D01*
X160660232Y-104210635D01*
X160660232Y-104210633D01*
X160659542Y-104204072D01*
X160600527Y-104022444D01*
X160505040Y-103857056D01*
X160388568Y-103727700D01*
X160381675Y-103720045D01*
X160381674Y-103720044D01*
X160377253Y-103715134D01*
X160236768Y-103613065D01*
X160228094Y-103606763D01*
X160228093Y-103606762D01*
X160222752Y-103602882D01*
X160216724Y-103600198D01*
X160216722Y-103600197D01*
X160054319Y-103527891D01*
X160054318Y-103527891D01*
X160048288Y-103525206D01*
X159936554Y-103501456D01*
X159867944Y-103486872D01*
X159867939Y-103486872D01*
X159861487Y-103485500D01*
X159670513Y-103485500D01*
X159664061Y-103486872D01*
X159664056Y-103486872D01*
X159595446Y-103501456D01*
X159483712Y-103525206D01*
X159477685Y-103527889D01*
X159477677Y-103527892D01*
X159459148Y-103536142D01*
X159388781Y-103545576D01*
X159324484Y-103515469D01*
X159286671Y-103455380D01*
X159281900Y-103421035D01*
X159281900Y-101701600D01*
X172568496Y-101701600D01*
X172588458Y-101891528D01*
X172647473Y-102073156D01*
X172742960Y-102238544D01*
X172870747Y-102380466D01*
X173025248Y-102492718D01*
X173031276Y-102495402D01*
X173031278Y-102495403D01*
X173167517Y-102556060D01*
X173199712Y-102570394D01*
X173283134Y-102588126D01*
X173380056Y-102608728D01*
X173380061Y-102608728D01*
X173386513Y-102610100D01*
X173577487Y-102610100D01*
X173583939Y-102608728D01*
X173583944Y-102608728D01*
X173680866Y-102588126D01*
X173764288Y-102570394D01*
X173796483Y-102556060D01*
X173932722Y-102495403D01*
X173932724Y-102495402D01*
X173938752Y-102492718D01*
X174093253Y-102380466D01*
X174221040Y-102238544D01*
X174316527Y-102073156D01*
X174375542Y-101891528D01*
X174395504Y-101701600D01*
X174385446Y-101605900D01*
X174376232Y-101518235D01*
X174376232Y-101518233D01*
X174375542Y-101511672D01*
X174316527Y-101330044D01*
X174221040Y-101164656D01*
X174147863Y-101083385D01*
X174117147Y-101019379D01*
X174115500Y-100999076D01*
X174115500Y-99923600D01*
X175108496Y-99923600D01*
X175128458Y-100113528D01*
X175187473Y-100295156D01*
X175282960Y-100460544D01*
X175410747Y-100602466D01*
X175565248Y-100714718D01*
X175571276Y-100717402D01*
X175571278Y-100717403D01*
X175733681Y-100789709D01*
X175739712Y-100792394D01*
X175833113Y-100812247D01*
X175920056Y-100830728D01*
X175920061Y-100830728D01*
X175926513Y-100832100D01*
X176117487Y-100832100D01*
X176123939Y-100830728D01*
X176123944Y-100830728D01*
X176210887Y-100812247D01*
X176304288Y-100792394D01*
X176310319Y-100789709D01*
X176472722Y-100717403D01*
X176472724Y-100717402D01*
X176478752Y-100714718D01*
X176633253Y-100602466D01*
X176637668Y-100597563D01*
X176642580Y-100593140D01*
X176643705Y-100594389D01*
X176697014Y-100561549D01*
X176730200Y-100557100D01*
X178095006Y-100557100D01*
X178163127Y-100577102D01*
X178184101Y-100594005D01*
X180053278Y-102463182D01*
X180087304Y-102525494D01*
X180089492Y-102539103D01*
X180095004Y-102591541D01*
X180104390Y-102680842D01*
X180106858Y-102704328D01*
X180165873Y-102885956D01*
X180261360Y-103051344D01*
X180389147Y-103193266D01*
X180424615Y-103219035D01*
X180534472Y-103298851D01*
X180543648Y-103305518D01*
X180549676Y-103308202D01*
X180549678Y-103308203D01*
X180712081Y-103380509D01*
X180718112Y-103383194D01*
X180811513Y-103403047D01*
X180898456Y-103421528D01*
X180898461Y-103421528D01*
X180904913Y-103422900D01*
X181095887Y-103422900D01*
X181102339Y-103421528D01*
X181102344Y-103421528D01*
X181189287Y-103403047D01*
X181282688Y-103383194D01*
X181288719Y-103380509D01*
X181451122Y-103308203D01*
X181451124Y-103308202D01*
X181457152Y-103305518D01*
X181466329Y-103298851D01*
X181576185Y-103219035D01*
X181611653Y-103193266D01*
X181739440Y-103051344D01*
X181834927Y-102885956D01*
X181893942Y-102704328D01*
X181896411Y-102680842D01*
X181913214Y-102520965D01*
X181913904Y-102514400D01*
X181897623Y-102359491D01*
X181894632Y-102331035D01*
X181894632Y-102331033D01*
X181893942Y-102324472D01*
X181834927Y-102142844D01*
X181739440Y-101977456D01*
X181611653Y-101835534D01*
X181457152Y-101723282D01*
X181451124Y-101720598D01*
X181451122Y-101720597D01*
X181288719Y-101648291D01*
X181288718Y-101648291D01*
X181282688Y-101645606D01*
X181189288Y-101625753D01*
X181102344Y-101607272D01*
X181102339Y-101607272D01*
X181095887Y-101605900D01*
X181039995Y-101605900D01*
X180971874Y-101585898D01*
X180950900Y-101568995D01*
X178913252Y-99531347D01*
X178905712Y-99523061D01*
X178901600Y-99516582D01*
X178851948Y-99469956D01*
X178849107Y-99467202D01*
X178829370Y-99447465D01*
X178826173Y-99444985D01*
X178817151Y-99437280D01*
X178784921Y-99407014D01*
X178777975Y-99403195D01*
X178777972Y-99403193D01*
X178767166Y-99397252D01*
X178750647Y-99386401D01*
X178744648Y-99381748D01*
X178734641Y-99373986D01*
X178727372Y-99370841D01*
X178727368Y-99370838D01*
X178694063Y-99356426D01*
X178683413Y-99351209D01*
X178644660Y-99329905D01*
X178625037Y-99324867D01*
X178606334Y-99318463D01*
X178595020Y-99313567D01*
X178595019Y-99313567D01*
X178587745Y-99310419D01*
X178579922Y-99309180D01*
X178579912Y-99309177D01*
X178544076Y-99303501D01*
X178532456Y-99301095D01*
X178497311Y-99292072D01*
X178497310Y-99292072D01*
X178489630Y-99290100D01*
X178469376Y-99290100D01*
X178449665Y-99288549D01*
X178437486Y-99286620D01*
X178429657Y-99285380D01*
X178421765Y-99286126D01*
X178385639Y-99289541D01*
X178373781Y-99290100D01*
X176730200Y-99290100D01*
X176662079Y-99270098D01*
X176642853Y-99253757D01*
X176642580Y-99254060D01*
X176637668Y-99249637D01*
X176633253Y-99244734D01*
X176478752Y-99132482D01*
X176472724Y-99129798D01*
X176472722Y-99129797D01*
X176310319Y-99057491D01*
X176310318Y-99057491D01*
X176304288Y-99054806D01*
X176210887Y-99034953D01*
X176123944Y-99016472D01*
X176123939Y-99016472D01*
X176117487Y-99015100D01*
X175926513Y-99015100D01*
X175920061Y-99016472D01*
X175920056Y-99016472D01*
X175833113Y-99034953D01*
X175739712Y-99054806D01*
X175733682Y-99057491D01*
X175733681Y-99057491D01*
X175571278Y-99129797D01*
X175571276Y-99129798D01*
X175565248Y-99132482D01*
X175410747Y-99244734D01*
X175406326Y-99249644D01*
X175406325Y-99249645D01*
X175297203Y-99370838D01*
X175282960Y-99386656D01*
X175187473Y-99552044D01*
X175128458Y-99733672D01*
X175108496Y-99923600D01*
X174115500Y-99923600D01*
X174115500Y-98576828D01*
X174135502Y-98508707D01*
X174167439Y-98474892D01*
X174216570Y-98439196D01*
X174245653Y-98418066D01*
X174373440Y-98276144D01*
X174468927Y-98110756D01*
X174527942Y-97929128D01*
X174536742Y-97845406D01*
X174547214Y-97745765D01*
X174547904Y-97739200D01*
X174543841Y-97700541D01*
X174528632Y-97555835D01*
X174528632Y-97555833D01*
X174527942Y-97549272D01*
X174468927Y-97367644D01*
X174373440Y-97202256D01*
X174365744Y-97193708D01*
X174250075Y-97065245D01*
X174250074Y-97065244D01*
X174245653Y-97060334D01*
X174091152Y-96948082D01*
X174085124Y-96945398D01*
X174085122Y-96945397D01*
X173922719Y-96873091D01*
X173922718Y-96873091D01*
X173916688Y-96870406D01*
X173804954Y-96846656D01*
X173736344Y-96832072D01*
X173736339Y-96832072D01*
X173729887Y-96830700D01*
X173538913Y-96830700D01*
X173532461Y-96832072D01*
X173532456Y-96832072D01*
X173463846Y-96846656D01*
X173352112Y-96870406D01*
X173346082Y-96873091D01*
X173346081Y-96873091D01*
X173183678Y-96945397D01*
X173183676Y-96945398D01*
X173177648Y-96948082D01*
X173023147Y-97060334D01*
X173018726Y-97065244D01*
X173018725Y-97065245D01*
X172903057Y-97193708D01*
X172895360Y-97202256D01*
X172799873Y-97367644D01*
X172740858Y-97549272D01*
X172740168Y-97555833D01*
X172740168Y-97555835D01*
X172724959Y-97700541D01*
X172720896Y-97739200D01*
X172721586Y-97745765D01*
X172732059Y-97845406D01*
X172740858Y-97929128D01*
X172799873Y-98110756D01*
X172831620Y-98165743D01*
X172848500Y-98228741D01*
X172848500Y-100999076D01*
X172828498Y-101067197D01*
X172816142Y-101083379D01*
X172742960Y-101164656D01*
X172647473Y-101330044D01*
X172588458Y-101511672D01*
X172587768Y-101518233D01*
X172587768Y-101518235D01*
X172578554Y-101605900D01*
X172568496Y-101701600D01*
X159281900Y-101701600D01*
X159281900Y-98375893D01*
X159301902Y-98307772D01*
X159355558Y-98261279D01*
X159425832Y-98251175D01*
X159434097Y-98252646D01*
X159613256Y-98290728D01*
X159613261Y-98290728D01*
X159619713Y-98292100D01*
X159810687Y-98292100D01*
X159817139Y-98290728D01*
X159817144Y-98290728D01*
X159904088Y-98272247D01*
X159997488Y-98252394D01*
X160020753Y-98242036D01*
X160165922Y-98177403D01*
X160165924Y-98177402D01*
X160171952Y-98174718D01*
X160326453Y-98062466D01*
X160330875Y-98057555D01*
X160449821Y-97925452D01*
X160449822Y-97925451D01*
X160454240Y-97920544D01*
X160549727Y-97755156D01*
X160608742Y-97573528D01*
X160611292Y-97549272D01*
X160628014Y-97390165D01*
X160628704Y-97383600D01*
X160615210Y-97255209D01*
X160609432Y-97200235D01*
X160609432Y-97200233D01*
X160608742Y-97193672D01*
X160549727Y-97012044D01*
X160454240Y-96846656D01*
X160381063Y-96765385D01*
X160350347Y-96701379D01*
X160348700Y-96681076D01*
X160348700Y-96039967D01*
X160349227Y-96028784D01*
X160350902Y-96021291D01*
X160348762Y-95953200D01*
X160348700Y-95949243D01*
X160348700Y-95921344D01*
X160348196Y-95917353D01*
X160347263Y-95905511D01*
X160346666Y-95886496D01*
X160345874Y-95861311D01*
X160343662Y-95853697D01*
X160343661Y-95853692D01*
X160340223Y-95841859D01*
X160336212Y-95822495D01*
X160334667Y-95810264D01*
X160333674Y-95802403D01*
X160330757Y-95795036D01*
X160330756Y-95795031D01*
X160317398Y-95761292D01*
X160313554Y-95750065D01*
X160303430Y-95715222D01*
X160301218Y-95707607D01*
X160290907Y-95690172D01*
X160282212Y-95672424D01*
X160274752Y-95653583D01*
X160248764Y-95617813D01*
X160242248Y-95607893D01*
X160223780Y-95576665D01*
X160223778Y-95576662D01*
X160219742Y-95569838D01*
X160205421Y-95555517D01*
X160192580Y-95540483D01*
X160185331Y-95530506D01*
X160180672Y-95524093D01*
X160146595Y-95495902D01*
X160137816Y-95487912D01*
X158288452Y-93638547D01*
X158280912Y-93630261D01*
X158276800Y-93623782D01*
X158253019Y-93601450D01*
X158217053Y-93540237D01*
X158219892Y-93469297D01*
X158260632Y-93411153D01*
X158326340Y-93384265D01*
X158339272Y-93383600D01*
X192697600Y-93383600D01*
X192765721Y-93403602D01*
X192812214Y-93457258D01*
X192823600Y-93509600D01*
X192823600Y-144818600D01*
X192803598Y-144886721D01*
X192749942Y-144933214D01*
X192697600Y-144944600D01*
X180716923Y-144944600D01*
X180716153Y-144944598D01*
X180715337Y-144944593D01*
X180638579Y-144944124D01*
X180616218Y-144950515D01*
X180610147Y-144952250D01*
X180593385Y-144955828D01*
X180564113Y-144960020D01*
X180555945Y-144963734D01*
X180555944Y-144963734D01*
X180540738Y-144970648D01*
X180523214Y-144977096D01*
X180498529Y-144984151D01*
X180490935Y-144988943D01*
X180490932Y-144988944D01*
X180473520Y-144999930D01*
X180458437Y-145008069D01*
X180431518Y-145020308D01*
X180424716Y-145026169D01*
X180412065Y-145037070D01*
X180397061Y-145048173D01*
X180375342Y-145061876D01*
X180369403Y-145068601D01*
X180369399Y-145068604D01*
X180355768Y-145084038D01*
X180343576Y-145096082D01*
X180327973Y-145109527D01*
X180327971Y-145109530D01*
X180321173Y-145115387D01*
X180316293Y-145122916D01*
X180316292Y-145122917D01*
X180307206Y-145136935D01*
X180295915Y-145151809D01*
X180284869Y-145164317D01*
X180278922Y-145171051D01*
X180266358Y-145197811D01*
X180258037Y-145212791D01*
X180246829Y-145230083D01*
X180246827Y-145230088D01*
X180241948Y-145237615D01*
X180239378Y-145246208D01*
X180239376Y-145246213D01*
X180234589Y-145262220D01*
X180227928Y-145279664D01*
X180217019Y-145302900D01*
X180215638Y-145311767D01*
X180215638Y-145311768D01*
X180212470Y-145332115D01*
X180208687Y-145348832D01*
X180202785Y-145368566D01*
X180202784Y-145368572D01*
X180200214Y-145377166D01*
X180200159Y-145386137D01*
X180200159Y-145386138D01*
X180200004Y-145411597D01*
X180199971Y-145412389D01*
X180199800Y-145413486D01*
X180199800Y-145444477D01*
X180199798Y-145445247D01*
X180199324Y-145522821D01*
X180199708Y-145524165D01*
X180199800Y-145525510D01*
X180199800Y-151549600D01*
X180179798Y-151617721D01*
X180126142Y-151664214D01*
X180073800Y-151675600D01*
X114464600Y-151675600D01*
X114396479Y-151655598D01*
X114349986Y-151601942D01*
X114338600Y-151549600D01*
X114338600Y-150339303D01*
X117487526Y-150339303D01*
X117492807Y-150346358D01*
X117681021Y-150456341D01*
X117690308Y-150460791D01*
X117903061Y-150542033D01*
X117912963Y-150544910D01*
X118136111Y-150590310D01*
X118146363Y-150591533D01*
X118373938Y-150599877D01*
X118384224Y-150599410D01*
X118610115Y-150570473D01*
X118620201Y-150568330D01*
X118838328Y-150502888D01*
X118847923Y-150499128D01*
X119052437Y-150398937D01*
X119061283Y-150393663D01*
X119126831Y-150346908D01*
X119135232Y-150336208D01*
X119128245Y-150323056D01*
X118326011Y-149520821D01*
X118312068Y-149513208D01*
X118310234Y-149513339D01*
X118303620Y-149517590D01*
X117494283Y-150326928D01*
X117487526Y-150339303D01*
X114338600Y-150339303D01*
X114338600Y-149118462D01*
X116861169Y-149118462D01*
X116874278Y-149345817D01*
X116875714Y-149356037D01*
X116925780Y-149578193D01*
X116928859Y-149588021D01*
X117014538Y-149799023D01*
X117019191Y-149808234D01*
X117114353Y-149963523D01*
X117124811Y-149972985D01*
X117133587Y-149969202D01*
X117941179Y-149161611D01*
X117947556Y-149149932D01*
X118677608Y-149149932D01*
X118677739Y-149151766D01*
X118681990Y-149158380D01*
X119488024Y-149964413D01*
X119521302Y-149982584D01*
X119568350Y-150027337D01*
X119680474Y-150210306D01*
X119836404Y-150390317D01*
X120019642Y-150542444D01*
X120024094Y-150545046D01*
X120024099Y-150545049D01*
X120122533Y-150602569D01*
X120225265Y-150662601D01*
X120447752Y-150747560D01*
X120452818Y-150748591D01*
X120452819Y-150748591D01*
X120507156Y-150759646D01*
X120681128Y-150795041D01*
X120815321Y-150799962D01*
X120913960Y-150803579D01*
X120913964Y-150803579D01*
X120919124Y-150803768D01*
X120924244Y-150803112D01*
X120924246Y-150803112D01*
X121150223Y-150774164D01*
X121150224Y-150774164D01*
X121155351Y-150773507D01*
X121238400Y-150748591D01*
X121378516Y-150706554D01*
X121378517Y-150706553D01*
X121383462Y-150705070D01*
X121597333Y-150600295D01*
X121601536Y-150597297D01*
X121601541Y-150597294D01*
X121787016Y-150464996D01*
X121787018Y-150464994D01*
X121791220Y-150461997D01*
X121959916Y-150293889D01*
X122098890Y-150100486D01*
X122144974Y-150007244D01*
X122202117Y-149891624D01*
X122202118Y-149891622D01*
X122204411Y-149886982D01*
X122273643Y-149659111D01*
X122287448Y-149554255D01*
X122304292Y-149426313D01*
X122304292Y-149426309D01*
X122304729Y-149422992D01*
X122304811Y-149419640D01*
X122306382Y-149355365D01*
X122306382Y-149355361D01*
X122306464Y-149352000D01*
X122286950Y-149114644D01*
X122228931Y-148883663D01*
X122133967Y-148665259D01*
X122125485Y-148652147D01*
X122007416Y-148469642D01*
X122004606Y-148465298D01*
X121969709Y-148426946D01*
X121886095Y-148335056D01*
X121844324Y-148289150D01*
X121840273Y-148285951D01*
X121840269Y-148285947D01*
X121661478Y-148144747D01*
X121661473Y-148144744D01*
X121657424Y-148141546D01*
X121652908Y-148139053D01*
X121652905Y-148139051D01*
X121453450Y-148028946D01*
X121453446Y-148028944D01*
X121448926Y-148026449D01*
X121444057Y-148024725D01*
X121444053Y-148024723D01*
X121229305Y-147948676D01*
X121229301Y-147948675D01*
X121224430Y-147946950D01*
X121219340Y-147946043D01*
X121219335Y-147946042D01*
X121087688Y-147922593D01*
X120989964Y-147905186D01*
X120900837Y-147904097D01*
X120756995Y-147902339D01*
X120756993Y-147902339D01*
X120751825Y-147902276D01*
X120516409Y-147938300D01*
X120290038Y-148012289D01*
X120078790Y-148122258D01*
X120074657Y-148125361D01*
X120074654Y-148125363D01*
X120048837Y-148144747D01*
X119888340Y-148265252D01*
X119884768Y-148268990D01*
X119746749Y-148413418D01*
X119685224Y-148448848D01*
X119614312Y-148445391D01*
X119556526Y-148404145D01*
X119549863Y-148394807D01*
X119511208Y-148335056D01*
X119500522Y-148325852D01*
X119490955Y-148330256D01*
X118685221Y-149135989D01*
X118677608Y-149149932D01*
X117947556Y-149149932D01*
X117948792Y-149147668D01*
X117948661Y-149145834D01*
X117944410Y-149139220D01*
X117138420Y-148333231D01*
X117126888Y-148326934D01*
X117114606Y-148336557D01*
X117052947Y-148426946D01*
X117047854Y-148435910D01*
X116951968Y-148642479D01*
X116948411Y-148652147D01*
X116887552Y-148871597D01*
X116885621Y-148881716D01*
X116861421Y-149108173D01*
X116861169Y-149118462D01*
X114338600Y-149118462D01*
X114338600Y-147961085D01*
X117490281Y-147961085D01*
X117497025Y-147973414D01*
X118300389Y-148776779D01*
X118314332Y-148784392D01*
X118316166Y-148784261D01*
X118322780Y-148780010D01*
X119130531Y-147972258D01*
X119137548Y-147959407D01*
X119129774Y-147948737D01*
X119121204Y-147941969D01*
X119112617Y-147936264D01*
X118913255Y-147826210D01*
X118903843Y-147821980D01*
X118689171Y-147745960D01*
X118679214Y-147743330D01*
X118455005Y-147703391D01*
X118444754Y-147702422D01*
X118217030Y-147699640D01*
X118206746Y-147700360D01*
X117981637Y-147734806D01*
X117971610Y-147737195D01*
X117755151Y-147807944D01*
X117745642Y-147811941D01*
X117543651Y-147917092D01*
X117534916Y-147922593D01*
X117498735Y-147949758D01*
X117490281Y-147961085D01*
X114338600Y-147961085D01*
X114338600Y-134539723D01*
X114338602Y-134538953D01*
X114339021Y-134470354D01*
X114339076Y-134461379D01*
X114330950Y-134432947D01*
X114327372Y-134416185D01*
X114324452Y-134395798D01*
X114323180Y-134386913D01*
X114312551Y-134363536D01*
X114306104Y-134346013D01*
X114301516Y-134329962D01*
X114299049Y-134321329D01*
X114294256Y-134313732D01*
X114283270Y-134296320D01*
X114275130Y-134281235D01*
X114262892Y-134254318D01*
X114246130Y-134234865D01*
X114235027Y-134219861D01*
X114221324Y-134198142D01*
X114214599Y-134192203D01*
X114214596Y-134192199D01*
X114199162Y-134178568D01*
X114187118Y-134166376D01*
X114173673Y-134150773D01*
X114173670Y-134150771D01*
X114167813Y-134143973D01*
X114146265Y-134130006D01*
X114131391Y-134118715D01*
X114118883Y-134107669D01*
X114118882Y-134107668D01*
X114112149Y-134101722D01*
X114085387Y-134089157D01*
X114070409Y-134080837D01*
X114053117Y-134069629D01*
X114053112Y-134069627D01*
X114045585Y-134064748D01*
X114036992Y-134062178D01*
X114036987Y-134062176D01*
X114020980Y-134057389D01*
X114003536Y-134050728D01*
X113988424Y-134043633D01*
X113988422Y-134043632D01*
X113980300Y-134039819D01*
X113971433Y-134038438D01*
X113971432Y-134038438D01*
X113961790Y-134036937D01*
X113951083Y-134035270D01*
X113934368Y-134031487D01*
X113914634Y-134025585D01*
X113914628Y-134025584D01*
X113906034Y-134023014D01*
X113897063Y-134022959D01*
X113897062Y-134022959D01*
X113887003Y-134022898D01*
X113871594Y-134022804D01*
X113870811Y-134022771D01*
X113869714Y-134022600D01*
X113838723Y-134022600D01*
X113837953Y-134022598D01*
X113764315Y-134022148D01*
X113764314Y-134022148D01*
X113760379Y-134022124D01*
X113759035Y-134022508D01*
X113757690Y-134022600D01*
X104317300Y-134022600D01*
X104249179Y-134002598D01*
X104202686Y-133948942D01*
X104191300Y-133896600D01*
X104191300Y-120766894D01*
X136138970Y-120766894D01*
X136139267Y-120772046D01*
X136139267Y-120772050D01*
X136150214Y-120961905D01*
X136152679Y-121004655D01*
X136153816Y-121009701D01*
X136153817Y-121009707D01*
X136178965Y-121121295D01*
X136205037Y-121236985D01*
X136206979Y-121241767D01*
X136206980Y-121241771D01*
X136286350Y-121437236D01*
X136294637Y-121457644D01*
X136419074Y-121660706D01*
X136575004Y-121840717D01*
X136758242Y-121992844D01*
X136762694Y-121995446D01*
X136762699Y-121995449D01*
X136941923Y-122100179D01*
X136963865Y-122113001D01*
X137186352Y-122197960D01*
X137191418Y-122198991D01*
X137191419Y-122198991D01*
X137211704Y-122203118D01*
X137419728Y-122245441D01*
X137553921Y-122250362D01*
X137652560Y-122253979D01*
X137652564Y-122253979D01*
X137657724Y-122254168D01*
X137662844Y-122253512D01*
X137662846Y-122253512D01*
X137888823Y-122224564D01*
X137888824Y-122224564D01*
X137893951Y-122223907D01*
X137898901Y-122222422D01*
X138117116Y-122156954D01*
X138117117Y-122156953D01*
X138122062Y-122155470D01*
X138335933Y-122050695D01*
X138340136Y-122047697D01*
X138340141Y-122047694D01*
X138525616Y-121915396D01*
X138525618Y-121915394D01*
X138529820Y-121912397D01*
X138698516Y-121744289D01*
X138837490Y-121550886D01*
X138841526Y-121542721D01*
X138940717Y-121342024D01*
X138940718Y-121342022D01*
X138943011Y-121337382D01*
X139006358Y-121128882D01*
X139010741Y-121114455D01*
X139010741Y-121114454D01*
X139012243Y-121109511D01*
X139020217Y-121048945D01*
X139042892Y-120876713D01*
X139042892Y-120876709D01*
X139043329Y-120873392D01*
X139045064Y-120802400D01*
X139025550Y-120565044D01*
X138967531Y-120334063D01*
X138909100Y-120199679D01*
X138874627Y-120120396D01*
X138874625Y-120120393D01*
X138872567Y-120115659D01*
X138863519Y-120101672D01*
X138746016Y-119920042D01*
X138743206Y-119915698D01*
X138582924Y-119739550D01*
X138578873Y-119736351D01*
X138578869Y-119736347D01*
X138459330Y-119641942D01*
X138445147Y-119630741D01*
X138404085Y-119572825D01*
X138400853Y-119501902D01*
X138436478Y-119440491D01*
X138450071Y-119429282D01*
X138525614Y-119375398D01*
X138525621Y-119375392D01*
X138529820Y-119372397D01*
X138698516Y-119204289D01*
X138837490Y-119010886D01*
X138854181Y-118977116D01*
X138940717Y-118802024D01*
X138940718Y-118802022D01*
X138943011Y-118797382D01*
X138991210Y-118638739D01*
X139010741Y-118574455D01*
X139010741Y-118574454D01*
X139012243Y-118569511D01*
X139022113Y-118494544D01*
X139042892Y-118336713D01*
X139042892Y-118336709D01*
X139043329Y-118333392D01*
X139045064Y-118262400D01*
X139025550Y-118025044D01*
X138967531Y-117794063D01*
X138894994Y-117627237D01*
X138874627Y-117580396D01*
X138874625Y-117580393D01*
X138872567Y-117575659D01*
X138855494Y-117549267D01*
X138783739Y-117438353D01*
X138743206Y-117375698D01*
X138723977Y-117354565D01*
X138599056Y-117217279D01*
X138582924Y-117199550D01*
X138578873Y-117196351D01*
X138578869Y-117196347D01*
X138450378Y-117094872D01*
X138445147Y-117090741D01*
X138404085Y-117032825D01*
X138400853Y-116961902D01*
X138436478Y-116900491D01*
X138450071Y-116889282D01*
X138525614Y-116835398D01*
X138525621Y-116835392D01*
X138529820Y-116832397D01*
X138698516Y-116664289D01*
X138837490Y-116470886D01*
X138841526Y-116462721D01*
X138940717Y-116262024D01*
X138940718Y-116262022D01*
X138943011Y-116257382D01*
X139006358Y-116048882D01*
X139010741Y-116034455D01*
X139010741Y-116034454D01*
X139012243Y-116029511D01*
X139025147Y-115931500D01*
X139042892Y-115796713D01*
X139042892Y-115796709D01*
X139043329Y-115793392D01*
X139044059Y-115763529D01*
X139044982Y-115725765D01*
X139044982Y-115725761D01*
X139045064Y-115722400D01*
X139025550Y-115485044D01*
X138967531Y-115254063D01*
X138888845Y-115073095D01*
X138874627Y-115040396D01*
X138874625Y-115040393D01*
X138872567Y-115035659D01*
X138855494Y-115009267D01*
X138746016Y-114840042D01*
X138743206Y-114835698D01*
X138582924Y-114659550D01*
X138578873Y-114656351D01*
X138578869Y-114656347D01*
X138445148Y-114550742D01*
X138404085Y-114492825D01*
X138400853Y-114421902D01*
X138436478Y-114360491D01*
X138450071Y-114349282D01*
X138525614Y-114295398D01*
X138525621Y-114295392D01*
X138529820Y-114292397D01*
X138698516Y-114124289D01*
X138702210Y-114119149D01*
X138745235Y-114059272D01*
X138837490Y-113930886D01*
X138883574Y-113837644D01*
X138940717Y-113722024D01*
X138940718Y-113722022D01*
X138943011Y-113717382D01*
X139012243Y-113489511D01*
X139019807Y-113432057D01*
X139042892Y-113256713D01*
X139042892Y-113256709D01*
X139043329Y-113253392D01*
X139043652Y-113240194D01*
X139044982Y-113185765D01*
X139044982Y-113185761D01*
X139045064Y-113182400D01*
X139025550Y-112945044D01*
X138967531Y-112714063D01*
X138872567Y-112495659D01*
X138855494Y-112469267D01*
X138746016Y-112300042D01*
X138743206Y-112295698D01*
X138582924Y-112119550D01*
X138578873Y-112116351D01*
X138578869Y-112116347D01*
X138436732Y-112004095D01*
X138395669Y-111946178D01*
X138392437Y-111875255D01*
X138414206Y-111830513D01*
X138406844Y-111816655D01*
X138209349Y-111619160D01*
X138175323Y-111556848D01*
X138180388Y-111486033D01*
X138220871Y-111430776D01*
X138285791Y-111380055D01*
X138290647Y-111376261D01*
X138384688Y-111267313D01*
X138444338Y-111228818D01*
X138515335Y-111228682D01*
X138569162Y-111260551D01*
X138766622Y-111458011D01*
X138778632Y-111464569D01*
X138790372Y-111455601D01*
X138834041Y-111394829D01*
X138839351Y-111385992D01*
X138940250Y-111181838D01*
X138944049Y-111172243D01*
X139010249Y-110954357D01*
X139012428Y-110944276D01*
X139042391Y-110716688D01*
X139042910Y-110710015D01*
X139044480Y-110645765D01*
X139044286Y-110639046D01*
X139025479Y-110410287D01*
X139023794Y-110400107D01*
X138968315Y-110179237D01*
X138964995Y-110169486D01*
X138874184Y-109960633D01*
X138869318Y-109951558D01*
X138789808Y-109828656D01*
X138779122Y-109819452D01*
X138769553Y-109823857D01*
X138568583Y-110024827D01*
X138506271Y-110058853D01*
X138435456Y-110053788D01*
X138381845Y-110015368D01*
X138314760Y-109933113D01*
X138314757Y-109933110D01*
X138310865Y-109928338D01*
X138298814Y-109918368D01*
X138281599Y-109904127D01*
X138218237Y-109851709D01*
X138178500Y-109792878D01*
X138176877Y-109721900D01*
X138209458Y-109665531D01*
X138409127Y-109465862D01*
X138416148Y-109453006D01*
X138408375Y-109442338D01*
X138399804Y-109435569D01*
X138391217Y-109429864D01*
X138191855Y-109319810D01*
X138182443Y-109315580D01*
X137967771Y-109239560D01*
X137957814Y-109236930D01*
X137733605Y-109196991D01*
X137723354Y-109196022D01*
X137495630Y-109193240D01*
X137485346Y-109193960D01*
X137260237Y-109228406D01*
X137250210Y-109230795D01*
X137033751Y-109301544D01*
X137024242Y-109305541D01*
X136822251Y-109410692D01*
X136813516Y-109416193D01*
X136777335Y-109443358D01*
X136768881Y-109454685D01*
X136775626Y-109467015D01*
X136974275Y-109665664D01*
X137008301Y-109727976D01*
X137003236Y-109798791D01*
X136964132Y-109852955D01*
X136882775Y-109918368D01*
X136800419Y-110016516D01*
X136741313Y-110055840D01*
X136670326Y-110056966D01*
X136614806Y-110024617D01*
X136417024Y-109826835D01*
X136405488Y-109820535D01*
X136393206Y-109830158D01*
X136331547Y-109920546D01*
X136326454Y-109929510D01*
X136230568Y-110136079D01*
X136227011Y-110145747D01*
X136166152Y-110365197D01*
X136164221Y-110375316D01*
X136140021Y-110601773D01*
X136139769Y-110612062D01*
X136152878Y-110839417D01*
X136154314Y-110849637D01*
X136204380Y-111071793D01*
X136207459Y-111081621D01*
X136293138Y-111292623D01*
X136297791Y-111301834D01*
X136392953Y-111457123D01*
X136403411Y-111466585D01*
X136412187Y-111462802D01*
X136615072Y-111259918D01*
X136677384Y-111225893D01*
X136748200Y-111230958D01*
X136802913Y-111270750D01*
X136827550Y-111301834D01*
X136862835Y-111346353D01*
X136966420Y-111434510D01*
X137005332Y-111493891D01*
X137005963Y-111564885D01*
X136973852Y-111619558D01*
X136772883Y-111820528D01*
X136766126Y-111832903D01*
X136766560Y-111833483D01*
X136791372Y-111900003D01*
X136776281Y-111969377D01*
X136741346Y-112009753D01*
X136631075Y-112092547D01*
X136626940Y-112095652D01*
X136462402Y-112267831D01*
X136328194Y-112464572D01*
X136281004Y-112566234D01*
X136234697Y-112665996D01*
X136227922Y-112680591D01*
X136164277Y-112910085D01*
X136163728Y-112915219D01*
X136163728Y-112915221D01*
X136159568Y-112954145D01*
X136138970Y-113146894D01*
X136139267Y-113152046D01*
X136139267Y-113152050D01*
X136146036Y-113269445D01*
X136152679Y-113384655D01*
X136153816Y-113389701D01*
X136153817Y-113389707D01*
X136184070Y-113523948D01*
X136205037Y-113616985D01*
X136206979Y-113621767D01*
X136206980Y-113621771D01*
X136263248Y-113760343D01*
X136294637Y-113837644D01*
X136419074Y-114040706D01*
X136575004Y-114220717D01*
X136661343Y-114292397D01*
X136739360Y-114357168D01*
X136778995Y-114416071D01*
X136780493Y-114487051D01*
X136743378Y-114547574D01*
X136734528Y-114554872D01*
X136631075Y-114632547D01*
X136626940Y-114635652D01*
X136462402Y-114807831D01*
X136328194Y-115004572D01*
X136326015Y-115009267D01*
X136237342Y-115200298D01*
X136227922Y-115220591D01*
X136164277Y-115450085D01*
X136163728Y-115455219D01*
X136163728Y-115455221D01*
X136158249Y-115506489D01*
X136138970Y-115686894D01*
X136139267Y-115692046D01*
X136139267Y-115692050D01*
X136145162Y-115794289D01*
X136152679Y-115924655D01*
X136153816Y-115929701D01*
X136153817Y-115929707D01*
X136180070Y-116046197D01*
X136205037Y-116156985D01*
X136206979Y-116161767D01*
X136206980Y-116161771D01*
X136262357Y-116298148D01*
X136294637Y-116377644D01*
X136419074Y-116580706D01*
X136575004Y-116760717D01*
X136711359Y-116873921D01*
X136739360Y-116897168D01*
X136778995Y-116956071D01*
X136780493Y-117027051D01*
X136743378Y-117087574D01*
X136734528Y-117094872D01*
X136650354Y-117158072D01*
X136626940Y-117175652D01*
X136592629Y-117211556D01*
X136523740Y-117283645D01*
X136462402Y-117347831D01*
X136459488Y-117352103D01*
X136459487Y-117352104D01*
X136416072Y-117415748D01*
X136328194Y-117544572D01*
X136288021Y-117631118D01*
X136246970Y-117719556D01*
X136227922Y-117760591D01*
X136164277Y-117990085D01*
X136163728Y-117995219D01*
X136163728Y-117995221D01*
X136159988Y-118030221D01*
X136138970Y-118226894D01*
X136139267Y-118232046D01*
X136139267Y-118232050D01*
X136145196Y-118334879D01*
X136152679Y-118464655D01*
X136153816Y-118469701D01*
X136153817Y-118469707D01*
X136181378Y-118592003D01*
X136205037Y-118696985D01*
X136206979Y-118701767D01*
X136206980Y-118701771D01*
X136272046Y-118862009D01*
X136294637Y-118917644D01*
X136419074Y-119120706D01*
X136575004Y-119300717D01*
X136651100Y-119363893D01*
X136739360Y-119437168D01*
X136778995Y-119496071D01*
X136780493Y-119567051D01*
X136743378Y-119627574D01*
X136734528Y-119634872D01*
X136633984Y-119710363D01*
X136626940Y-119715652D01*
X136462402Y-119887831D01*
X136328194Y-120084572D01*
X136293262Y-120159827D01*
X136246491Y-120260588D01*
X136227922Y-120300591D01*
X136164277Y-120530085D01*
X136163728Y-120535219D01*
X136163728Y-120535221D01*
X136158644Y-120582792D01*
X136138970Y-120766894D01*
X104191300Y-120766894D01*
X104191300Y-108204000D01*
X126645296Y-108204000D01*
X126665258Y-108393928D01*
X126724273Y-108575556D01*
X126819760Y-108740944D01*
X126947547Y-108882866D01*
X127102048Y-108995118D01*
X127108076Y-108997802D01*
X127108078Y-108997803D01*
X127270481Y-109070109D01*
X127276512Y-109072794D01*
X127369913Y-109092647D01*
X127456856Y-109111128D01*
X127456861Y-109111128D01*
X127463313Y-109112500D01*
X127654287Y-109112500D01*
X127660739Y-109111128D01*
X127660744Y-109111128D01*
X127747688Y-109092647D01*
X127841088Y-109072794D01*
X127847119Y-109070109D01*
X128009522Y-108997803D01*
X128009524Y-108997802D01*
X128015552Y-108995118D01*
X128170053Y-108882866D01*
X128297840Y-108740944D01*
X128393327Y-108575556D01*
X128452342Y-108393928D01*
X128472304Y-108204000D01*
X128466345Y-108147300D01*
X128453032Y-108020635D01*
X128453032Y-108020633D01*
X128452342Y-108014072D01*
X128393327Y-107832444D01*
X128388464Y-107824020D01*
X128303971Y-107677676D01*
X128297840Y-107667056D01*
X128170053Y-107525134D01*
X128015552Y-107412882D01*
X128009524Y-107410198D01*
X128009522Y-107410197D01*
X127847119Y-107337891D01*
X127847118Y-107337891D01*
X127841088Y-107335206D01*
X127728521Y-107311279D01*
X127660744Y-107296872D01*
X127660739Y-107296872D01*
X127654287Y-107295500D01*
X127463313Y-107295500D01*
X127456861Y-107296872D01*
X127456856Y-107296872D01*
X127389079Y-107311279D01*
X127276512Y-107335206D01*
X127270482Y-107337891D01*
X127270481Y-107337891D01*
X127108078Y-107410197D01*
X127108076Y-107410198D01*
X127102048Y-107412882D01*
X126947547Y-107525134D01*
X126819760Y-107667056D01*
X126813629Y-107677676D01*
X126729137Y-107824020D01*
X126724273Y-107832444D01*
X126665258Y-108014072D01*
X126664568Y-108020633D01*
X126664568Y-108020635D01*
X126651255Y-108147300D01*
X126645296Y-108204000D01*
X104191300Y-108204000D01*
X104191300Y-93509600D01*
X104211302Y-93441479D01*
X104264958Y-93394986D01*
X104317300Y-93383600D01*
X139856668Y-93383600D01*
X139924789Y-93403602D01*
G37*
%TD.AperFunction*%
%TD*%
M02*
